{
.appVersion = "1342";
DisplayStrings = (
"AÆBCDEFGHIJ",
"/Ccircumflex",
"É",
"/Ecaron",
F,
F,
"Æ",
"È",
"/dotaccent",
"/dotaccentcomb.case",
"Ë"
);
copyright = "Copyright 2020 The Blue Ocean Project Authors (https://github.com/eliheuer/blue-ocean)";
customParameters = (
{
name = license;
value = "This Font Software is licensed under the SIL Open Font License, Version 1.1. This license is available with a FAQ at: http://scripts.sil.org/OFL";
},
{
name = licenseURL;
value = "http://scripts.sil.org/OFL";
},
{
name = fsType;
value = (
);
},
{
name = "Disable Last Change";
value = 1;
},
{
name = "Use Line Breaks";
value = 1;
},
{
name = "Use Typo Metrics";
value = 1;
},
{
name = "Variable Font Origin";
value = master01;
},
{
name = Axes;
value = (
{
Name = weight;
Tag = wght;
}
);
}
);
date = "2020-04-16 19:34:24 +0000";
designer = "Jean-Baptiste Morizot, Eli Heuer";
designerURL = "http://cargocollective.com/jbmrz";
disablesAutomaticAlignment = 1;
disablesNiceNames = 1;
familyName = "Blue Ocean";
fontMaster = (
{
alignmentZones = (
"{1480, 32}",
"{1370, 26}",
"{1190, 30}",
"{980, 24}",
"{0, -24}",
"{-430, -20}",
"{-520, -30}"
);
ascender = 1480;
capHeight = 1372;
customParameters = (
{
name = underlineThickness;
value = 100;
},
{
name = underlinePosition;
value = -150;
},
{
name = hheaAscender;
value = 1880;
},
{
name = hheaDescender;
value = -520;
},
{
name = hheaLineGap;
value = 0;
},
{
name = typoAscender;
value = 1880;
},
{
name = typoDescender;
value = -520;
},
{
name = typoLineGap;
value = 400;
},
{
name = winAscent;
value = 1880;
},
{
name = winDescent;
value = 739;
},
{
name = "Master Icon Glyph Name";
value = a;
}
);
descender = -520;
horizontalStems = (
40,
172,
366,
370
);
iconName = Light;
id = "02ADBE8D-B3BB-4EC7-92FE-8DBAAB138109";
verticalStems = (
240,
342
);
weightValue = 400;
xHeight = 980;
},
{
alignmentZones = (
"{1480, 32}",
"{1370, 26}",
"{1190, 30}",
"{980, 24}",
"{0, -24}",
"{-430, -20}",
"{-520, -30}"
);
ascender = 1480;
capHeight = 1372;

glyphs = (
{
color = 8;
glyphname = A;
layers = (
{
anchors = (
{
name = bottom;
position = "{646, 0}";
},
{
name = top;
position = "{710, 1372}";
}
);
layerId = master01;
paths = (
{
closed = 1;
nodes = (
"206 4 OFFCURVE",
"395 -6 OFFCURVE",
"421 -6 OFFCURVE",
"429 26 OFFCURVE",
"337 82 OFFCURVE",
"262 156 OFFCURVE",
"328 326 OFFCURVE",
"362 404 OFFCURVE",
"386 424 OFFCURVE",
"430 432 OFFCURVE",
"626 432 QCURVE SMOOTH",
"849 432 OFFCURVE",
"881 426 OFFCURVE",
"899 406 OFFCURVE",
"935 325 OFFCURVE",
"1012 138 OFFCURVE",
"944 78 OFFCURVE",
"852 26 OFFCURVE",
"860 -4 OFFCURVE",
"908 -4 OFFCURVE",
"1130 6 OFFCURVE",
"1354 -4 OFFCURVE",
"1412 -4 OFFCURVE",
"1418 36 OFFCURVE",
"1334 88 OFFCURVE",
"1296 132 OFFCURVE",
"1020 780 OFFCURVE",
"764 1367 OFFCURVE",
"734 1404 OFFCURVE",
"710 1404 QCURVE SMOOTH",
"679 1404 OFFCURVE",
"650 1367 OFFCURVE",
"358 666 OFFCURVE",
"152 158 OFFCURVE",
"106 96 OFFCURVE",
"26 26 OFFCURVE",
"28 -6 OFFCURVE",
"64 -6 OFFCURVE"
);
},
{
closed = 1;
nodes = (
"475 514 OFFCURVE",
"427 520 OFFCURVE",
"420 556 OFFCURVE",
"508 767 OFFCURVE",
"598 1004 OFFCURVE",
"612 1036 OFFCURVE",
"626 1036 QCURVE SMOOTH",
"640 1036 OFFCURVE",
"656 1004 OFFCURVE",
"747 767 OFFCURVE",
"842 550 OFFCURVE",
"831 518 OFFCURVE",
"781 514 OFFCURVE",
"620 514 QCURVE SMOOTH"
);
}
);
userData = {
com.schriftgestaltung.Glyphs.lastChange = "2020-04-17 19:24:36 +0000";
};
width = 1454;
},
{
anchors = (
{
name = bottom;
position = "{646, 0}";
},
{
name = top;
position = "{712, 1372}";
}
);
layerId = "F16CA8CE-DA8C-4EBD-81D6-AE00C3431B7F";
paths = (
{
closed = 1;
nodes = (
"206 4 OFFCURVE",
"392 -6 OFFCURVE",
"418 -6 OFFCURVE",
"426 26 OFFCURVE",
"340 80 OFFCURVE",
"262 156 OFFCURVE",
"328 326 OFFCURVE",
"362 404 OFFCURVE",
"386 424 OFFCURVE",
"430 432 OFFCURVE",
"626 432 QCURVE SMOOTH",
"838 432 OFFCURVE",
"874 424 OFFCURVE",
"900 402 OFFCURVE",
"932 326 OFFCURVE",
"1012 138 OFFCURVE",
"944 78 OFFCURVE",
"854 26 OFFCURVE",
"862 -4 OFFCURVE",
"910 -4 OFFCURVE",
"1130 6 OFFCURVE",
"1354 -4 OFFCURVE",
"1412 -4 OFFCURVE",
"1418 36 OFFCURVE",
"1334 88 OFFCURVE",
"1296 132 OFFCURVE",
"1020 780 OFFCURVE",
"760 1370 OFFCURVE",
"730 1408 OFFCURVE",
"712 1408 QCURVE SMOOTH",
"690 1408 OFFCURVE",
"656 1370 OFFCURVE",
"358 666 OFFCURVE",
"152 158 OFFCURVE",
"106 96 OFFCURVE",
"28 26 OFFCURVE",
"30 -6 OFFCURVE",
"66 -6 OFFCURVE"
);
},
{
closed = 1;
nodes = (
"480 514 OFFCURVE",
"432 520 OFFCURVE",
"420 556 OFFCURVE",
"510 780 OFFCURVE",
"598 1004 OFFCURVE",
"612 1036 OFFCURVE",
"626 1036 QCURVE SMOOTH",
"640 1036 OFFCURVE",
"656 1004 OFFCURVE",
"752 760 OFFCURVE",
"842 550 OFFCURVE",
"826 518 OFFCURVE",
"776 514 OFFCURVE",
"620 514 QCURVE SMOOTH"
);
}
);
userData = {
com.schriftgestaltung.Glyphs.lastChange = "2020-04-17 19:24:36 +0000";
};
width = 1454;
},
{
anchors = (
{
name = bottom;
position = "{646, 0}";
},
{
name = top;
position = "{712, 1372}";
}
);
layerId = "02ADBE8D-B3BB-4EC7-92FE-8DBAAB138109";
paths = (
{
closed = 1;
nodes = (
"206 4 OFFCURVE",
"392 -6 OFFCURVE",
"418 -6 OFFCURVE",
"426 26 OFFCURVE",
"340 80 OFFCURVE",
"262 156 OFFCURVE",
"328 326 OFFCURVE",
"362 404 OFFCURVE",
"386 424 OFFCURVE",
"430 432 OFFCURVE",
"626 432 QCURVE SMOOTH",
"838 432 OFFCURVE",
"874 424 OFFCURVE",
"900 402 OFFCURVE",
"932 326 OFFCURVE",
"1012 138 OFFCURVE",
"944 78 OFFCURVE",
"854 26 OFFCURVE",
"862 -4 OFFCURVE",
"910 -4 OFFCURVE",
"1130 6 OFFCURVE",
"1354 -4 OFFCURVE",
"1412 -4 OFFCURVE",
"1418 36 OFFCURVE",
"1334 88 OFFCURVE",
"1296 132 OFFCURVE",
"1020 780 OFFCURVE",
"760 1370 OFFCURVE",
"730 1408 OFFCURVE",
"712 1408 QCURVE SMOOTH",
"690 1408 OFFCURVE",
"656 1370 OFFCURVE",
"358 666 OFFCURVE",
"152 158 OFFCURVE",
"106 96 OFFCURVE",
"28 26 OFFCURVE",
"30 -6 OFFCURVE",
"66 -6 OFFCURVE"
);
},
{
closed = 1;
nodes = (
"480 514 OFFCURVE",
"432 520 OFFCURVE",
"420 556 OFFCURVE",
"510 780 OFFCURVE",
"598 1004 OFFCURVE",
"612 1036 OFFCURVE",
"626 1036 QCURVE SMOOTH",
"640 1036 OFFCURVE",
"656 1004 OFFCURVE",
"752 760 OFFCURVE",
"842 550 OFFCURVE",
"826 518 OFFCURVE",
"776 514 OFFCURVE",
"620 514 QCURVE SMOOTH"
);
}
);
userData = {
com.schriftgestaltung.Glyphs.lastChange = "2020-04-17 19:24:36 +0000";
};
width = 1454;
},
{
anchors = (
{
name = bottom;
position = "{646, 0}";
},
{
name = top;
position = "{712, 1372}";
}
);
associatedMasterId = master01;
layerId = "C31AE0A3-4202-4D69-BF47-0E3466FA6673";
name = "Jul 4 20, 22:38";
paths = (
{
closed = 1;
nodes = (
"1444 0 LINE",
"1294 134 LINE",
"754 1390 LINE",
"660 1390 LINE",
"152 158 LINE",
"10 0 LINE",
"452 0 LINE",
"262 156 LINE",
"370 428 LINE",
"890 428 LINE",
"1012 138 LINE",
"828 0 LINE"
);
},
{
closed = 1;
nodes = (
"854 518 LINE",
"406 518 LINE",
"626 1066 LINE"
);
}
);
userData = {
com.schriftgestaltung.Glyphs.lastChange = "2020-04-17 19:24:36 +0000";
};
visible = 1;
width = 1454;
}
);
unicode = 0041;
},
{
color = 8;
glyphname = Acircumflex;
layers = (
{
components = (
{
name = A;
transform = "{1, 0, 0, 1, 6, -2}";
},
{
name = circumflexcomb.case;
transform = "{1, 0, 0, 1, 502, 378}";
}
);
layerId = master01;
width = 1454;
},
{
components = (
{
name = A;
transform = "{1, 0, 0, 1, 6, -2}";
},
{
name = circumflexcomb.case;
transform = "{1, 0, 0, 1, 502, 378}";
}
);
layerId = "F16CA8CE-DA8C-4EBD-81D6-AE00C3431B7F";
width = 1454;
},
{
components = (
{
name = A;
transform = "{1, 0, 0, 1, 6, -2}";
},
{
name = circumflexcomb.case;
transform = "{1, 0, 0, 1, 502, 378}";
}
);
layerId = "02ADBE8D-B3BB-4EC7-92FE-8DBAAB138109";
width = 1454;
},
{
associatedMasterId = master01;
layerId = "D4280899-252E-4A3A-9809-85A2A3547CDB";
name = "Jul 4 20, 22:53";
paths = (
{
closed = 1;
nodes = (
"546 1480 LINE",
"724 1620 LINE",
"902 1480 LINE",
"932 1480 LINE",
"806 1738 LINE",
"640 1738 LINE",
"516 1480 LINE"
);
},
{
closed = 1;
nodes = (
"904 428 LINE",
"1026 138 LINE",
"842 0 LINE",
"1458 0 LINE",
"1308 134 LINE",
"768 1390 LINE",
"674 1390 LINE",
"166 158 LINE",
"24 0 LINE",
"466 0 LINE",
"276 156 LINE",
"384 428 LINE"
);
},
{
closed = 1;
nodes = (
"416 508 LINE",
"640 1066 LINE",
"872 508 LINE"
);
}
);
visible = 1;
width = 1460;
}
);
unicode = 00C2;
},
{
color = 8;
glyphname = Agrave;
layers = (
{
components = (
{
name = A;
},
{
name = gravecomb.case;
transform = "{1, 0, 0, 1, 412, 378}";
}
);
layerId = master01;
width = 1454;
},
{
components = (
{
name = A;
},
{
name = gravecomb.case;
transform = "{1, 0, 0, 1, 412, 378}";
}
);
layerId = "F16CA8CE-DA8C-4EBD-81D6-AE00C3431B7F";
width = 1454;
},
{
components = (
{
name = A;
},
{
name = gravecomb.case;
transform = "{1, 0, 0, 1, 412, 378}";
}
);
layerId = "02ADBE8D-B3BB-4EC7-92FE-8DBAAB138109";
width = 1454;
},
{
associatedMasterId = master01;
layerId = "18A3729B-3469-4E3D-A92E-54259A727B33";
name = "Jul 5 20, 22:31";
paths = (
{
closed = 1;
nodes = (
"736 1480 LINE",
"710 1738 LINE",
"448 1738 LINE",
"706 1480 LINE"
);
},
{
closed = 1;
nodes = (
"904 428 LINE",
"1026 138 LINE",
"842 0 LINE",
"1458 0 LINE",
"1308 134 LINE",
"768 1390 LINE",
"674 1390 LINE",
"166 158 LINE",
"24 0 LINE",
"466 0 LINE",
"276 156 LINE",
"384 428 LINE"
);
},
{
closed = 1;
nodes = (
"416 508 LINE",
"640 1066 LINE",
"872 508 LINE"
);
}
);
visible = 1;
width = 1454;
}
);
unicode = 00C0;
},
{
color = 8;
glyphname = Atilde;
layers = (
{
components = (
{
name = A;
},
{
name = tildecomb.case;
transform = "{1, 0, 0, 1, 330, -50}";
}
);
layerId = master01;
width = 1454;
},
{
components = (
{
name = A;
},
{
name = tildecomb.case;
transform = "{1, 0, 0, 1, 330, -50}";
}
);
layerId = "F16CA8CE-DA8C-4EBD-81D6-AE00C3431B7F";
width = 1454;
},
{
components = (
{
name = A;
},
{
name = tildecomb.case;
transform = "{1, 0, 0, 1, 330, -50}";
}
);
layerId = "02ADBE8D-B3BB-4EC7-92FE-8DBAAB138109";
width = 1454;
},
{
associatedMasterId = master01;
layerId = "40085B47-D59D-481A-934C-1CEEC03FC412";
name = "Jul 5 20, 23:17";
paths = (
{
closed = 1;
nodes = (
"950 1748 LINE",
"920 1710 OFFCURVE",
"892 1680 OFFCURVE",
"862 1680 CURVE SMOOTH",
"770 1680 OFFCURVE",
"664 1694 OFFCURVE",
"572 1702 CURVE",
"446 1488 LINE",
"474 1470 LINE",
"500 1514 OFFCURVE",
"528 1556 OFFCURVE",
"554 1556 CURVE SMOOTH",
"652 1556 OFFCURVE",
"764 1542 OFFCURVE",
"862 1534 CURVE",
"980 1736 LINE"
);
},
{
closed = 1;
nodes = (
"1444 0 LINE",
"1294 134 LINE",
"754 1390 LINE",
"660 1390 LINE",
"152 158 LINE",
"10 0 LINE",
"452 0 LINE",
"262 156 LINE",
"370 428 LINE",
"890 428 LINE",
"1012 138 LINE",
"828 0 LINE"
);
},
{
closed = 1;
nodes = (
"854 518 LINE",
"406 518 LINE",
"626 1066 LINE"
);
}
);
visible = 1;
width = 1454;
}
);
unicode = 00C3;
},
{
color = 8;
glyphname = AE;
layers = (
{
layerId = master01;
paths = (
{
closed = 1;
nodes = (
"670 434 OFFCURVE",
"841 430 OFFCURVE",
"864 420 OFFCURVE",
"866 396 OFFCURVE",
"871 310 OFFCURVE",
"870 223 OFFCURVE",
"866 203 OFFCURVE",
"831 138 OFFCURVE",
"748 32 OFFCURVE",
"743 -8 OFFCURVE",
"794 -11 OFFCURVE",
"1254 10 OFFCURVE",
"1690 -4 OFFCURVE",
"1742 -3 OFFCURVE",
"1758 38 OFFCURVE",
"1764 241 OFFCURVE",
"1776 377 OFFCURVE",
"1784 431 OFFCURVE",
"1752 443 OFFCURVE",
"1722 400 OFFCURVE",
"1636 262 OFFCURVE",
"1510 122 OFFCURVE",
"1488 92 OFFCURVE",
"1447 72 OFFCURVE",
"1302 70 OFFCURVE",
"1152 66 OFFCURVE",
"1122 70 OFFCURVE",
"1119 104 OFFCURVE",
"1113 360 OFFCURVE",
"1118 619 OFFCURVE",
"1130 659 OFFCURVE",
"1172 665 OFFCURVE",
"1400 669 OFFCURVE",
"1607 654 OFFCURVE",
"1665 653 OFFCURVE",
"1659 757 OFFCURVE",
"1606 754 OFFCURVE",
"1402 743 OFFCURVE",
"1172 747 OFFCURVE",
"1130 759 OFFCURVE",
"1118 800 OFFCURVE",
"1117 1064 OFFCURVE",
"1119 1247 OFFCURVE",
"1129 1298 OFFCURVE",
"1166 1304 OFFCURVE",
"1301 1302 OFFCURVE",
"1414 1299 OFFCURVE",
"1448 1296 OFFCURVE",
"1478 1266 OFFCURVE",
"1571 1140 OFFCURVE",
"1676 966 OFFCURVE",
"1706 952 OFFCURVE",
"1724 982 OFFCURVE",
"1715 1212 OFFCURVE",
"1724 1336 OFFCURVE",
"1714 1374 OFFCURVE",
"1662 1378 OFFCURVE",
"1154 1373 OFFCURVE",
"1052 1370 QCURVE SMOOTH",
"981 1368 OFFCURVE",
"684 1381 OFFCURVE",
"644 1380 OFFCURVE",
"642 1347 OFFCURVE",
"719 1316 OFFCURVE",
"775 1271 OFFCURVE",
"792 1249 OFFCURVE",
"782 1220 OFFCURVE",
"501 746 OFFCURVE",
"156 170 OFFCURVE",
"148 162 OFFCURVE",
"80 86 OFFCURVE",
"19 35 OFFCURVE",
"-2 8 OFFCURVE",
"17 -8 OFFCURVE",
"216 3 OFFCURVE",
"382 -8 OFFCURVE",
"419 -8 OFFCURVE",
"417 19 OFFCURVE",
"324 81 OFFCURVE",
"272 128 OFFCURVE",
"259 145 OFFCURVE",
"260 169 OFFCURVE",
"340 316 OFFCURVE",
"395 397 OFFCURVE",
"415 423 OFFCURVE",
"451 427 OFFCURVE",
"624 434 OFFCURVE",
"650 434 QCURVE SMOOTH"
);
},
{
closed = 1;
nodes = (
"595 503 OFFCURVE",
"486 504 OFFCURVE",
"467 519 OFFCURVE",
"479 545 OFFCURVE",
"632 815 OFFCURVE",
"842 1174 OFFCURVE",
"854 1190 OFFCURVE",
"858 1190 QCURVE SMOOTH",
"862 1190 OFFCURVE",
"868 1175 OFFCURVE",
"868 878 OFFCURVE",
"870 540 OFFCURVE",
"866 514 OFFCURVE",
"837 508 OFFCURVE",
"721 505 OFFCURVE",
"648 504 QCURVE SMOOTH"
);
}
);
width = 1820;
},
{
layerId = "F16CA8CE-DA8C-4EBD-81D6-AE00C3431B7F";
paths = (
{
closed = 1;
nodes = (
"670 434 OFFCURVE",
"841 430 OFFCURVE",
"864 420 OFFCURVE",
"866 396 OFFCURVE",
"871 310 OFFCURVE",
"870 223 OFFCURVE",
"866 203 OFFCURVE",
"831 138 OFFCURVE",
"748 32 OFFCURVE",
"743 -8 OFFCURVE",
"794 -11 OFFCURVE",
"1254 10 OFFCURVE",
"1690 -4 OFFCURVE",
"1742 -3 OFFCURVE",
"1758 38 OFFCURVE",
"1764 241 OFFCURVE",
"1776 377 OFFCURVE",
"1784 431 OFFCURVE",
"1752 443 OFFCURVE",
"1722 400 OFFCURVE",
"1636 262 OFFCURVE",
"1510 122 OFFCURVE",
"1488 92 OFFCURVE",
"1447 72 OFFCURVE",
"1302 70 OFFCURVE",
"1152 66 OFFCURVE",
"1122 70 OFFCURVE",
"1119 104 OFFCURVE",
"1113 360 OFFCURVE",
"1118 619 OFFCURVE",
"1130 659 OFFCURVE",
"1172 665 OFFCURVE",
"1400 669 OFFCURVE",
"1607 654 OFFCURVE",
"1665 653 OFFCURVE",
"1659 757 OFFCURVE",
"1606 754 OFFCURVE",
"1402 743 OFFCURVE",
"1172 747 OFFCURVE",
"1130 759 OFFCURVE",
"1118 800 OFFCURVE",
"1117 1064 OFFCURVE",
"1119 1247 OFFCURVE",
"1129 1298 OFFCURVE",
"1166 1304 OFFCURVE",
"1301 1302 OFFCURVE",
"1414 1299 OFFCURVE",
"1448 1296 OFFCURVE",
"1478 1266 OFFCURVE",
"1571 1140 OFFCURVE",
"1676 966 OFFCURVE",
"1706 952 OFFCURVE",
"1724 982 OFFCURVE",
"1715 1212 OFFCURVE",
"1724 1336 OFFCURVE",
"1714 1374 OFFCURVE",
"1662 1378 OFFCURVE",
"1154 1373 OFFCURVE",
"1052 1370 QCURVE SMOOTH",
"981 1368 OFFCURVE",
"684 1381 OFFCURVE",
"644 1380 OFFCURVE",
"642 1347 OFFCURVE",
"719 1316 OFFCURVE",
"775 1271 OFFCURVE",
"792 1249 OFFCURVE",
"782 1220 OFFCURVE",
"501 746 OFFCURVE",
"156 170 OFFCURVE",
"148 162 OFFCURVE",
"80 86 OFFCURVE",
"19 35 OFFCURVE",
"-2 8 OFFCURVE",
"17 -8 OFFCURVE",
"216 3 OFFCURVE",
"382 -8 OFFCURVE",
"419 -8 OFFCURVE",
"417 19 OFFCURVE",
"324 81 OFFCURVE",
"272 128 OFFCURVE",
"259 145 OFFCURVE",
"260 169 OFFCURVE",
"340 316 OFFCURVE",
"395 397 OFFCURVE",
"415 423 OFFCURVE",
"451 427 OFFCURVE",
"624 434 OFFCURVE",
"650 434 QCURVE SMOOTH"
);
},
{
closed = 1;
nodes = (
"595 503 OFFCURVE",
"486 504 OFFCURVE",
"467 519 OFFCURVE",
"479 545 OFFCURVE",
"632 815 OFFCURVE",
"842 1174 OFFCURVE",
"854 1190 OFFCURVE",
"858 1190 QCURVE SMOOTH",
"862 1190 OFFCURVE",
"868 1175 OFFCURVE",
"868 878 OFFCURVE",
"870 540 OFFCURVE",
"866 514 OFFCURVE",
"837 508 OFFCURVE",
"721 505 OFFCURVE",
"648 504 QCURVE SMOOTH"
);
}
);
width = 1820;
},
{
layerId = "02ADBE8D-B3BB-4EC7-92FE-8DBAAB138109";
paths = (
{
closed = 1;
nodes = (
"670 434 OFFCURVE",
"841 430 OFFCURVE",
"864 420 OFFCURVE",
"866 396 OFFCURVE",
"871 310 OFFCURVE",
"870 223 OFFCURVE",
"866 203 OFFCURVE",
"831 138 OFFCURVE",
"748 32 OFFCURVE",
"743 -8 OFFCURVE",
"794 -11 OFFCURVE",
"1254 10 OFFCURVE",
"1690 -4 OFFCURVE",
"1742 -3 OFFCURVE",
"1758 38 OFFCURVE",
"1764 241 OFFCURVE",
"1776 377 OFFCURVE",
"1784 431 OFFCURVE",
"1752 443 OFFCURVE",
"1722 400 OFFCURVE",
"1636 262 OFFCURVE",
"1510 122 OFFCURVE",
"1488 92 OFFCURVE",
"1447 72 OFFCURVE",
"1302 70 OFFCURVE",
"1152 66 OFFCURVE",
"1122 70 OFFCURVE",
"1119 104 OFFCURVE",
"1113 360 OFFCURVE",
"1118 619 OFFCURVE",
"1130 659 OFFCURVE",
"1172 665 OFFCURVE",
"1400 669 OFFCURVE",
"1607 654 OFFCURVE",
"1665 653 OFFCURVE",
"1659 757 OFFCURVE",
"1606 754 OFFCURVE",
"1402 743 OFFCURVE",
"1172 747 OFFCURVE",
"1130 759 OFFCURVE",
"1118 800 OFFCURVE",
"1117 1064 OFFCURVE",
"1119 1247 OFFCURVE",
"1129 1298 OFFCURVE",
"1166 1304 OFFCURVE",
"1301 1302 OFFCURVE",
"1414 1299 OFFCURVE",
"1448 1296 OFFCURVE",
"1478 1266 OFFCURVE",
"1571 1140 OFFCURVE",
"1676 966 OFFCURVE",
"1706 952 OFFCURVE",
"1724 982 OFFCURVE",
"1715 1212 OFFCURVE",
"1724 1336 OFFCURVE",
"1714 1374 OFFCURVE",
"1662 1378 OFFCURVE",
"1154 1373 OFFCURVE",
"1052 1370 QCURVE SMOOTH",
"981 1368 OFFCURVE",
"684 1381 OFFCURVE",
"644 1380 OFFCURVE",
"642 1347 OFFCURVE",
"719 1316 OFFCURVE",
"775 1271 OFFCURVE",
"792 1249 OFFCURVE",
"782 1220 OFFCURVE",
"501 746 OFFCURVE",
"156 170 OFFCURVE",
"148 162 OFFCURVE",
"80 86 OFFCURVE",
"19 35 OFFCURVE",
"-2 8 OFFCURVE",
"17 -8 OFFCURVE",
"216 3 OFFCURVE",
"382 -8 OFFCURVE",
"419 -8 OFFCURVE",
"417 19 OFFCURVE",
"324 81 OFFCURVE",
"272 128 OFFCURVE",
"259 145 OFFCURVE",
"260 169 OFFCURVE",
"340 316 OFFCURVE",
"395 397 OFFCURVE",
"415 423 OFFCURVE",
"451 427 OFFCURVE",
"624 434 OFFCURVE",
"650 434 QCURVE SMOOTH"
);
},
{
closed = 1;
nodes = (
"595 503 OFFCURVE",
"486 504 OFFCURVE",
"467 519 OFFCURVE",
"479 545 OFFCURVE",
"632 815 OFFCURVE",
"842 1174 OFFCURVE",
"854 1190 OFFCURVE",
"858 1190 QCURVE SMOOTH",
"862 1190 OFFCURVE",
"868 1175 OFFCURVE",
"868 878 OFFCURVE",
"870 540 OFFCURVE",
"866 514 OFFCURVE",
"837 508 OFFCURVE",
"721 505 OFFCURVE",
"648 504 QCURVE SMOOTH"
);
}
);
width = 1820;
},
{
associatedMasterId = master01;
layerId = "9FC8BE87-FB07-4033-A01C-C0134C456FB6";
name = "Jul 5 20, 23:24";
paths = (
{
closed = 1;
nodes = (
"1770 434 LINE",
"1760 438 LINE",
"1472 72 LINE",
"1126 72 LINE",
"1126 664 LINE",
"1672 664 LINE",
"1672 744 LINE",
"1126 744 LINE",
"1126 1298 LINE",
"1454 1298 LINE",
"1698 950 LINE",
"1710 950 LINE",
"1710 1370 LINE",
"1034 1370 LINE",
"1036 1372 LINE",
"640 1372 LINE",
"794 1250 LINE",
"150 170 LINE",
"0 0 LINE",
"418 0 LINE",
"252 152 LINE",
"414 428 LINE",
"866 428 LINE",
"866 212 LINE",
"746 0 LINE",
"1748 0 LINE"
);
},
{
closed = 1;
nodes = (
"866 508 LINE",
"460 508 LINE",
"832 1150 LINE",
"858 1202 LINE",
"866 1196 LINE"
);
}
);
visible = 1;
width = 1820;
}
);
unicode = 00C6;
},
{
color = 8;
glyphname = B;
layers = (
{
layerId = master01;
paths = (
{
closed = 1;
nodes = (
"848 0 OFFCURVE",
"1186 166 OFFCURVE",
"1192 512 OFFCURVE",
"986 692 OFFCURVE",
"818 734 OFFCURVE",
"818 768 OFFCURVE",
"966 820 OFFCURVE",
"1100 950 OFFCURVE",
"1102 1200 OFFCURVE",
"890 1368 OFFCURVE",
"538 1370 QCURVE SMOOTH",
"138 1372 OFFCURVE",
"102 1330 OFFCURVE",
"160 1242 OFFCURVE",
"206 1158 OFFCURVE",
"206 752 OFFCURVE",
"196 210 OFFCURVE",
"132 96 OFFCURVE",
"98 40 OFFCURVE",
"118 0 OFFCURVE",
"304 0 OFFCURVE",
"496 0 QCURVE SMOOTH"
);
},
{
closed = 1;
nodes = (
"482 760 OFFCURVE",
"460 806 OFFCURVE",
"452 1062 OFFCURVE",
"458 1280 OFFCURVE",
"482 1306 OFFCURVE",
"528 1306 QCURVE SMOOTH",
"702 1306 OFFCURVE",
"842 1150 OFFCURVE",
"842 912 OFFCURVE",
"644 760 OFFCURVE",
"514 760 QCURVE SMOOTH"
);
},
{
closed = 1;
nodes = (
"488 78 OFFCURVE",
"458 108 OFFCURVE",
"456 372 OFFCURVE",
"460 660 OFFCURVE",
"472 702 OFFCURVE",
"516 702 QCURVE SMOOTH",
"702 702 OFFCURVE",
"898 524 OFFCURVE",
"898 258 OFFCURVE",
"714 78 OFFCURVE",
"522 78 QCURVE SMOOTH"
);
}
);
userData = {
com.schriftgestaltung.Glyphs.lastChange = "2020-04-17 19:24:36 +0000";
};
width = 1260;
},
{
layerId = "F16CA8CE-DA8C-4EBD-81D6-AE00C3431B7F";
paths = (
{
closed = 1;
nodes = (
"848 0 OFFCURVE",
"1186 166 OFFCURVE",
"1192 512 OFFCURVE",
"986 692 OFFCURVE",
"818 734 OFFCURVE",
"818 768 OFFCURVE",
"966 820 OFFCURVE",
"1100 950 OFFCURVE",
"1102 1200 OFFCURVE",
"890 1368 OFFCURVE",
"538 1370 QCURVE SMOOTH",
"138 1372 OFFCURVE",
"102 1330 OFFCURVE",
"160 1242 OFFCURVE",
"206 1158 OFFCURVE",
"206 752 OFFCURVE",
"196 210 OFFCURVE",
"132 96 OFFCURVE",
"98 40 OFFCURVE",
"118 0 OFFCURVE",
"304 0 OFFCURVE",
"496 0 QCURVE SMOOTH"
);
},
{
closed = 1;
nodes = (
"482 760 OFFCURVE",
"460 806 OFFCURVE",
"452 1062 OFFCURVE",
"458 1280 OFFCURVE",
"482 1306 OFFCURVE",
"528 1306 QCURVE SMOOTH",
"702 1306 OFFCURVE",
"842 1150 OFFCURVE",
"842 912 OFFCURVE",
"644 760 OFFCURVE",
"514 760 QCURVE SMOOTH"
);
},
{
closed = 1;
nodes = (
"488 78 OFFCURVE",
"458 108 OFFCURVE",
"456 372 OFFCURVE",
"460 660 OFFCURVE",
"472 702 OFFCURVE",
"516 702 QCURVE SMOOTH",
"702 702 OFFCURVE",
"898 524 OFFCURVE",
"898 258 OFFCURVE",
"714 78 OFFCURVE",
"522 78 QCURVE SMOOTH"
);
}
);
userData = {
com.schriftgestaltung.Glyphs.lastChange = "2020-04-17 19:24:36 +0000";
};
width = 1260;
},
{
layerId = "02ADBE8D-B3BB-4EC7-92FE-8DBAAB138109";
paths = (
{
closed = 1;
nodes = (
"848 0 OFFCURVE",
"1186 166 OFFCURVE",
"1192 512 OFFCURVE",
"986 692 OFFCURVE",
"818 734 OFFCURVE",
"818 768 OFFCURVE",
"966 820 OFFCURVE",
"1100 950 OFFCURVE",
"1102 1200 OFFCURVE",
"890 1368 OFFCURVE",
"538 1370 QCURVE SMOOTH",
"138 1372 OFFCURVE",
"102 1330 OFFCURVE",
"160 1242 OFFCURVE",
"206 1158 OFFCURVE",
"206 752 OFFCURVE",
"196 210 OFFCURVE",
"132 96 OFFCURVE",
"98 40 OFFCURVE",
"118 0 OFFCURVE",
"304 0 OFFCURVE",
"496 0 QCURVE SMOOTH"
);
},
{
closed = 1;
nodes = (
"482 760 OFFCURVE",
"460 806 OFFCURVE",
"452 1062 OFFCURVE",
"458 1280 OFFCURVE",
"482 1306 OFFCURVE",
"528 1306 QCURVE SMOOTH",
"702 1306 OFFCURVE",
"842 1150 OFFCURVE",
"842 912 OFFCURVE",
"644 760 OFFCURVE",
"514 760 QCURVE SMOOTH"
);
},
{
closed = 1;
nodes = (
"488 78 OFFCURVE",
"458 108 OFFCURVE",
"456 372 OFFCURVE",
"460 660 OFFCURVE",
"472 702 OFFCURVE",
"516 702 QCURVE SMOOTH",
"702 702 OFFCURVE",
"898 524 OFFCURVE",
"898 258 OFFCURVE",
"714 78 OFFCURVE",
"522 78 QCURVE SMOOTH"
);
}
);
userData = {
com.schriftgestaltung.Glyphs.lastChange = "2020-04-17 19:24:36 +0000";
};
width = 1260;
}
);
unicode = 0042;
},
{
color = 8;
glyphname = C;
layers = (
{
layerId = master01;
paths = (
{
closed = 1;
nodes = (
"896 -24 OFFCURVE",
"1144 204 OFFCURVE",
"1226 368 OFFCURVE",
"1234 422 OFFCURVE",
"1190 426 OFFCURVE",
"1140 360 OFFCURVE",
"954 210 OFFCURVE",
"574 210 OFFCURVE",
"360 546 OFFCURVE",
"360 1024 OFFCURVE",
"534 1288 OFFCURVE",
"856 1288 OFFCURVE",
"1034 1114 OFFCURVE",
"1082 990 OFFCURVE",
"1112 970 OFFCURVE",
"1134 984 OFFCURVE",
"1134 1172 OFFCURVE",
"1130 1326 OFFCURVE",
"1096 1372 OFFCURVE",
"934 1370 OFFCURVE",
"836 1370 QCURVE SMOOTH",
"478 1370 OFFCURVE",
"70 930 OFFCURVE",
"70 362 OFFCURVE",
"376 -24 OFFCURVE",
"654 -24 QCURVE SMOOTH"
);
}
);
userData = {
com.schriftgestaltung.Glyphs.lastChange = "2020-04-17 20:02:37 +0000";
};
width = 1302;
},
{
layerId = "F16CA8CE-DA8C-4EBD-81D6-AE00C3431B7F";
paths = (
{
closed = 1;
nodes = (
"896 -24 OFFCURVE",
"1144 204 OFFCURVE",
"1226 368 OFFCURVE",
"1234 422 OFFCURVE",
"1190 426 OFFCURVE",
"1140 360 OFFCURVE",
"954 210 OFFCURVE",
"574 210 OFFCURVE",
"360 546 OFFCURVE",
"360 1024 OFFCURVE",
"534 1288 OFFCURVE",
"856 1288 OFFCURVE",
"1034 1114 OFFCURVE",
"1082 990 OFFCURVE",
"1112 970 OFFCURVE",
"1134 984 OFFCURVE",
"1134 1172 OFFCURVE",
"1130 1326 OFFCURVE",
"1096 1372 OFFCURVE",
"934 1370 OFFCURVE",
"836 1370 QCURVE SMOOTH",
"478 1370 OFFCURVE",
"70 930 OFFCURVE",
"70 362 OFFCURVE",
"376 -24 OFFCURVE",
"654 -24 QCURVE SMOOTH"
);
}
);
userData = {
com.schriftgestaltung.Glyphs.lastChange = "2020-04-17 20:02:37 +0000";
};
width = 1302;
},
{
layerId = "02ADBE8D-B3BB-4EC7-92FE-8DBAAB138109";
paths = (
{
closed = 1;
nodes = (
"896 -24 OFFCURVE",
"1144 204 OFFCURVE",
"1226 368 OFFCURVE",
"1234 422 OFFCURVE",
"1190 426 OFFCURVE",
"1140 360 OFFCURVE",
"954 210 OFFCURVE",
"574 210 OFFCURVE",
"360 546 OFFCURVE",
"360 1024 OFFCURVE",
"534 1288 OFFCURVE",
"856 1288 OFFCURVE",
"1034 1114 OFFCURVE",
"1082 990 OFFCURVE",
"1112 970 OFFCURVE",
"1134 984 OFFCURVE",
"1134 1172 OFFCURVE",
"1130 1326 OFFCURVE",
"1096 1372 OFFCURVE",
"934 1370 OFFCURVE",
"836 1370 QCURVE SMOOTH",
"478 1370 OFFCURVE",
"70 930 OFFCURVE",
"70 362 OFFCURVE",
"376 -24 OFFCURVE",
"654 -24 QCURVE SMOOTH"
);
}
);
userData = {
com.schriftgestaltung.Glyphs.lastChange = "2020-04-17 20:02:37 +0000";
};
width = 1302;
}
);
unicode = 0043;
},
{
color = 8;
glyphname = Ccedilla;
layers = (
{
layerId = master01;
paths = (
{
closed = 1;
nodes = (
"74 357 OFFCURVE",
"329 31 OFFCURVE",
"596 -22 OFFCURVE",
"620 -24 OFFCURVE",
"612 -36 OFFCURVE",
"584 -76 OFFCURVE",
"533 -144 OFFCURVE",
"525 -155 OFFCURVE",
"532 -163 OFFCURVE",
"562 -166 OFFCURVE",
"680 -186 OFFCURVE",
"747 -218 OFFCURVE",
"746 -277 OFFCURVE",
"668 -294 OFFCURVE",
"573 -294 OFFCURVE",
"516 -245 OFFCURVE",
"497 -240 OFFCURVE",
"483 -253 OFFCURVE",
"477 -274 OFFCURVE",
"493 -295 OFFCURVE",
"580 -342 OFFCURVE",
"642 -342 QCURVE SMOOTH",
"744 -342 OFFCURVE",
"838 -244 OFFCURVE",
"838 -161 OFFCURVE",
"786 -117 OFFCURVE",
"672 -73 OFFCURVE",
"660 -65 OFFCURVE",
"669 -43 OFFCURVE",
"682 -25 OFFCURVE",
"703 -22 OFFCURVE",
"876 3 OFFCURVE",
"1099 177 OFFCURVE",
"1227 388 OFFCURVE",
"1240 419 OFFCURVE",
"1219 443 OFFCURVE",
"1193 441 OFFCURVE",
"1175 410 OFFCURVE",
"1098 316 OFFCURVE",
"938 213 OFFCURVE",
"579 210 OFFCURVE",
"360 549 OFFCURVE",
"360 1044 OFFCURVE",
"551 1290 OFFCURVE",
"854 1290 OFFCURVE",
"1053 1074 OFFCURVE",
"1082 984 OFFCURVE",
"1106 954 OFFCURVE",
"1140 960 OFFCURVE",
"1143 1017 OFFCURVE",
"1127 1188 OFFCURVE",
"1146 1346 OFFCURVE",
"1128 1388 OFFCURVE",
"1024 1370 OFFCURVE",
"818 1370 QCURVE SMOOTH",
"500 1370 OFFCURVE",
"74 962 OFFCURVE"
);
}
);
width = 1302;
},
{
layerId = "F16CA8CE-DA8C-4EBD-81D6-AE00C3431B7F";
paths = (
{
closed = 1;
nodes = (
"74 357 OFFCURVE",
"329 31 OFFCURVE",
"596 -22 OFFCURVE",
"620 -24 OFFCURVE",
"612 -36 OFFCURVE",
"584 -76 OFFCURVE",
"533 -144 OFFCURVE",
"525 -155 OFFCURVE",
"532 -163 OFFCURVE",
"562 -166 OFFCURVE",
"680 -186 OFFCURVE",
"747 -218 OFFCURVE",
"746 -277 OFFCURVE",
"668 -294 OFFCURVE",
"573 -294 OFFCURVE",
"516 -245 OFFCURVE",
"497 -240 OFFCURVE",
"483 -253 OFFCURVE",
"477 -274 OFFCURVE",
"493 -295 OFFCURVE",
"580 -342 OFFCURVE",
"642 -342 QCURVE SMOOTH",
"744 -342 OFFCURVE",
"838 -244 OFFCURVE",
"838 -161 OFFCURVE",
"786 -117 OFFCURVE",
"672 -73 OFFCURVE",
"660 -65 OFFCURVE",
"669 -43 OFFCURVE",
"682 -25 OFFCURVE",
"703 -22 OFFCURVE",
"876 3 OFFCURVE",
"1099 177 OFFCURVE",
"1227 388 OFFCURVE",
"1240 419 OFFCURVE",
"1219 443 OFFCURVE",
"1193 441 OFFCURVE",
"1175 410 OFFCURVE",
"1098 316 OFFCURVE",
"938 213 OFFCURVE",
"579 210 OFFCURVE",
"360 549 OFFCURVE",
"360 1044 OFFCURVE",
"551 1290 OFFCURVE",
"854 1290 OFFCURVE",
"1053 1074 OFFCURVE",
"1082 984 OFFCURVE",
"1106 954 OFFCURVE",
"1140 960 OFFCURVE",
"1143 1017 OFFCURVE",
"1127 1188 OFFCURVE",
"1146 1346 OFFCURVE",
"1128 1388 OFFCURVE",
"1024 1370 OFFCURVE",
"818 1370 QCURVE SMOOTH",
"500 1370 OFFCURVE",
"74 962 OFFCURVE"
);
}
);
width = 1302;
},
{
layerId = "02ADBE8D-B3BB-4EC7-92FE-8DBAAB138109";
paths = (
{
closed = 1;
nodes = (
"74 357 OFFCURVE",
"329 31 OFFCURVE",
"596 -22 OFFCURVE",
"620 -24 OFFCURVE",
"612 -36 OFFCURVE",
"584 -76 OFFCURVE",
"533 -144 OFFCURVE",
"525 -155 OFFCURVE",
"532 -163 OFFCURVE",
"562 -166 OFFCURVE",
"680 -186 OFFCURVE",
"747 -218 OFFCURVE",
"746 -277 OFFCURVE",
"668 -294 OFFCURVE",
"573 -294 OFFCURVE",
"516 -245 OFFCURVE",
"497 -240 OFFCURVE",
"483 -253 OFFCURVE",
"477 -274 OFFCURVE",
"493 -295 OFFCURVE",
"580 -342 OFFCURVE",
"642 -342 QCURVE SMOOTH",
"744 -342 OFFCURVE",
"838 -244 OFFCURVE",
"838 -161 OFFCURVE",
"786 -117 OFFCURVE",
"672 -73 OFFCURVE",
"660 -65 OFFCURVE",
"669 -43 OFFCURVE",
"682 -25 OFFCURVE",
"703 -22 OFFCURVE",
"876 3 OFFCURVE",
"1099 177 OFFCURVE",
"1227 388 OFFCURVE",
"1240 419 OFFCURVE",
"1219 443 OFFCURVE",
"1193 441 OFFCURVE",
"1175 410 OFFCURVE",
"1098 316 OFFCURVE",
"938 213 OFFCURVE",
"579 210 OFFCURVE",
"360 549 OFFCURVE",
"360 1044 OFFCURVE",
"551 1290 OFFCURVE",
"854 1290 OFFCURVE",
"1053 1074 OFFCURVE",
"1082 984 OFFCURVE",
"1106 954 OFFCURVE",
"1140 960 OFFCURVE",
"1143 1017 OFFCURVE",
"1127 1188 OFFCURVE",
"1146 1346 OFFCURVE",
"1128 1388 OFFCURVE",
"1024 1370 OFFCURVE",
"818 1370 QCURVE SMOOTH",
"500 1370 OFFCURVE",
"74 962 OFFCURVE"
);
}
);
width = 1302;
},
{
associatedMasterId = master01;
layerId = "97BD32BC-9F7E-47BB-B203-8DD387C53BD7";
name = "Jul 6 20, 00:36";
paths = (
{
closed = 1;
nodes = (
"1130 1370 LINE",
"818 1370 LINE SMOOTH",
"336 1370 OFFCURVE",
"70 994 OFFCURVE",
"70 638 CURVE SMOOTH",
"70 246 OFFCURVE",
"294 -24 OFFCURVE",
"654 -24 CURVE SMOOTH",
"960 -24 OFFCURVE",
"1144 214 OFFCURVE",
"1232 422 CURVE",
"1202 442 LINE",
"1138 340 OFFCURVE",
"1018 210 OFFCURVE",
"776 210 CURVE SMOOTH",
"496 210 OFFCURVE",
"360 474 OFFCURVE",
"360 812 CURVE SMOOTH",
"360 1076 OFFCURVE",
"460 1288 OFFCURVE",
"694 1288 CURVE SMOOTH",
"902 1288 OFFCURVE",
"1038 1132 OFFCURVE",
"1104 964 CURVE",
"1130 964 LINE"
);
},
{
closed = 1;
nodes = (
"620 -24 LINE",
"530 -152 LINE",
"530 -158 LINE",
"610 -178 OFFCURVE",
"748 -184 OFFCURVE",
"748 -248 CURVE SMOOTH",
"748 -276 OFFCURVE",
"700 -294 OFFCURVE",
"646 -294 CURVE SMOOTH",
"588 -294 OFFCURVE",
"540 -276 OFFCURVE",
"500 -238 CURVE",
"478 -274 LINE",
"530 -320 OFFCURVE",
"574 -342 OFFCURVE",
"642 -342 CURVE SMOOTH",
"742 -342 OFFCURVE",
"838 -290 OFFCURVE",
"838 -192 CURVE SMOOTH",
"838 -126 OFFCURVE",
"716 -90 OFFCURVE",
"658 -68 CURVE",
"682 -24 LINE"
);
}
);
visible = 1;
width = 1302;
}
);
unicode = 00C7;
},
{
color = 8;
glyphname = Ccircumflex;
layers = (
{
components = (
{
name = C;
},
{
name = circumflex;
transform = "{1, 0, 0, 1, 518, 376}";
}
);
layerId = master01;
width = 1302;
},
{
components = (
{
name = C;
},
{
name = circumflex;
transform = "{1, 0, 0, 1, 518, 376}";
}
);
layerId = "F16CA8CE-DA8C-4EBD-81D6-AE00C3431B7F";
width = 1302;
},
{
components = (
{
name = C;
},
{
name = circumflex;
transform = "{1, 0, 0, 1, 518, 376}";
}
);
layerId = "02ADBE8D-B3BB-4EC7-92FE-8DBAAB138109";
width = 1302;
},
{
associatedMasterId = master01;
layerId = "88D2D7DE-17C3-44CC-99BB-9D1EF92BCC39";
name = "Jul 6 20, 13:48";
paths = (
{
closed = 1;
nodes = (
"558 1480 LINE",
"736 1620 LINE",
"914 1480 LINE",
"944 1480 LINE",
"818 1738 LINE",
"652 1738 LINE",
"528 1480 LINE"
);
},
{
closed = 1;
nodes = (
"1130 1370 LINE",
"818 1370 LINE SMOOTH",
"336 1370 OFFCURVE",
"70 994 OFFCURVE",
"70 638 CURVE SMOOTH",
"70 246 OFFCURVE",
"294 -24 OFFCURVE",
"654 -24 CURVE SMOOTH",
"960 -24 OFFCURVE",
"1144 214 OFFCURVE",
"1232 422 CURVE",
"1202 442 LINE",
"1138 340 OFFCURVE",
"1018 210 OFFCURVE",
"776 210 CURVE SMOOTH",
"496 210 OFFCURVE",
"360 474 OFFCURVE",
"360 812 CURVE SMOOTH",
"360 1076 OFFCURVE",
"460 1288 OFFCURVE",
"694 1288 CURVE SMOOTH",
"902 1288 OFFCURVE",
"1038 1132 OFFCURVE",
"1104 964 CURVE",
"1130 964 LINE"
);
}
);
visible = 1;
width = 1302;
}
);
unicode = 0108;
},
{
color = 8;
glyphname = D;
layers = (
{
layerId = master01;
paths = (
{
closed = 1;
nodes = (
"1004 0 OFFCURVE",
"1400 456 OFFCURVE",
"1400 1002 OFFCURVE",
"1018 1370 OFFCURVE",
"612 1370 QCURVE SMOOTH",
"338 1370 OFFCURVE",
"142 1382 OFFCURVE",
"98 1374 OFFCURVE",
"98 1334 OFFCURVE",
"170 1264 OFFCURVE",
"226 1158 OFFCURVE",
"240 714 OFFCURVE",
"224 210 OFFCURVE",
"164 90 OFFCURVE",
"100 28 OFFCURVE",
"110 -8 OFFCURVE",
"162 -4 OFFCURVE",
"454 0 OFFCURVE",
"578 0 QCURVE SMOOTH"
);
},
{
closed = 1;
nodes = (
"520 76 OFFCURVE",
"490 86 OFFCURVE",
"484 120 OFFCURVE",
"482 714 OFFCURVE",
"482 1252 OFFCURVE",
"494 1298 OFFCURVE",
"536 1306 OFFCURVE",
"628 1306 QCURVE SMOOTH",
"864 1306 OFFCURVE",
"1124 988 OFFCURVE",
"1124 396 OFFCURVE",
"850 76 OFFCURVE",
"614 76 QCURVE SMOOTH"
);
}
);
userData = {
com.schriftgestaltung.Glyphs.lastChange = "2020-04-18 01:16:45 +0000";
};
width = 1470;
},
{
layerId = "F16CA8CE-DA8C-4EBD-81D6-AE00C3431B7F";
paths = (
{
closed = 1;
nodes = (
"1004 0 OFFCURVE",
"1400 456 OFFCURVE",
"1400 1002 OFFCURVE",
"1018 1370 OFFCURVE",
"612 1370 QCURVE SMOOTH",
"338 1370 OFFCURVE",
"142 1382 OFFCURVE",
"98 1374 OFFCURVE",
"98 1334 OFFCURVE",
"170 1264 OFFCURVE",
"226 1158 OFFCURVE",
"240 714 OFFCURVE",
"224 210 OFFCURVE",
"164 90 OFFCURVE",
"100 28 OFFCURVE",
"110 -8 OFFCURVE",
"162 -4 OFFCURVE",
"454 0 OFFCURVE",
"578 0 QCURVE SMOOTH"
);
},
{
closed = 1;
nodes = (
"520 76 OFFCURVE",
"490 86 OFFCURVE",
"484 120 OFFCURVE",
"482 714 OFFCURVE",
"482 1252 OFFCURVE",
"494 1298 OFFCURVE",
"536 1306 OFFCURVE",
"628 1306 QCURVE SMOOTH",
"864 1306 OFFCURVE",
"1124 988 OFFCURVE",
"1124 396 OFFCURVE",
"850 76 OFFCURVE",
"614 76 QCURVE SMOOTH"
);
}
);
userData = {
com.schriftgestaltung.Glyphs.lastChange = "2020-04-18 01:16:45 +0000";
};
width = 1470;
},
{
layerId = "02ADBE8D-B3BB-4EC7-92FE-8DBAAB138109";
paths = (
{
closed = 1;
nodes = (
"1004 0 OFFCURVE",
"1400 456 OFFCURVE",
"1400 1002 OFFCURVE",
"1018 1370 OFFCURVE",
"612 1370 QCURVE SMOOTH",
"338 1370 OFFCURVE",
"142 1382 OFFCURVE",
"98 1374 OFFCURVE",
"98 1334 OFFCURVE",
"170 1264 OFFCURVE",
"226 1158 OFFCURVE",
"240 714 OFFCURVE",
"224 210 OFFCURVE",
"164 90 OFFCURVE",
"100 28 OFFCURVE",
"110 -8 OFFCURVE",
"162 -4 OFFCURVE",
"454 0 OFFCURVE",
"578 0 QCURVE SMOOTH"
);
},
{
closed = 1;
nodes = (
"520 76 OFFCURVE",
"490 86 OFFCURVE",
"484 120 OFFCURVE",
"482 714 OFFCURVE",
"482 1252 OFFCURVE",
"494 1298 OFFCURVE",
"536 1306 OFFCURVE",
"628 1306 QCURVE SMOOTH",
"864 1306 OFFCURVE",
"1124 988 OFFCURVE",
"1124 396 OFFCURVE",
"850 76 OFFCURVE",
"614 76 QCURVE SMOOTH"
);
}
);
userData = {
com.schriftgestaltung.Glyphs.lastChange = "2020-04-18 01:16:45 +0000";
};
width = 1470;
}
);
unicode = 0044;
},
{
color = 8;
glyphname = Eth;
layers = (
{
layerId = master01;
paths = (
{
closed = 1;
nodes = (
"68 1334 OFFCURVE",
"138 1258 OFFCURVE",
"192 1168 OFFCURVE",
"202 1146 OFFCURVE",
"202 960 OFFCURVE",
"198 764 OFFCURVE",
"186 752 OFFCURVE",
"136 756 OFFCURVE",
"66 762 OFFCURVE",
"48 750 OFFCURVE",
"48 662 OFFCURVE",
"68 652 OFFCURVE",
"134 656 OFFCURVE",
"182 654 OFFCURVE",
"198 634 OFFCURVE",
"202 460 OFFCURVE",
"198 220 OFFCURVE",
"190 202 OFFCURVE",
"148 126 OFFCURVE",
"58 32 OFFCURVE",
"48 -4 OFFCURVE",
"82 -8 OFFCURVE",
"210 -3 OFFCURVE",
"332 0 QCURVE SMOOTH",
"414 2 OFFCURVE",
"914 -9 OFFCURVE",
"1346 409 OFFCURVE",
"1346 1017 OFFCURVE",
"996 1377 OFFCURVE",
"582 1370 QCURVE SMOOTH",
"336 1366 OFFCURVE",
"98 1380 OFFCURVE",
"60 1368 OFFCURVE"
);
},
{
closed = 1;
nodes = (
"458 99 OFFCURVE",
"452 396 OFFCURVE",
"452 627 OFFCURVE",
"470 652 OFFCURVE",
"599 658 OFFCURVE",
"734 646 OFFCURVE",
"750 660 OFFCURVE",
"752 740 OFFCURVE",
"736 762 OFFCURVE",
"604 760 OFFCURVE",
"472 754 OFFCURVE",
"458 782 OFFCURVE",
"454 1060 OFFCURVE",
"454 1290 OFFCURVE",
"472 1308 OFFCURVE",
"598 1306 QCURVE SMOOTH",
"830 1302 OFFCURVE",
"1070 975 OFFCURVE",
"1071 436 OFFCURVE",
"840 78 OFFCURVE",
"584 76 QCURVE SMOOTH",
"486 75 OFFCURVE"
);
}
);
width = 1416;
},
{
layerId = "F16CA8CE-DA8C-4EBD-81D6-AE00C3431B7F";
paths = (
{
closed = 1;
nodes = (
"68 1334 OFFCURVE",
"138 1258 OFFCURVE",
"192 1168 OFFCURVE",
"202 1146 OFFCURVE",
"202 960 OFFCURVE",
"198 764 OFFCURVE",
"186 752 OFFCURVE",
"136 756 OFFCURVE",
"66 762 OFFCURVE",
"48 750 OFFCURVE",
"48 662 OFFCURVE",
"68 652 OFFCURVE",
"134 656 OFFCURVE",
"182 654 OFFCURVE",
"198 634 OFFCURVE",
"202 460 OFFCURVE",
"198 220 OFFCURVE",
"190 202 OFFCURVE",
"148 126 OFFCURVE",
"58 32 OFFCURVE",
"48 -4 OFFCURVE",
"82 -8 OFFCURVE",
"210 -3 OFFCURVE",
"332 0 QCURVE SMOOTH",
"414 2 OFFCURVE",
"914 -9 OFFCURVE",
"1346 409 OFFCURVE",
"1346 1017 OFFCURVE",
"996 1377 OFFCURVE",
"582 1370 QCURVE SMOOTH",
"336 1366 OFFCURVE",
"98 1380 OFFCURVE",
"60 1368 OFFCURVE"
);
},
{
closed = 1;
nodes = (
"458 99 OFFCURVE",
"452 396 OFFCURVE",
"452 627 OFFCURVE",
"470 652 OFFCURVE",
"599 658 OFFCURVE",
"734 646 OFFCURVE",
"750 660 OFFCURVE",
"752 740 OFFCURVE",
"736 762 OFFCURVE",
"604 760 OFFCURVE",
"472 754 OFFCURVE",
"458 782 OFFCURVE",
"454 1060 OFFCURVE",
"454 1290 OFFCURVE",
"472 1308 OFFCURVE",
"598 1306 QCURVE SMOOTH",
"830 1302 OFFCURVE",
"1070 975 OFFCURVE",
"1071 436 OFFCURVE",
"840 78 OFFCURVE",
"584 76 QCURVE SMOOTH",
"486 75 OFFCURVE"
);
}
);
width = 1416;
},
{
layerId = "02ADBE8D-B3BB-4EC7-92FE-8DBAAB138109";
paths = (
{
closed = 1;
nodes = (
"68 1334 OFFCURVE",
"138 1258 OFFCURVE",
"192 1168 OFFCURVE",
"202 1146 OFFCURVE",
"202 960 OFFCURVE",
"198 764 OFFCURVE",
"186 752 OFFCURVE",
"136 756 OFFCURVE",
"66 762 OFFCURVE",
"48 750 OFFCURVE",
"48 662 OFFCURVE",
"68 652 OFFCURVE",
"134 656 OFFCURVE",
"182 654 OFFCURVE",
"198 634 OFFCURVE",
"202 460 OFFCURVE",
"198 220 OFFCURVE",
"190 202 OFFCURVE",
"148 126 OFFCURVE",
"58 32 OFFCURVE",
"48 -4 OFFCURVE",
"82 -8 OFFCURVE",
"210 -3 OFFCURVE",
"332 0 QCURVE SMOOTH",
"414 2 OFFCURVE",
"914 -9 OFFCURVE",
"1346 409 OFFCURVE",
"1346 1017 OFFCURVE",
"996 1377 OFFCURVE",
"582 1370 QCURVE SMOOTH",
"336 1366 OFFCURVE",
"98 1380 OFFCURVE",
"60 1368 OFFCURVE"
);
},
{
closed = 1;
nodes = (
"458 99 OFFCURVE",
"452 396 OFFCURVE",
"452 627 OFFCURVE",
"470 652 OFFCURVE",
"599 658 OFFCURVE",
"734 646 OFFCURVE",
"750 660 OFFCURVE",
"752 740 OFFCURVE",
"736 762 OFFCURVE",
"604 760 OFFCURVE",
"472 754 OFFCURVE",
"458 782 OFFCURVE",
"454 1060 OFFCURVE",
"454 1290 OFFCURVE",
"472 1308 OFFCURVE",
"598 1306 QCURVE SMOOTH",
"830 1302 OFFCURVE",
"1070 975 OFFCURVE",
"1071 436 OFFCURVE",
"840 78 OFFCURVE",
"584 76 QCURVE SMOOTH",
"486 75 OFFCURVE"
);
}
);
width = 1416;
},
{
associatedMasterId = master01;
layerId = "5636831B-5435-4519-AAE4-72CB4C371529";
name = "Jul 6 20, 13:50";
paths = (
{
closed = 1;
nodes = (
"198 1158 LINE",
"198 756 LINE",
"50 756 LINE",
"50 656 LINE",
"198 656 LINE",
"198 212 LINE",
"50 0 LINE",
"548 0 LINE SMOOTH",
"1040 0 OFFCURVE",
"1346 280 OFFCURVE",
"1346 764 CURVE SMOOTH",
"1346 1048 OFFCURVE",
"1186 1370 OFFCURVE",
"582 1370 CURVE SMOOTH",
"50 1370 LINE"
);
},
{
closed = 1;
nodes = (
"458 656 LINE",
"750 656 LINE",
"750 756 LINE",
"458 756 LINE",
"458 1306 LINE",
"598 1306 LINE SMOOTH",
"914 1306 OFFCURVE",
"1066 1088 OFFCURVE",
"1066 688 CURVE SMOOTH",
"1066 444 OFFCURVE",
"1008 76 OFFCURVE",
"584 76 CURVE SMOOTH",
"458 76 LINE"
);
}
);
visible = 1;
width = 1416;
}
);
unicode = 00D0;
},
{
color = 8;
glyphname = E;
layers = (
{
layerId = master01;
paths = (
{
closed = 1;
nodes = (
"802 0 OFFCURVE",
"1020 -18 OFFCURVE",
"1082 18 OFFCURVE",
"1096 222 OFFCURVE",
"1114 396 OFFCURVE",
"1092 424 OFFCURVE",
"1060 414 OFFCURVE",
"950 242 OFFCURVE",
"820 72 OFFCURVE",
"646 68 OFFCURVE",
"500 72 OFFCURVE",
"460 116 OFFCURVE",
"450 374 OFFCURVE",
"458 618 OFFCURVE",
"494 654 OFFCURVE",
"735 662 OFFCURVE",
"962 649 OFFCURVE",
"1015 648 OFFCURVE",
"1015 748 OFFCURVE",
"962 748 OFFCURVE",
"735 740 OFFCURVE",
"494 744 OFFCURVE",
"458 794 OFFCURVE",
"454 1014 OFFCURVE",
"462 1256 OFFCURVE",
"516 1302 OFFCURVE",
"632 1308 OFFCURVE",
"798 1302 OFFCURVE",
"904 1152 OFFCURVE",
"994 982 OFFCURVE",
"1034 974 OFFCURVE",
"1042 1012 OFFCURVE",
"1036 1166 OFFCURVE",
"1042 1324 OFFCURVE",
"1034 1372 OFFCURVE",
"984 1380 OFFCURVE",
"726 1368 OFFCURVE",
"602 1368 QCURVE SMOOTH",
"426 1368 OFFCURVE",
"152 1382 OFFCURVE",
"102 1374 OFFCURVE",
"106 1330 OFFCURVE",
"158 1256 OFFCURVE",
"196 1160 OFFCURVE",
"208 712 OFFCURVE",
"200 212 OFFCURVE",
"158 116 OFFCURVE",
"94 38 OFFCURVE",
"92 -16 OFFCURVE",
"152 -16 OFFCURVE",
"392 0 OFFCURVE",
"548 0 QCURVE SMOOTH"
);
}
);
userData = {
com.schriftgestaltung.Glyphs.lastChange = "2020-04-18 01:24:33 +0000";
};
width = 1184;
},
{
layerId = "F16CA8CE-DA8C-4EBD-81D6-AE00C3431B7F";
paths = (
{
closed = 1;
nodes = (
"802 0 OFFCURVE",
"1020 -18 OFFCURVE",
"1082 18 OFFCURVE",
"1096 222 OFFCURVE",
"1114 396 OFFCURVE",
"1092 424 OFFCURVE",
"1060 414 OFFCURVE",
"950 242 OFFCURVE",
"820 72 OFFCURVE",
"646 68 OFFCURVE",
"500 72 OFFCURVE",
"460 116 OFFCURVE",
"450 374 OFFCURVE",
"458 618 OFFCURVE",
"494 654 OFFCURVE",
"735 662 OFFCURVE",
"962 649 OFFCURVE",
"1015 648 OFFCURVE",
"1015 748 OFFCURVE",
"962 748 OFFCURVE",
"735 740 OFFCURVE",
"494 744 OFFCURVE",
"458 794 OFFCURVE",
"454 1014 OFFCURVE",
"462 1256 OFFCURVE",
"516 1302 OFFCURVE",
"632 1308 OFFCURVE",
"798 1302 OFFCURVE",
"904 1152 OFFCURVE",
"994 982 OFFCURVE",
"1034 974 OFFCURVE",
"1042 1012 OFFCURVE",
"1036 1166 OFFCURVE",
"1042 1324 OFFCURVE",
"1034 1372 OFFCURVE",
"984 1380 OFFCURVE",
"726 1368 OFFCURVE",
"602 1368 QCURVE SMOOTH",
"426 1368 OFFCURVE",
"152 1382 OFFCURVE",
"102 1374 OFFCURVE",
"106 1330 OFFCURVE",
"158 1256 OFFCURVE",
"196 1160 OFFCURVE",
"208 712 OFFCURVE",
"200 212 OFFCURVE",
"158 116 OFFCURVE",
"94 38 OFFCURVE",
"92 -16 OFFCURVE",
"152 -16 OFFCURVE",
"392 0 OFFCURVE",
"548 0 QCURVE SMOOTH"
);
}
);
userData = {
com.schriftgestaltung.Glyphs.lastChange = "2020-04-18 01:24:33 +0000";
};
width = 1184;
},
{
layerId = "02ADBE8D-B3BB-4EC7-92FE-8DBAAB138109";
paths = (
{
closed = 1;
nodes = (
"802 0 OFFCURVE",
"1020 -18 OFFCURVE",
"1082 18 OFFCURVE",
"1096 222 OFFCURVE",
"1114 396 OFFCURVE",
"1092 424 OFFCURVE",
"1060 414 OFFCURVE",
"950 242 OFFCURVE",
"820 72 OFFCURVE",
"646 68 OFFCURVE",
"500 72 OFFCURVE",
"460 116 OFFCURVE",
"450 374 OFFCURVE",
"458 618 OFFCURVE",
"494 654 OFFCURVE",
"735 662 OFFCURVE",
"972 649 OFFCURVE",
"1015 648 OFFCURVE",
"1015 748 OFFCURVE",
"972 748 OFFCURVE",
"735 740 OFFCURVE",
"494 744 OFFCURVE",
"458 794 OFFCURVE",
"454 1014 OFFCURVE",
"462 1256 OFFCURVE",
"516 1302 OFFCURVE",
"632 1308 OFFCURVE",
"798 1302 OFFCURVE",
"904 1152 OFFCURVE",
"994 982 OFFCURVE",
"1034 974 OFFCURVE",
"1042 1012 OFFCURVE",
"1036 1166 OFFCURVE",
"1042 1324 OFFCURVE",
"1034 1372 OFFCURVE",
"984 1380 OFFCURVE",
"726 1368 OFFCURVE",
"602 1368 QCURVE SMOOTH",
"426 1368 OFFCURVE",
"152 1382 OFFCURVE",
"102 1374 OFFCURVE",
"106 1330 OFFCURVE",
"158 1256 OFFCURVE",
"196 1160 OFFCURVE",
"208 712 OFFCURVE",
"200 212 OFFCURVE",
"158 116 OFFCURVE",
"94 38 OFFCURVE",
"92 -16 OFFCURVE",
"152 -16 OFFCURVE",
"392 0 OFFCURVE",
"548 0 QCURVE SMOOTH"
);
}
);
userData = {
com.schriftgestaltung.Glyphs.lastChange = "2020-04-18 01:24:33 +0000";
};
width = 1184;
}
);
unicode = 0045;
},
{
color = 8;
glyphname = Eacute;
layers = (
{
components = (
{
name = E;
},
{
name = acutecomb.case;
transform = "{1, 0, 0, 1, 434, 376}";
}
);
layerId = master01;
width = 1184;
},
{
components = (
{
name = E;
},
{
name = acutecomb.case;
transform = "{1, 0, 0, 1, 434, 376}";
}
);
layerId = "F16CA8CE-DA8C-4EBD-81D6-AE00C3431B7F";
width = 1184;
},
{
components = (
{
name = E;
},
{
name = acutecomb.case;
transform = "{1, 0, 0, 1, 434, 376}";
}
);
layerId = "02ADBE8D-B3BB-4EC7-92FE-8DBAAB138109";
width = 1184;
},
{
associatedMasterId = master01;
layerId = "5F758FDA-BC29-4211-B785-5EA976EA1ADA";
name = "Jul 6 20, 17:03";
paths = (
{
closed = 1;
nodes = (
"546 1480 LINE",
"804 1738 LINE",
"542 1738 LINE",
"516 1480 LINE"
);
},
{
closed = 1;
nodes = (
"1104 434 LINE",
"1082 438 LINE",
"818 72 LINE",
"460 72 LINE",
"460 654 LINE",
"1006 654 LINE",
"1006 744 LINE",
"460 744 LINE",
"460 1298 LINE",
"800 1298 LINE",
"1020 950 LINE",
"1044 950 LINE",
"1044 1370 LINE",
"80 1370 LINE",
"200 1162 LINE",
"200 212 LINE",
"80 0 LINE",
"1082 0 LINE"
);
}
);
visible = 1;
width = 1184;
}
);
unicode = 00C9;
},
{
color = 8;
glyphname = Ecaron;
layers = (
{
components = (
{
name = E;
},
{
name = caroncomb.case;
transform = "{1, 0, 0, 1, 400, 0}";
}
);
layerId = master01;
width = 1184;
},
{
components = (
{
name = E;
},
{
name = caroncomb.case;
transform = "{1, 0, 0, 1, 400, 0}";
}
);
layerId = "F16CA8CE-DA8C-4EBD-81D6-AE00C3431B7F";
width = 1184;
},
{
components = (
{
name = E;
},
{
name = caroncomb.case;
transform = "{1, 0, 0, 1, 400, 0}";
}
);
layerId = "02ADBE8D-B3BB-4EC7-92FE-8DBAAB138109";
width = 1184;
},
{
associatedMasterId = master01;
layerId = "5C381DB0-4BED-4E39-9220-81B259040A81";
name = "Jul 6 20, 17:06";
paths = (
{
closed = 1;
nodes = (
"438 1738 LINE",
"408 1738 LINE",
"532 1480 LINE",
"698 1480 LINE",
"824 1738 LINE",
"794 1738 LINE",
"616 1598 LINE"
);
},
{
closed = 1;
nodes = (
"1104 434 LINE",
"1082 438 LINE",
"818 72 LINE",
"460 72 LINE",
"460 654 LINE",
"1006 654 LINE",
"1006 744 LINE",
"460 744 LINE",
"460 1298 LINE",
"800 1298 LINE",
"1020 950 LINE",
"1044 950 LINE",
"1044 1370 LINE",
"80 1370 LINE",
"200 1162 LINE",
"200 212 LINE",
"80 0 LINE",
"1082 0 LINE"
);
}
);
visible = 1;
width = 1184;
}
);
unicode = 011A;
},
{
color = 8;
glyphname = Ecircumflex;
layers = (
{
components = (
{
name = E;
},
{
name = circumflexcomb.case;
transform = "{1, 0, 0, 1, 390, 374}";
}
);
layerId = master01;
width = 1184;
},
{
components = (
{
name = E;
},
{
name = circumflexcomb.case;
transform = "{1, 0, 0, 1, 390, 374}";
}
);
layerId = "F16CA8CE-DA8C-4EBD-81D6-AE00C3431B7F";
width = 1184;
},
{
components = (
{
name = E;
},
{
name = circumflexcomb.case;
transform = "{1, 0, 0, 1, 390, 374}";
}
);
layerId = "02ADBE8D-B3BB-4EC7-92FE-8DBAAB138109";
width = 1184;
},
{
associatedMasterId = master01;
layerId = "8410A565-C0F7-4A63-8829-AE7758870786";
name = "Jul 6 20, 17:08";
paths = (
{
closed = 1;
nodes = (
"428 1480 LINE",
"606 1620 LINE",
"784 1480 LINE",
"814 1480 LINE",
"688 1738 LINE",
"522 1738 LINE",
"398 1480 LINE"
);
},
{
closed = 1;
nodes = (
"1104 434 LINE",
"1082 438 LINE",
"818 72 LINE",
"460 72 LINE",
"460 654 LINE",
"1006 654 LINE",
"1006 744 LINE",
"460 744 LINE",
"460 1298 LINE",
"800 1298 LINE",
"1020 950 LINE",
"1044 950 LINE",
"1044 1370 LINE",
"80 1370 LINE",
"200 1162 LINE",
"200 212 LINE",
"80 0 LINE",
"1082 0 LINE"
);
}
);
visible = 1;
width = 1184;
}
);
unicode = 00CA;
},
{
color = 8;
glyphname = Edieresis;
layers = (
{
components = (
{
name = E;
},
{
name = dieresiscomb.case;
transform = "{1, 0, 0, 1, 200, 408}";
}
);
layerId = master01;
width = 1184;
},
{
components = (
{
name = E;
},
{
name = dieresiscomb.case;
transform = "{1, 0, 0, 1, 200, 408}";
}
);
layerId = "F16CA8CE-DA8C-4EBD-81D6-AE00C3431B7F";
width = 1184;
},
{
components = (
{
name = E;
},
{
name = dieresiscomb.case;
transform = "{1, 0, 0, 1, 200, 408}";
}
);
layerId = "02ADBE8D-B3BB-4EC7-92FE-8DBAAB138109";
width = 1184;
},
{
associatedMasterId = master01;
layerId = "8C62329C-24CE-42BA-B9D3-47CE614B163E";
name = "Jul 6 20, 17:09";
paths = (
{
closed = 1;
nodes = (
"376 1482 LINE",
"528 1658 LINE",
"376 1832 LINE",
"220 1658 LINE"
);
},
{
closed = 1;
nodes = (
"844 1482 LINE",
"996 1658 LINE",
"844 1832 LINE",
"688 1658 LINE"
);
},
{
closed = 1;
nodes = (
"1104 434 LINE",
"1082 438 LINE",
"818 72 LINE",
"460 72 LINE",
"460 654 LINE",
"1006 654 LINE",
"1006 744 LINE",
"460 744 LINE",
"460 1298 LINE",
"800 1298 LINE",
"1020 950 LINE",
"1044 950 LINE",
"1044 1370 LINE",
"80 1370 LINE",
"200 1162 LINE",
"200 212 LINE",
"80 0 LINE",
"1082 0 LINE"
);
}
);
visible = 1;
width = 1184;
}
);
unicode = 00CB;
},
{
color = 8;
glyphname = Edotaccent;
layers = (
{
components = (
{
name = E;
transform = "{1, 0, 0, 1, 0, -2}";
},
{
name = dotaccentcomb.case;
transform = "{1, 0, 0, 1, 426, 386}";
}
);
layerId = master01;
width = 1184;
},
{
components = (
{
name = E;
transform = "{1, 0, 0, 1, 0, -2}";
},
{
name = dotaccentcomb.case;
transform = "{1, 0, 0, 1, 426, 386}";
}
);
layerId = "F16CA8CE-DA8C-4EBD-81D6-AE00C3431B7F";
width = 1184;
},
{
components = (
{
name = E;
transform = "{1, 0, 0, 1, 0, -2}";
},
{
name = dotaccentcomb.case;
transform = "{1, 0, 0, 1, 426, 386}";
}
);
layerId = "02ADBE8D-B3BB-4EC7-92FE-8DBAAB138109";
width = 1184;
},
{
associatedMasterId = master01;
layerId = "8C04D4BE-B90A-44B4-914E-80E6C683626D";
name = "Jul 6 20, 17:19";
paths = (
{
closed = 1;
nodes = (
"604 1478 LINE",
"744 1640 LINE",
"604 1800 LINE",
"462 1640 LINE"
);
},
{
closed = 1;
nodes = (
"1104 434 LINE",
"1082 438 LINE",
"818 72 LINE",
"460 72 LINE",
"460 654 LINE",
"1006 654 LINE",
"1006 744 LINE",
"460 744 LINE",
"460 1298 LINE",
"800 1298 LINE",
"1020 950 LINE",
"1044 950 LINE",
"1044 1370 LINE",
"80 1370 LINE",
"200 1162 LINE",
"200 212 LINE",
"80 0 LINE",
"1082 0 LINE"
);
}
);
visible = 1;
width = 1184;
}
);
unicode = 0116;
},
{
color = 8;
glyphname = Egrave;
layers = (
{
components = (
{
name = E;
},
{
name = gravecomb.case;
transform = "{1, 0, 0, 1, 360, 374}";
}
);
layerId = master01;
width = 1184;
},
{
components = (
{
name = E;
},
{
name = gravecomb.case;
transform = "{1, 0, 0, 1, 360, 374}";
}
);
layerId = "F16CA8CE-DA8C-4EBD-81D6-AE00C3431B7F";
width = 1184;
},
{
components = (
{
name = E;
},
{
name = gravecomb.case;
transform = "{1, 0, 0, 1, 360, 374}";
}
);
layerId = "02ADBE8D-B3BB-4EC7-92FE-8DBAAB138109";
width = 1184;
},
{
associatedMasterId = master01;
layerId = "C3E4E26A-0035-43B9-BC4D-02C47FA55DEF";
name = "Jul 6 20, 17:20";
paths = (
{
closed = 1;
nodes = (
"684 1480 LINE",
"658 1738 LINE",
"396 1738 LINE",
"654 1480 LINE"
);
},
{
closed = 1;
nodes = (
"1104 434 LINE",
"1082 438 LINE",
"818 72 LINE",
"460 72 LINE",
"460 654 LINE",
"1006 654 LINE",
"1006 744 LINE",
"460 744 LINE",
"460 1298 LINE",
"800 1298 LINE",
"1020 950 LINE",
"1044 950 LINE",
"1044 1370 LINE",
"80 1370 LINE",
"200 1162 LINE",
"200 212 LINE",
"80 0 LINE",
"1082 0 LINE"
);
}
);
visible = 1;
width = 1184;
}
);
unicode = 00C8;
},
{
color = 8;
glyphname = F;
layers = (
{
layerId = master01;
paths = (
{
closed = 1;
nodes = (
"498 0 OFFCURVE",
"622 -6 OFFCURVE",
"652 -6 OFFCURVE",
"652 36 OFFCURVE",
"554 110 OFFCURVE",
"460 214 OFFCURVE",
"450 374 OFFCURVE",
"458 617 OFFCURVE",
"475 648 OFFCURVE",
"738 652 OFFCURVE",
"944 641 OFFCURVE",
"981 660 OFFCURVE",
"980 727 OFFCURVE",
"942 742 OFFCURVE",
"738 734 OFFCURVE",
"475 736 OFFCURVE",
"458 777 OFFCURVE",
"454 1014 OFFCURVE",
"462 1259 OFFCURVE",
"499 1296 OFFCURVE",
"632 1302 OFFCURVE",
"798 1296 OFFCURVE",
"906 1152 OFFCURVE",
"998 968 OFFCURVE",
"1038 966 OFFCURVE",
"1048 998 OFFCURVE",
"1038 1166 OFFCURVE",
"1044 1310 OFFCURVE",
"1034 1368 OFFCURVE",
"980 1376 OFFCURVE",
"680 1368 OFFCURVE",
"568 1368 QCURVE SMOOTH",
"408 1368 OFFCURVE",
"134 1380 OFFCURVE",
"94 1368 OFFCURVE",
"102 1324 OFFCURVE",
"158 1254 OFFCURVE",
"196 1164 OFFCURVE",
"208 712 OFFCURVE",
"200 212 OFFCURVE",
"158 128 OFFCURVE",
"88 36 OFFCURVE",
"86 -8 OFFCURVE",
"152 -8 OFFCURVE",
"262 0 OFFCURVE",
"368 0 QCURVE SMOOTH"
);
}
);
userData = {
com.schriftgestaltung.Glyphs.lastChange = "2020-04-18 01:25:07 +0000";
};
width = 1124;
},
{
layerId = "F16CA8CE-DA8C-4EBD-81D6-AE00C3431B7F";
paths = (
{
closed = 1;
nodes = (
"498 0 OFFCURVE",
"622 -6 OFFCURVE",
"652 -6 OFFCURVE",
"652 36 OFFCURVE",
"554 110 OFFCURVE",
"460 214 OFFCURVE",
"450 374 OFFCURVE",
"458 617 OFFCURVE",
"475 648 OFFCURVE",
"738 652 OFFCURVE",
"944 641 OFFCURVE",
"981 660 OFFCURVE",
"980 727 OFFCURVE",
"942 742 OFFCURVE",
"738 734 OFFCURVE",
"475 736 OFFCURVE",
"458 777 OFFCURVE",
"454 1014 OFFCURVE",
"462 1259 OFFCURVE",
"499 1296 OFFCURVE",
"632 1302 OFFCURVE",
"798 1296 OFFCURVE",
"906 1152 OFFCURVE",
"998 968 OFFCURVE",
"1038 966 OFFCURVE",
"1048 998 OFFCURVE",
"1038 1166 OFFCURVE",
"1044 1310 OFFCURVE",
"1034 1368 OFFCURVE",
"980 1376 OFFCURVE",
"680 1368 OFFCURVE",
"568 1368 QCURVE SMOOTH",
"408 1368 OFFCURVE",
"134 1380 OFFCURVE",
"94 1368 OFFCURVE",
"102 1324 OFFCURVE",
"158 1254 OFFCURVE",
"196 1164 OFFCURVE",
"208 712 OFFCURVE",
"200 212 OFFCURVE",
"158 128 OFFCURVE",
"88 36 OFFCURVE",
"86 -8 OFFCURVE",
"152 -8 OFFCURVE",
"262 0 OFFCURVE",
"368 0 QCURVE SMOOTH"
);
}
);
userData = {
com.schriftgestaltung.Glyphs.lastChange = "2020-04-18 01:25:07 +0000";
};
width = 1124;
},
{
layerId = "02ADBE8D-B3BB-4EC7-92FE-8DBAAB138109";
paths = (
{
closed = 1;
nodes = (
"498 0 OFFCURVE",
"622 -6 OFFCURVE",
"652 -6 OFFCURVE",
"652 36 OFFCURVE",
"554 110 OFFCURVE",
"460 214 OFFCURVE",
"450 374 OFFCURVE",
"458 617 OFFCURVE",
"475 648 OFFCURVE",
"738 652 OFFCURVE",
"944 641 OFFCURVE",
"981 660 OFFCURVE",
"980 727 OFFCURVE",
"942 742 OFFCURVE",
"738 734 OFFCURVE",
"475 736 OFFCURVE",
"458 777 OFFCURVE",
"454 1014 OFFCURVE",
"462 1259 OFFCURVE",
"499 1296 OFFCURVE",
"632 1302 OFFCURVE",
"798 1296 OFFCURVE",
"906 1152 OFFCURVE",
"998 968 OFFCURVE",
"1038 966 OFFCURVE",
"1048 998 OFFCURVE",
"1038 1166 OFFCURVE",
"1044 1310 OFFCURVE",
"1034 1368 OFFCURVE",
"980 1376 OFFCURVE",
"680 1368 OFFCURVE",
"568 1368 QCURVE SMOOTH",
"408 1368 OFFCURVE",
"134 1380 OFFCURVE",
"94 1368 OFFCURVE",
"102 1324 OFFCURVE",
"158 1254 OFFCURVE",
"196 1164 OFFCURVE",
"208 712 OFFCURVE",
"200 212 OFFCURVE",
"158 128 OFFCURVE",
"88 36 OFFCURVE",
"86 -8 OFFCURVE",
"152 -8 OFFCURVE",
"262 0 OFFCURVE",
"368 0 QCURVE SMOOTH"
);
}
);
userData = {
com.schriftgestaltung.Glyphs.lastChange = "2020-04-18 01:25:07 +0000";
};
width = 1124;
}
);
unicode = 0046;
},
{
color = 4;
glyphname = G;
layers = (
{
layerId = master01;
paths = (
{
closed = 1;
nodes = (
"792 -26 OFFCURVE",
"986 92 OFFCURVE",
"1016 92 OFFCURVE",
"1098 48 OFFCURVE",
"1184 -16 OFFCURVE",
"1206 -20 OFFCURVE",
"1226 4 OFFCURVE",
"1214 312 OFFCURVE",
"1216 516 OFFCURVE",
"1232 534 OFFCURVE",
"1328 590 OFFCURVE",
"1332 622 OFFCURVE",
"1304 630 OFFCURVE",
"1082 616 OFFCURVE",
"780 634 OFFCURVE",
"756 622 OFFCURVE",
"756 588 OFFCURVE",
"868 546 OFFCURVE",
"942 508 OFFCURVE",
"964 484 OFFCURVE",
"968 388 OFFCURVE",
"968 198 OFFCURVE",
"964 162 OFFCURVE",
"934 142 OFFCURVE",
"820 120 OFFCURVE",
"704 120 OFFCURVE",
"490 236 OFFCURVE",
"370 544 OFFCURVE",
"368 1046 OFFCURVE",
"528 1288 OFFCURVE",
"814 1288 OFFCURVE",
"996 1144 OFFCURVE",
"1088 976 OFFCURVE",
"1116 956 OFFCURVE",
"1136 972 OFFCURVE",
"1124 1176 OFFCURVE",
"1130 1336 OFFCURVE",
"1130 1368 OFFCURVE",
"1104 1372 OFFCURVE",
"996 1360 OFFCURVE",
"844 1368 OFFCURVE",
"820 1368 QCURVE SMOOTH",
"588 1368 OFFCURVE",
"248 1156 OFFCURVE",
"70 820 OFFCURVE",
"70 440 OFFCURVE",
"212 140 OFFCURVE",
"476 -26 OFFCURVE",
"654 -26 QCURVE SMOOTH"
);
}
);
userData = {
com.schriftgestaltung.Glyphs.lastChange = "2020-04-17 19:36:31 +0000";
};
width = 1374;
},
{
associatedMasterId = master01;
layerId = "48D50ED1-72C9-4ADA-A8F4-D02CE881164E";
name = "Apr 20 20, 18:43";
paths = (
{
closed = 1;
nodes = (
"754 618 LINE",
"754 596 LINE",
"964 490 LINE",
"964 158 LINE",
"910 132 OFFCURVE",
"838 120 OFFCURVE",
"798 120 CURVE SMOOTH",
"442 120 OFFCURVE",
"368 502 OFFCURVE",
"368 810 CURVE SMOOTH",
"368 1124 OFFCURVE",
"478 1286 OFFCURVE",
"680 1286 CURVE SMOOTH",
"906 1286 OFFCURVE",
"1012 1122 OFFCURVE",
"1104 962 CURVE",
"1130 962 LINE",
"1130 1368 LINE",
"818 1368 LINE SMOOTH",
"336 1368 OFFCURVE",
"70 992 OFFCURVE",
"70 636 CURVE SMOOTH",
"70 244 OFFCURVE",
"294 -26 OFFCURVE",
"654 -26 CURVE SMOOTH",
"786 -26 OFFCURVE",
"904 28 OFFCURVE",
"1000 94 CURVE",
"1190 -12 LINE",
"1220 -12 LINE",
"1220 524 LINE",
"1326 598 LINE",
"1326 618 LINE"
);
}
);
userData = {
com.schriftgestaltung.Glyphs.lastChange = "2020-04-17 19:36:31 +0000";
};
visible = 1;
width = 1374;
},
{
layerId = "F16CA8CE-DA8C-4EBD-81D6-AE00C3431B7F";
paths = (
{
closed = 1;
nodes = (
"792 -26 OFFCURVE",
"986 92 OFFCURVE",
"1016 92 OFFCURVE",
"1098 48 OFFCURVE",
"1184 -16 OFFCURVE",
"1206 -20 OFFCURVE",
"1226 4 OFFCURVE",
"1214 312 OFFCURVE",
"1216 516 OFFCURVE",
"1232 534 OFFCURVE",
"1328 590 OFFCURVE",
"1332 622 OFFCURVE",
"1304 630 OFFCURVE",
"1082 616 OFFCURVE",
"780 634 OFFCURVE",
"756 622 OFFCURVE",
"756 588 OFFCURVE",
"868 546 OFFCURVE",
"942 508 OFFCURVE",
"964 484 OFFCURVE",
"968 388 OFFCURVE",
"968 198 OFFCURVE",
"964 162 OFFCURVE",
"934 142 OFFCURVE",
"820 120 OFFCURVE",
"704 120 OFFCURVE",
"490 236 OFFCURVE",
"370 544 OFFCURVE",
"368 1046 OFFCURVE",
"528 1288 OFFCURVE",
"814 1288 OFFCURVE",
"996 1144 OFFCURVE",
"1088 976 OFFCURVE",
"1116 956 OFFCURVE",
"1136 972 OFFCURVE",
"1124 1176 OFFCURVE",
"1130 1336 OFFCURVE",
"1130 1368 OFFCURVE",
"1104 1372 OFFCURVE",
"996 1360 OFFCURVE",
"844 1368 OFFCURVE",
"820 1368 QCURVE SMOOTH",
"588 1368 OFFCURVE",
"248 1156 OFFCURVE",
"70 820 OFFCURVE",
"70 440 OFFCURVE",
"212 140 OFFCURVE",
"476 -26 OFFCURVE",
"654 -26 QCURVE SMOOTH"
);
}
);
userData = {
com.schriftgestaltung.Glyphs.lastChange = "2020-04-17 19:36:31 +0000";
};
width = 1374;
},
{
associatedMasterId = "F16CA8CE-DA8C-4EBD-81D6-AE00C3431B7F";
layerId = "EE585815-E286-43DE-ABF0-885B94491F47";
name = "Apr 20 20, 18:43";
paths = (
{
closed = 1;
nodes = (
"754 618 LINE",
"754 596 LINE",
"964 490 LINE",
"964 158 LINE",
"910 132 OFFCURVE",
"838 120 OFFCURVE",
"798 120 CURVE SMOOTH",
"442 120 OFFCURVE",
"368 502 OFFCURVE",
"368 810 CURVE SMOOTH",
"368 1124 OFFCURVE",
"478 1286 OFFCURVE",
"680 1286 CURVE SMOOTH",
"906 1286 OFFCURVE",
"1012 1122 OFFCURVE",
"1104 962 CURVE",
"1130 962 LINE",
"1130 1368 LINE",
"818 1368 LINE SMOOTH",
"336 1368 OFFCURVE",
"70 992 OFFCURVE",
"70 636 CURVE SMOOTH",
"70 244 OFFCURVE",
"294 -26 OFFCURVE",
"654 -26 CURVE SMOOTH",
"786 -26 OFFCURVE",
"904 28 OFFCURVE",
"1000 94 CURVE",
"1190 -12 LINE",
"1220 -12 LINE",
"1220 524 LINE",
"1326 598 LINE",
"1326 618 LINE"
);
}
);
userData = {
com.schriftgestaltung.Glyphs.lastChange = "2020-04-17 19:36:31 +0000";
};
width = 1374;
},
{
layerId = "02ADBE8D-B3BB-4EC7-92FE-8DBAAB138109";
paths = (
{
closed = 1;
nodes = (
"792 -26 OFFCURVE",
"986 92 OFFCURVE",
"1016 92 OFFCURVE",
"1098 48 OFFCURVE",
"1184 -16 OFFCURVE",
"1206 -20 OFFCURVE",
"1226 4 OFFCURVE",
"1214 312 OFFCURVE",
"1216 516 OFFCURVE",
"1232 534 OFFCURVE",
"1328 590 OFFCURVE",
"1332 622 OFFCURVE",
"1304 630 OFFCURVE",
"1082 616 OFFCURVE",
"780 634 OFFCURVE",
"756 622 OFFCURVE",
"756 588 OFFCURVE",
"868 546 OFFCURVE",
"942 508 OFFCURVE",
"964 484 OFFCURVE",
"968 388 OFFCURVE",
"968 198 OFFCURVE",
"964 162 OFFCURVE",
"934 142 OFFCURVE",
"820 120 OFFCURVE",
"704 120 OFFCURVE",
"490 236 OFFCURVE",
"370 544 OFFCURVE",
"368 1046 OFFCURVE",
"528 1288 OFFCURVE",
"814 1288 OFFCURVE",
"996 1144 OFFCURVE",
"1088 976 OFFCURVE",
"1116 956 OFFCURVE",
"1136 972 OFFCURVE",
"1124 1176 OFFCURVE",
"1130 1336 OFFCURVE",
"1130 1368 OFFCURVE",
"1104 1372 OFFCURVE",
"996 1360 OFFCURVE",
"844 1368 OFFCURVE",
"820 1368 QCURVE SMOOTH",
"588 1368 OFFCURVE",
"248 1156 OFFCURVE",
"70 820 OFFCURVE",
"70 440 OFFCURVE",
"212 140 OFFCURVE",
"476 -26 OFFCURVE",
"654 -26 QCURVE SMOOTH"
);
}
);
userData = {
com.schriftgestaltung.Glyphs.lastChange = "2020-04-17 19:36:31 +0000";
};
width = 1374;
},
{
associatedMasterId = "02ADBE8D-B3BB-4EC7-92FE-8DBAAB138109";
layerId = "51AD5010-A647-460C-AF74-43B909BEB82B";
name = "Apr 20 20, 18:43";
paths = (
{
closed = 1;
nodes = (
"754 618 LINE",
"754 596 LINE",
"964 490 LINE",
"964 158 LINE",
"910 132 OFFCURVE",
"838 120 OFFCURVE",
"798 120 CURVE SMOOTH",
"442 120 OFFCURVE",
"368 502 OFFCURVE",
"368 810 CURVE SMOOTH",
"368 1124 OFFCURVE",
"478 1286 OFFCURVE",
"680 1286 CURVE SMOOTH",
"906 1286 OFFCURVE",
"1012 1122 OFFCURVE",
"1104 962 CURVE",
"1130 962 LINE",
"1130 1368 LINE",
"818 1368 LINE SMOOTH",
"336 1368 OFFCURVE",
"70 992 OFFCURVE",
"70 636 CURVE SMOOTH",
"70 244 OFFCURVE",
"294 -26 OFFCURVE",
"654 -26 CURVE SMOOTH",
"786 -26 OFFCURVE",
"904 28 OFFCURVE",
"1000 94 CURVE",
"1190 -12 LINE",
"1220 -12 LINE",
"1220 524 LINE",
"1326 598 LINE",
"1326 618 LINE"
);
}
);
userData = {
com.schriftgestaltung.Glyphs.lastChange = "2020-04-17 19:36:31 +0000";
};
width = 1374;
}
);
unicode = 0047;
},
{
color = 4;
glyphname = H;
layers = (
{
layerId = master01;
paths = (
{
closed = 1;
nodes = (
"892 676 OFFCURVE",
"1040 664 OFFCURVE",
"1072 660 OFFCURVE",
"1076 632 OFFCURVE",
"1082 464 OFFCURVE",
"1076 232 OFFCURVE",
"1064 200 OFFCURVE",
"1018 122 OFFCURVE",
"934 44 OFFCURVE",
"926 18 OFFCURVE",
"960 -4 OFFCURVE",
"1234 10 OFFCURVE",
"1448 -10 OFFCURVE",
"1474 2 OFFCURVE",
"1458 38 OFFCURVE",
"1396 108 OFFCURVE",
"1340 200 OFFCURVE",
"1330 224 OFFCURVE",
"1328 732 OFFCURVE",
"1328 1128 OFFCURVE",
"1340 1174 OFFCURVE",
"1408 1284 OFFCURVE",
"1472 1348 OFFCURVE",
"1476 1366 OFFCURVE",
"1444 1380 OFFCURVE",
"1204 1364 OFFCURVE",
"964 1376 OFFCURVE",
"932 1368 OFFCURVE",
"934 1344 OFFCURVE",
"1006 1266 OFFCURVE",
"1066 1164 OFFCURVE",
"1076 1120 OFFCURVE",
"1076 980 OFFCURVE",
"1078 788 OFFCURVE",
"1064 756 OFFCURVE",
"1034 752 OFFCURVE",
"788 748 OFFCURVE",
"748 748 QCURVE SMOOTH",
"664 748 OFFCURVE",
"504 750 OFFCURVE",
"474 756 OFFCURVE",
"464 784 OFFCURVE",
"462 956 OFFCURVE",
"470 1146 OFFCURVE",
"478 1174 OFFCURVE",
"532 1260 OFFCURVE",
"620 1346 OFFCURVE",
"616 1380 OFFCURVE",
"564 1382 OFFCURVE",
"340 1364 OFFCURVE",
"110 1386 OFFCURVE",
"62 1370 OFFCURVE",
"68 1348 OFFCURVE",
"148 1260 OFFCURVE",
"200 1180 OFFCURVE",
"210 1144 OFFCURVE",
"218 732 OFFCURVE",
"208 232 OFFCURVE",
"204 200 OFFCURVE",
"160 128 OFFCURVE",
"76 36 OFFCURVE",
"64 -2 OFFCURVE",
"98 -8 OFFCURVE",
"322 12 OFFCURVE",
"592 -4 OFFCURVE",
"616 8 OFFCURVE",
"600 40 OFFCURVE",
"526 120 OFFCURVE",
"480 192 OFFCURVE",
"468 220 OFFCURVE",
"458 460 OFFCURVE",
"464 636 OFFCURVE",
"468 664 OFFCURVE",
"492 668 OFFCURVE",
"612 676 OFFCURVE",
"762 676 QCURVE SMOOTH"
);
}
);
userData = {
com.schriftgestaltung.Glyphs.lastChange = "2020-04-18 01:31:56 +0000";
};
width = 1560;
},
{
associatedMasterId = master01;
layerId = "963725E3-E983-4EC5-93B5-45C1A610775A";
name = "Apr 20 20, 19:39";
paths = (
{
closed = 1;
nodes = (
"1330 1158 LINE",
"1480 1370 LINE",
"924 1370 LINE",
"1070 1160 LINE",
"1070 756 LINE",
"468 756 LINE",
"468 1158 LINE",
"618 1370 LINE",
"62 1370 LINE",
"208 1160 LINE",
"208 212 LINE",
"60 0 LINE",
"616 0 LINE",
"468 212 LINE",
"468 666 LINE",
"1070 666 LINE",
"1070 212 LINE",
"922 0 LINE",
"1478 0 LINE",
"1330 212 LINE"
);
}
);
userData = {
com.schriftgestaltung.Glyphs.lastChange = "2020-04-18 01:31:56 +0000";
};
visible = 1;
width = 1560;
},
{
layerId = "F16CA8CE-DA8C-4EBD-81D6-AE00C3431B7F";
paths = (
{
closed = 1;
nodes = (
"892 676 OFFCURVE",
"1040 664 OFFCURVE",
"1072 660 OFFCURVE",
"1076 632 OFFCURVE",
"1082 464 OFFCURVE",
"1076 232 OFFCURVE",
"1064 200 OFFCURVE",
"1018 122 OFFCURVE",
"934 44 OFFCURVE",
"926 18 OFFCURVE",
"960 -4 OFFCURVE",
"1234 10 OFFCURVE",
"1448 -10 OFFCURVE",
"1474 2 OFFCURVE",
"1458 38 OFFCURVE",
"1396 108 OFFCURVE",
"1340 200 OFFCURVE",
"1330 224 OFFCURVE",
"1328 732 OFFCURVE",
"1328 1128 OFFCURVE",
"1340 1174 OFFCURVE",
"1408 1284 OFFCURVE",
"1472 1348 OFFCURVE",
"1476 1366 OFFCURVE",
"1444 1380 OFFCURVE",
"1204 1364 OFFCURVE",
"964 1376 OFFCURVE",
"932 1368 OFFCURVE",
"934 1344 OFFCURVE",
"1006 1266 OFFCURVE",
"1066 1164 OFFCURVE",
"1076 1120 OFFCURVE",
"1076 980 OFFCURVE",
"1078 788 OFFCURVE",
"1064 756 OFFCURVE",
"1034 752 OFFCURVE",
"788 748 OFFCURVE",
"748 748 QCURVE SMOOTH",
"664 748 OFFCURVE",
"504 750 OFFCURVE",
"474 756 OFFCURVE",
"464 784 OFFCURVE",
"462 956 OFFCURVE",
"470 1146 OFFCURVE",
"478 1174 OFFCURVE",
"532 1260 OFFCURVE",
"620 1346 OFFCURVE",
"616 1380 OFFCURVE",
"564 1382 OFFCURVE",
"340 1364 OFFCURVE",
"110 1386 OFFCURVE",
"62 1370 OFFCURVE",
"68 1348 OFFCURVE",
"148 1260 OFFCURVE",
"200 1180 OFFCURVE",
"210 1144 OFFCURVE",
"218 732 OFFCURVE",
"208 232 OFFCURVE",
"204 200 OFFCURVE",
"160 128 OFFCURVE",
"76 36 OFFCURVE",
"64 -2 OFFCURVE",
"98 -8 OFFCURVE",
"322 12 OFFCURVE",
"592 -4 OFFCURVE",
"616 8 OFFCURVE",
"600 40 OFFCURVE",
"526 120 OFFCURVE",
"480 192 OFFCURVE",
"468 220 OFFCURVE",
"458 460 OFFCURVE",
"464 636 OFFCURVE",
"468 664 OFFCURVE",
"492 668 OFFCURVE",
"612 676 OFFCURVE",
"762 676 QCURVE SMOOTH"
);
}
);
userData = {
com.schriftgestaltung.Glyphs.lastChange = "2020-04-18 01:31:56 +0000";
};
width = 1560;
},
{
associatedMasterId = "F16CA8CE-DA8C-4EBD-81D6-AE00C3431B7F";
layerId = "CD2FB6C0-9FE3-46AA-8805-BBC152A1E1E2";
name = "Apr 20 20, 19:39";
paths = (
{
closed = 1;
nodes = (
"1330 1158 LINE",
"1480 1370 LINE",
"924 1370 LINE",
"1070 1160 LINE",
"1070 756 LINE",
"468 756 LINE",
"468 1158 LINE",
"618 1370 LINE",
"62 1370 LINE",
"208 1160 LINE",
"208 212 LINE",
"60 0 LINE",
"616 0 LINE",
"468 212 LINE",
"468 666 LINE",
"1070 666 LINE",
"1070 212 LINE",
"922 0 LINE",
"1478 0 LINE",
"1330 212 LINE"
);
}
);
userData = {
com.schriftgestaltung.Glyphs.lastChange = "2020-04-18 01:31:56 +0000";
};
width = 1560;
},
{
layerId = "02ADBE8D-B3BB-4EC7-92FE-8DBAAB138109";
paths = (
{
closed = 1;
nodes = (
"892 676 OFFCURVE",
"1040 664 OFFCURVE",
"1072 660 OFFCURVE",
"1076 632 OFFCURVE",
"1082 464 OFFCURVE",
"1076 232 OFFCURVE",
"1064 200 OFFCURVE",
"1018 122 OFFCURVE",
"934 44 OFFCURVE",
"926 18 OFFCURVE",
"960 -4 OFFCURVE",
"1234 10 OFFCURVE",
"1448 -10 OFFCURVE",
"1474 2 OFFCURVE",
"1458 38 OFFCURVE",
"1396 108 OFFCURVE",
"1340 200 OFFCURVE",
"1330 224 OFFCURVE",
"1328 732 OFFCURVE",
"1328 1128 OFFCURVE",
"1340 1174 OFFCURVE",
"1408 1284 OFFCURVE",
"1472 1348 OFFCURVE",
"1476 1366 OFFCURVE",
"1444 1380 OFFCURVE",
"1204 1364 OFFCURVE",
"964 1376 OFFCURVE",
"932 1368 OFFCURVE",
"934 1344 OFFCURVE",
"1006 1266 OFFCURVE",
"1066 1164 OFFCURVE",
"1076 1120 OFFCURVE",
"1076 980 OFFCURVE",
"1078 788 OFFCURVE",
"1064 756 OFFCURVE",
"1034 752 OFFCURVE",
"788 748 OFFCURVE",
"748 748 QCURVE SMOOTH",
"664 748 OFFCURVE",
"504 750 OFFCURVE",
"474 756 OFFCURVE",
"464 784 OFFCURVE",
"462 956 OFFCURVE",
"470 1146 OFFCURVE",
"478 1174 OFFCURVE",
"532 1260 OFFCURVE",
"620 1346 OFFCURVE",
"616 1380 OFFCURVE",
"564 1382 OFFCURVE",
"340 1364 OFFCURVE",
"110 1386 OFFCURVE",
"62 1370 OFFCURVE",
"68 1348 OFFCURVE",
"148 1260 OFFCURVE",
"200 1180 OFFCURVE",
"210 1144 OFFCURVE",
"218 732 OFFCURVE",
"208 232 OFFCURVE",
"204 200 OFFCURVE",
"160 128 OFFCURVE",
"76 36 OFFCURVE",
"64 -2 OFFCURVE",
"98 -8 OFFCURVE",
"322 12 OFFCURVE",
"592 -4 OFFCURVE",
"616 8 OFFCURVE",
"600 40 OFFCURVE",
"526 120 OFFCURVE",
"480 192 OFFCURVE",
"468 220 OFFCURVE",
"458 460 OFFCURVE",
"464 636 OFFCURVE",
"468 664 OFFCURVE",
"492 668 OFFCURVE",
"612 676 OFFCURVE",
"762 676 QCURVE SMOOTH"
);
}
);
userData = {
com.schriftgestaltung.Glyphs.lastChange = "2020-04-18 01:31:56 +0000";
};
width = 1560;
},
{
associatedMasterId = "02ADBE8D-B3BB-4EC7-92FE-8DBAAB138109";
layerId = "614BEBAA-587A-43D2-89AB-A92E8101C405";
name = "Apr 20 20, 19:39";
paths = (
{
closed = 1;
nodes = (
"1330 1158 LINE",
"1480 1370 LINE",
"924 1370 LINE",
"1070 1160 LINE",
"1070 756 LINE",
"468 756 LINE",
"468 1158 LINE",
"618 1370 LINE",
"62 1370 LINE",
"208 1160 LINE",
"208 212 LINE",
"60 0 LINE",
"616 0 LINE",
"468 212 LINE",
"468 666 LINE",
"1070 666 LINE",
"1070 212 LINE",
"922 0 LINE",
"1478 0 LINE",
"1330 212 LINE"
);
}
);
userData = {
com.schriftgestaltung.Glyphs.lastChange = "2020-04-18 01:31:56 +0000";
};
width = 1560;
}
);
unicode = 0048;
},
{
color = 4;
glyphname = I;
layers = (
{
layerId = master01;
paths = (
{
closed = 1;
nodes = (
"416 12 OFFCURVE",
"556 -8 OFFCURVE",
"620 -2 OFFCURVE",
"614 46 OFFCURVE",
"548 108 OFFCURVE",
"484 196 OFFCURVE",
"476 224 OFFCURVE",
"468 786 OFFCURVE",
"480 1136 OFFCURVE",
"500 1180 OFFCURVE",
"556 1260 OFFCURVE",
"622 1330 OFFCURVE",
"642 1380 OFFCURVE",
"590 1390 OFFCURVE",
"472 1372 OFFCURVE",
"360 1372 QCURVE SMOOTH",
"270 1372 OFFCURVE",
"134 1394 OFFCURVE",
"82 1370 OFFCURVE",
"102 1310 OFFCURVE",
"172 1256 OFFCURVE",
"216 1184 OFFCURVE",
"232 1146 OFFCURVE",
"244 770 OFFCURVE",
"232 228 OFFCURVE",
"228 196 OFFCURVE",
"182 122 OFFCURVE",
"104 56 OFFCURVE",
"70 10 OFFCURVE",
"112 -14 OFFCURVE",
"300 12 OFFCURVE",
"352 12 QCURVE SMOOTH"
);
}
);
userData = {
com.schriftgestaltung.Glyphs.lastChange = "2020-04-17 19:36:31 +0000";
};
width = 716;
},
{
associatedMasterId = master01;
layerId = "7C74F8A7-18FB-451D-BF49-2E220E109C3A";
name = "Apr 21 20, 13:02";
paths = (
{
closed = 1;
nodes = (
"488 212 LINE",
"488 1158 LINE",
"636 1370 LINE",
"80 1370 LINE",
"228 1158 LINE",
"228 212 LINE",
"80 0 LINE",
"636 0 LINE"
);
}
);
userData = {
com.schriftgestaltung.Glyphs.lastChange = "2020-04-17 19:36:31 +0000";
};
visible = 1;
width = 716;
},
{
layerId = "F16CA8CE-DA8C-4EBD-81D6-AE00C3431B7F";
paths = (
{
closed = 1;
nodes = (
"416 12 OFFCURVE",
"556 -8 OFFCURVE",
"620 -2 OFFCURVE",
"614 46 OFFCURVE",
"548 108 OFFCURVE",
"484 196 OFFCURVE",
"476 224 OFFCURVE",
"468 786 OFFCURVE",
"480 1136 OFFCURVE",
"500 1180 OFFCURVE",
"556 1260 OFFCURVE",
"622 1330 OFFCURVE",
"642 1380 OFFCURVE",
"590 1390 OFFCURVE",
"472 1372 OFFCURVE",
"360 1372 QCURVE SMOOTH",
"270 1372 OFFCURVE",
"134 1394 OFFCURVE",
"82 1370 OFFCURVE",
"102 1310 OFFCURVE",
"172 1256 OFFCURVE",
"216 1184 OFFCURVE",
"232 1146 OFFCURVE",
"244 770 OFFCURVE",
"232 228 OFFCURVE",
"228 196 OFFCURVE",
"182 122 OFFCURVE",
"104 56 OFFCURVE",
"70 10 OFFCURVE",
"112 -14 OFFCURVE",
"300 12 OFFCURVE",
"352 12 QCURVE SMOOTH"
);
}
);
userData = {
com.schriftgestaltung.Glyphs.lastChange = "2020-04-17 19:36:31 +0000";
};
width = 716;
},
{
associatedMasterId = "F16CA8CE-DA8C-4EBD-81D6-AE00C3431B7F";
layerId = "2E61E076-1EC7-468D-B243-6C038E241A10";
name = "Apr 21 20, 13:02";
paths = (
{
closed = 1;
nodes = (
"488 212 LINE",
"488 1158 LINE",
"636 1370 LINE",
"80 1370 LINE",
"228 1158 LINE",
"228 212 LINE",
"80 0 LINE",
"636 0 LINE"
);
}
);
userData = {
com.schriftgestaltung.Glyphs.lastChange = "2020-04-17 19:36:31 +0000";
};
width = 716;
},
{
layerId = "02ADBE8D-B3BB-4EC7-92FE-8DBAAB138109";
paths = (
{
closed = 1;
nodes = (
"416 12 OFFCURVE",
"556 -8 OFFCURVE",
"620 -2 OFFCURVE",
"614 46 OFFCURVE",
"548 108 OFFCURVE",
"484 196 OFFCURVE",
"476 224 OFFCURVE",
"468 786 OFFCURVE",
"480 1136 OFFCURVE",
"500 1180 OFFCURVE",
"556 1260 OFFCURVE",
"622 1330 OFFCURVE",
"642 1380 OFFCURVE",
"590 1390 OFFCURVE",
"472 1372 OFFCURVE",
"360 1372 QCURVE SMOOTH",
"270 1372 OFFCURVE",
"134 1394 OFFCURVE",
"82 1370 OFFCURVE",
"102 1310 OFFCURVE",
"172 1256 OFFCURVE",
"216 1184 OFFCURVE",
"232 1146 OFFCURVE",
"244 770 OFFCURVE",
"232 228 OFFCURVE",
"228 196 OFFCURVE",
"182 122 OFFCURVE",
"104 56 OFFCURVE",
"70 10 OFFCURVE",
"112 -14 OFFCURVE",
"300 12 OFFCURVE",
"352 12 QCURVE SMOOTH"
);
}
);
userData = {
com.schriftgestaltung.Glyphs.lastChange = "2020-04-17 19:36:31 +0000";
};
width = 716;
},
{
associatedMasterId = "02ADBE8D-B3BB-4EC7-92FE-8DBAAB138109";
layerId = "FA30076C-6470-4B80-92C8-8986F1126DEF";
name = "Apr 21 20, 13:02";
paths = (
{
closed = 1;
nodes = (
"488 212 LINE",
"488 1158 LINE",
"636 1370 LINE",
"80 1370 LINE",
"228 1158 LINE",
"228 212 LINE",
"80 0 LINE",
"636 0 LINE"
);
}
);
userData = {
com.schriftgestaltung.Glyphs.lastChange = "2020-04-17 19:36:31 +0000";
};
width = 716;
}
);
unicode = 0049;
},
{
glyphname = IJ;
layers = (
{
layerId = master01;
paths = (
{
closed = 1;
nodes = (
"488 212 LINE",
"488 1158 LINE",
"636 1370 LINE",
"80 1370 LINE",
"228 1158 LINE",
"228 212 LINE",
"80 0 LINE",
"636 0 LINE"
);
},
{
closed = 1;
nodes = (
"746 1370 LINE",
"894 1158 LINE",
"894 -146 LINE SMOOTH",
"894 -212 OFFCURVE",
"874 -294 OFFCURVE",
"850 -344 CURVE",
"864 -352 LINE",
"976 -284 OFFCURVE",
"1154 -146 OFFCURVE",
"1154 8 CURVE SMOOTH",
"1154 1158 LINE",
"1302 1370 LINE"
);
}
);
width = 1382;
},
{
layerId = "F16CA8CE-DA8C-4EBD-81D6-AE00C3431B7F";
paths = (
{
closed = 1;
nodes = (
"488 212 LINE",
"488 1158 LINE",
"636 1370 LINE",
"80 1370 LINE",
"228 1158 LINE",
"228 212 LINE",
"80 0 LINE",
"636 0 LINE"
);
},
{
closed = 1;
nodes = (
"746 1370 LINE",
"894 1158 LINE",
"894 -146 LINE SMOOTH",
"894 -212 OFFCURVE",
"874 -294 OFFCURVE",
"850 -344 CURVE",
"864 -352 LINE",
"976 -284 OFFCURVE",
"1154 -146 OFFCURVE",
"1154 8 CURVE SMOOTH",
"1154 1158 LINE",
"1302 1370 LINE"
);
}
);
width = 1382;
},
{
layerId = "02ADBE8D-B3BB-4EC7-92FE-8DBAAB138109";
paths = (
{
closed = 1;
nodes = (
"488 212 LINE",
"488 1158 LINE",
"636 1370 LINE",
"80 1370 LINE",
"228 1158 LINE",
"228 212 LINE",
"80 0 LINE",
"636 0 LINE"
);
},
{
closed = 1;
nodes = (
"746 1370 LINE",
"894 1158 LINE",
"894 -146 LINE SMOOTH",
"894 -212 OFFCURVE",
"874 -294 OFFCURVE",
"850 -344 CURVE",
"864 -352 LINE",
"976 -284 OFFCURVE",
"1154 -146 OFFCURVE",
"1154 8 CURVE SMOOTH",
"1154 1158 LINE",
"1302 1370 LINE"
);
}
);
width = 1382;
}
);
unicode = 0132;
},
{
glyphname = Iacute;
layers = (
{
layerId = master01;
paths = (
{
closed = 1;
nodes = (
"570 1738 LINE",
"308 1738 LINE",
"282 1480 LINE",
"312 1480 LINE"
);
},
{
closed = 1;
nodes = (
"488 212 LINE",
"488 1158 LINE",
"636 1370 LINE",
"80 1370 LINE",
"228 1158 LINE",
"228 212 LINE",
"80 0 LINE",
"636 0 LINE"
);
}
);
width = 716;
},
{
layerId = "F16CA8CE-DA8C-4EBD-81D6-AE00C3431B7F";
paths = (
{
closed = 1;
nodes = (
"570 1738 LINE",
"308 1738 LINE",
"282 1480 LINE",
"312 1480 LINE"
);
},
{
closed = 1;
nodes = (
"488 212 LINE",
"488 1158 LINE",
"636 1370 LINE",
"80 1370 LINE",
"228 1158 LINE",
"228 212 LINE",
"80 0 LINE",
"636 0 LINE"
);
}
);
width = 716;
},
{
layerId = "02ADBE8D-B3BB-4EC7-92FE-8DBAAB138109";
paths = (
{
closed = 1;
nodes = (
"570 1738 LINE",
"308 1738 LINE",
"282 1480 LINE",
"312 1480 LINE"
);
},
{
closed = 1;
nodes = (
"488 212 LINE",
"488 1158 LINE",
"636 1370 LINE",
"80 1370 LINE",
"228 1158 LINE",
"228 212 LINE",
"80 0 LINE",
"636 0 LINE"
);
}
);
width = 716;
}
);
unicode = 00CD;
},
{
glyphname = Icircumflex;
layers = (
{
layerId = master01;
paths = (
{
closed = 1;
nodes = (
"186 1480 LINE",
"364 1620 LINE",
"542 1480 LINE",
"572 1480 LINE",
"446 1738 LINE",
"280 1738 LINE",
"156 1480 LINE"
);
},
{
closed = 1;
nodes = (
"488 212 LINE",
"488 1158 LINE",
"636 1370 LINE",
"80 1370 LINE",
"228 1158 LINE",
"228 212 LINE",
"80 0 LINE",
"636 0 LINE"
);
}
);
width = 716;
},
{
layerId = "F16CA8CE-DA8C-4EBD-81D6-AE00C3431B7F";
paths = (
{
closed = 1;
nodes = (
"186 1480 LINE",
"364 1620 LINE",
"542 1480 LINE",
"572 1480 LINE",
"446 1738 LINE",
"280 1738 LINE",
"156 1480 LINE"
);
},
{
closed = 1;
nodes = (
"488 212 LINE",
"488 1158 LINE",
"636 1370 LINE",
"80 1370 LINE",
"228 1158 LINE",
"228 212 LINE",
"80 0 LINE",
"636 0 LINE"
);
}
);
width = 716;
},
{
layerId = "02ADBE8D-B3BB-4EC7-92FE-8DBAAB138109";
paths = (
{
closed = 1;
nodes = (
"186 1480 LINE",
"364 1620 LINE",
"542 1480 LINE",
"572 1480 LINE",
"446 1738 LINE",
"280 1738 LINE",
"156 1480 LINE"
);
},
{
closed = 1;
nodes = (
"488 212 LINE",
"488 1158 LINE",
"636 1370 LINE",
"80 1370 LINE",
"228 1158 LINE",
"228 212 LINE",
"80 0 LINE",
"636 0 LINE"
);
}
);
width = 716;
}
);
unicode = 00CE;
},
{
glyphname = Idieresis;
layers = (
{
layerId = master01;
paths = (
{
closed = 1;
nodes = (
"212 1484 LINE",
"368 1660 LINE",
"212 1834 LINE",
"60 1660 LINE"
);
},
{
closed = 1;
nodes = (
"680 1484 LINE",
"832 1660 LINE",
"680 1834 LINE",
"524 1660 LINE"
);
},
{
closed = 1;
nodes = (
"576 212 LINE",
"576 1158 LINE",
"724 1370 LINE",
"168 1370 LINE",
"316 1158 LINE",
"316 212 LINE",
"168 0 LINE",
"724 0 LINE"
);
}
);
width = 892;
},
{
layerId = "F16CA8CE-DA8C-4EBD-81D6-AE00C3431B7F";
paths = (
{
closed = 1;
nodes = (
"212 1484 LINE",
"368 1660 LINE",
"212 1834 LINE",
"60 1660 LINE"
);
},
{
closed = 1;
nodes = (
"680 1484 LINE",
"832 1660 LINE",
"680 1834 LINE",
"524 1660 LINE"
);
},
{
closed = 1;
nodes = (
"576 212 LINE",
"576 1158 LINE",
"724 1370 LINE",
"168 1370 LINE",
"316 1158 LINE",
"316 212 LINE",
"168 0 LINE",
"724 0 LINE"
);
}
);
width = 892;
},
{
layerId = "02ADBE8D-B3BB-4EC7-92FE-8DBAAB138109";
paths = (
{
closed = 1;
nodes = (
"212 1484 LINE",
"368 1660 LINE",
"212 1834 LINE",
"60 1660 LINE"
);
},
{
closed = 1;
nodes = (
"680 1484 LINE",
"832 1660 LINE",
"680 1834 LINE",
"524 1660 LINE"
);
},
{
closed = 1;
nodes = (
"576 212 LINE",
"576 1158 LINE",
"724 1370 LINE",
"168 1370 LINE",
"316 1158 LINE",
"316 212 LINE",
"168 0 LINE",
"724 0 LINE"
);
}
);
width = 892;
}
);
unicode = 00CF;
},
{
glyphname = Igrave;
layers = (
{
layerId = master01;
paths = (
{
closed = 1;
nodes = (
"436 1480 LINE",
"410 1738 LINE",
"148 1738 LINE",
"406 1480 LINE"
);
},
{
closed = 1;
nodes = (
"488 212 LINE",
"488 1158 LINE",
"636 1370 LINE",
"80 1370 LINE",
"228 1158 LINE",
"228 212 LINE",
"80 0 LINE",
"636 0 LINE"
);
}
);
width = 716;
},
{
layerId = "F16CA8CE-DA8C-4EBD-81D6-AE00C3431B7F";
paths = (
{
closed = 1;
nodes = (
"436 1480 LINE",
"410 1738 LINE",
"148 1738 LINE",
"406 1480 LINE"
);
},
{
closed = 1;
nodes = (
"488 212 LINE",
"488 1158 LINE",
"636 1370 LINE",
"80 1370 LINE",
"228 1158 LINE",
"228 212 LINE",
"80 0 LINE",
"636 0 LINE"
);
}
);
width = 716;
},
{
layerId = "02ADBE8D-B3BB-4EC7-92FE-8DBAAB138109";
paths = (
{
closed = 1;
nodes = (
"436 1480 LINE",
"410 1738 LINE",
"148 1738 LINE",
"406 1480 LINE"
);
},
{
closed = 1;
nodes = (
"488 212 LINE",
"488 1158 LINE",
"636 1370 LINE",
"80 1370 LINE",
"228 1158 LINE",
"228 212 LINE",
"80 0 LINE",
"636 0 LINE"
);
}
);
width = 716;
}
);
unicode = 00CC;
},
{
color = 4;
glyphname = J;
layers = (
{
layerId = master01;
paths = (
{
closed = 1;
nodes = (
"194 -380 OFFCURVE",
"306 -310 OFFCURVE",
"468 -98 OFFCURVE",
"468 130 OFFCURVE",
"456 728 OFFCURVE",
"468 1160 OFFCURVE",
"532 1260 OFFCURVE",
"596 1326 OFFCURVE",
"608 1360 OFFCURVE",
"586 1378 OFFCURVE",
"404 1364 OFFCURVE",
"332 1364 QCURVE SMOOTH",
"284 1364 OFFCURVE",
"108 1376 OFFCURVE",
"76 1368 OFFCURVE",
"80 1332 OFFCURVE",
"144 1256 OFFCURVE",
"208 1160 OFFCURVE",
"218 678 OFFCURVE",
"208 -194 OFFCURVE",
"176 -320 OFFCURVE",
"160 -350 OFFCURVE",
"164 -380 OFFCURVE",
"184 -380 QCURVE SMOOTH"
);
}
);
userData = {
com.schriftgestaltung.Glyphs.lastChange = "2020-04-18 20:40:42 +0000";
};
width = 676;
},
{
layerId = "F16CA8CE-DA8C-4EBD-81D6-AE00C3431B7F";
paths = (
{
closed = 1;
nodes = (
"194 -380 OFFCURVE",
"306 -310 OFFCURVE",
"468 -98 OFFCURVE",
"468 130 OFFCURVE",
"456 728 OFFCURVE",
"468 1160 OFFCURVE",
"532 1260 OFFCURVE",
"596 1326 OFFCURVE",
"608 1360 OFFCURVE",
"586 1378 OFFCURVE",
"404 1364 OFFCURVE",
"332 1364 QCURVE SMOOTH",
"284 1364 OFFCURVE",
"108 1376 OFFCURVE",
"76 1368 OFFCURVE",
"80 1332 OFFCURVE",
"144 1256 OFFCURVE",
"208 1160 OFFCURVE",
"218 678 OFFCURVE",
"208 -194 OFFCURVE",
"176 -320 OFFCURVE",
"160 -350 OFFCURVE",
"164 -380 OFFCURVE",
"184 -380 QCURVE SMOOTH"
);
}
);
userData = {
com.schriftgestaltung.Glyphs.lastChange = "2020-04-18 20:40:42 +0000";
};
width = 676;
},
{
layerId = "02ADBE8D-B3BB-4EC7-92FE-8DBAAB138109";
paths = (
{
closed = 1;
nodes = (
"194 -380 OFFCURVE",
"306 -310 OFFCURVE",
"468 -98 OFFCURVE",
"468 130 OFFCURVE",
"456 728 OFFCURVE",
"468 1160 OFFCURVE",
"532 1260 OFFCURVE",
"596 1326 OFFCURVE",
"608 1360 OFFCURVE",
"586 1378 OFFCURVE",
"404 1364 OFFCURVE",
"332 1364 QCURVE SMOOTH",
"284 1364 OFFCURVE",
"108 1376 OFFCURVE",
"76 1368 OFFCURVE",
"80 1332 OFFCURVE",
"144 1256 OFFCURVE",
"208 1160 OFFCURVE",
"218 678 OFFCURVE",
"208 -194 OFFCURVE",
"176 -320 OFFCURVE",
"160 -350 OFFCURVE",
"164 -380 OFFCURVE",
"184 -380 QCURVE SMOOTH"
);
}
);
userData = {
com.schriftgestaltung.Glyphs.lastChange = "2020-04-18 20:40:42 +0000";
};
width = 676;
}
);
unicode = 004A;
},
{
color = 4;
glyphname = K;
layers = (
{
layerId = master01;
paths = (
{
closed = 1;
nodes = (
"394 0 OFFCURVE",
"596 -12 OFFCURVE",
"624 -12 OFFCURVE",
"628 20 OFFCURVE",
"552 100 OFFCURVE",
"486 212 OFFCURVE",
"484 420 OFFCURVE",
"490 552 OFFCURVE",
"498 572 OFFCURVE",
"556 632 OFFCURVE",
"574 640 OFFCURVE",
"594 616 OFFCURVE",
"758 408 OFFCURVE",
"940 146 OFFCURVE",
"950 124 OFFCURVE",
"936 106 OFFCURVE",
"912 74 OFFCURVE",
"866 22 OFFCURVE",
"866 -4 OFFCURVE",
"888 -8 OFFCURVE",
"1184 8 OFFCURVE",
"1484 -8 OFFCURVE",
"1492 8 OFFCURVE",
"1472 36 OFFCURVE",
"1396 72 OFFCURVE",
"1276 152 OFFCURVE",
"996 520 OFFCURVE",
"776 820 OFFCURVE",
"764 840 OFFCURVE",
"776 860 OFFCURVE",
"952 1038 OFFCURVE",
"1126 1200 OFFCURVE",
"1244 1280 OFFCURVE",
"1372 1344 OFFCURVE",
"1390 1366 OFFCURVE",
"1374 1376 OFFCURVE",
"1182 1364 OFFCURVE",
"962 1376 OFFCURVE",
"944 1362 OFFCURVE",
"954 1342 OFFCURVE",
"976 1298 OFFCURVE",
"998 1250 OFFCURVE",
"1004 1230 OFFCURVE",
"992 1212 OFFCURVE",
"784 988 OFFCURVE",
"514 714 OFFCURVE",
"492 700 OFFCURVE",
"484 722 OFFCURVE",
"482 956 OFFCURVE",
"482 1150 OFFCURVE",
"494 1172 OFFCURVE",
"546 1258 OFFCURVE",
"626 1348 OFFCURVE",
"622 1378 OFFCURVE",
"592 1380 OFFCURVE",
"424 1364 OFFCURVE",
"368 1364 QCURVE SMOOTH",
"310 1364 OFFCURVE",
"110 1382 OFFCURVE",
"80 1372 OFFCURVE",
"84 1350 OFFCURVE",
"156 1270 OFFCURVE",
"228 1160 OFFCURVE",
"228 1072 OFFCURVE",
"234 674 OFFCURVE",
"228 212 OFFCURVE",
"170 120 OFFCURVE",
"108 42 OFFCURVE",
"86 2 OFFCURVE",
"116 -10 OFFCURVE",
"286 0 OFFCURVE",
"340 0 QCURVE SMOOTH"
);
}
);
userData = {
com.schriftgestaltung.Glyphs.lastChange = "2020-04-18 21:16:26 +0000";
};
width = 1538;
},
{
layerId = "F16CA8CE-DA8C-4EBD-81D6-AE00C3431B7F";
paths = (
{
closed = 1;
nodes = (
"394 0 OFFCURVE",
"596 -12 OFFCURVE",
"624 -12 OFFCURVE",
"628 20 OFFCURVE",
"552 100 OFFCURVE",
"486 212 OFFCURVE",
"484 420 OFFCURVE",
"490 552 OFFCURVE",
"498 572 OFFCURVE",
"556 632 OFFCURVE",
"574 640 OFFCURVE",
"594 616 OFFCURVE",
"758 408 OFFCURVE",
"940 146 OFFCURVE",
"950 124 OFFCURVE",
"936 106 OFFCURVE",
"912 74 OFFCURVE",
"866 22 OFFCURVE",
"866 -4 OFFCURVE",
"888 -8 OFFCURVE",
"1184 8 OFFCURVE",
"1484 -8 OFFCURVE",
"1492 8 OFFCURVE",
"1472 36 OFFCURVE",
"1396 72 OFFCURVE",
"1276 152 OFFCURVE",
"996 520 OFFCURVE",
"776 820 OFFCURVE",
"764 840 OFFCURVE",
"776 860 OFFCURVE",
"952 1038 OFFCURVE",
"1126 1200 OFFCURVE",
"1244 1280 OFFCURVE",
"1372 1344 OFFCURVE",
"1390 1366 OFFCURVE",
"1374 1376 OFFCURVE",
"1182 1364 OFFCURVE",
"962 1376 OFFCURVE",
"944 1362 OFFCURVE",
"954 1342 OFFCURVE",
"976 1298 OFFCURVE",
"998 1250 OFFCURVE",
"1004 1230 OFFCURVE",
"992 1212 OFFCURVE",
"784 988 OFFCURVE",
"514 714 OFFCURVE",
"492 700 OFFCURVE",
"484 722 OFFCURVE",
"482 956 OFFCURVE",
"482 1150 OFFCURVE",
"494 1172 OFFCURVE",
"546 1258 OFFCURVE",
"626 1348 OFFCURVE",
"622 1378 OFFCURVE",
"592 1380 OFFCURVE",
"424 1364 OFFCURVE",
"368 1364 QCURVE SMOOTH",
"310 1364 OFFCURVE",
"110 1382 OFFCURVE",
"80 1372 OFFCURVE",
"84 1350 OFFCURVE",
"156 1270 OFFCURVE",
"228 1160 OFFCURVE",
"228 1072 OFFCURVE",
"234 674 OFFCURVE",
"228 212 OFFCURVE",
"170 120 OFFCURVE",
"108 42 OFFCURVE",
"86 2 OFFCURVE",
"116 -10 OFFCURVE",
"286 0 OFFCURVE",
"340 0 QCURVE SMOOTH"
);
}
);
userData = {
com.schriftgestaltung.Glyphs.lastChange = "2020-04-18 21:16:26 +0000";
};
width = 1538;
},
{
layerId = "02ADBE8D-B3BB-4EC7-92FE-8DBAAB138109";
paths = (
{
closed = 1;
nodes = (
"394 0 OFFCURVE",
"596 -12 OFFCURVE",
"624 -12 OFFCURVE",
"628 20 OFFCURVE",
"552 100 OFFCURVE",
"486 212 OFFCURVE",
"484 420 OFFCURVE",
"490 552 OFFCURVE",
"498 572 OFFCURVE",
"556 632 OFFCURVE",
"574 640 OFFCURVE",
"594 616 OFFCURVE",
"758 408 OFFCURVE",
"940 146 OFFCURVE",
"950 124 OFFCURVE",
"936 106 OFFCURVE",
"912 74 OFFCURVE",
"866 22 OFFCURVE",
"866 -4 OFFCURVE",
"888 -8 OFFCURVE",
"1184 8 OFFCURVE",
"1484 -8 OFFCURVE",
"1492 8 OFFCURVE",
"1472 36 OFFCURVE",
"1396 72 OFFCURVE",
"1276 152 OFFCURVE",
"996 520 OFFCURVE",
"776 820 OFFCURVE",
"764 840 OFFCURVE",
"776 860 OFFCURVE",
"952 1038 OFFCURVE",
"1126 1200 OFFCURVE",
"1244 1280 OFFCURVE",
"1372 1344 OFFCURVE",
"1390 1366 OFFCURVE",
"1374 1376 OFFCURVE",
"1182 1364 OFFCURVE",
"962 1376 OFFCURVE",
"944 1362 OFFCURVE",
"954 1342 OFFCURVE",
"976 1298 OFFCURVE",
"998 1250 OFFCURVE",
"1004 1230 OFFCURVE",
"992 1212 OFFCURVE",
"784 988 OFFCURVE",
"514 714 OFFCURVE",
"492 700 OFFCURVE",
"484 722 OFFCURVE",
"482 956 OFFCURVE",
"482 1150 OFFCURVE",
"494 1172 OFFCURVE",
"546 1258 OFFCURVE",
"626 1348 OFFCURVE",
"622 1378 OFFCURVE",
"592 1380 OFFCURVE",
"424 1364 OFFCURVE",
"368 1364 QCURVE SMOOTH",
"310 1364 OFFCURVE",
"110 1382 OFFCURVE",
"80 1372 OFFCURVE",
"84 1350 OFFCURVE",
"156 1270 OFFCURVE",
"228 1160 OFFCURVE",
"228 1072 OFFCURVE",
"234 674 OFFCURVE",
"228 212 OFFCURVE",
"170 120 OFFCURVE",
"108 42 OFFCURVE",
"86 2 OFFCURVE",
"116 -10 OFFCURVE",
"286 0 OFFCURVE",
"340 0 QCURVE SMOOTH"
);
}
);
userData = {
com.schriftgestaltung.Glyphs.lastChange = "2020-04-18 21:16:26 +0000";
};
width = 1538;
}
);
unicode = 004B;
},
{
color = 4;
glyphname = L;
layers = (
{
layerId = master01;
paths = (
{
closed = 1;
nodes = (
"1158 212 OFFCURVE",
"1160 416 OFFCURVE",
"1142 430 OFFCURVE",
"1124 416 OFFCURVE",
"1002 238 OFFCURVE",
"886 96 OFFCURVE",
"864 84 OFFCURVE",
"676 84 OFFCURVE",
"476 86 OFFCURVE",
"460 94 OFFCURVE",
"456 130 OFFCURVE",
"456 748 OFFCURVE",
"460 1138 OFFCURVE",
"464 1168 OFFCURVE",
"532 1272 OFFCURVE",
"592 1342 OFFCURVE",
"608 1364 OFFCURVE",
"588 1380 OFFCURVE",
"392 1364 OFFCURVE",
"344 1364 QCURVE SMOOTH",
"296 1364 OFFCURVE",
"120 1380 OFFCURVE",
"92 1372 OFFCURVE",
"96 1340 OFFCURVE",
"140 1278 OFFCURVE",
"200 1162 OFFCURVE",
"200 1132 OFFCURVE",
"200 680 OFFCURVE",
"204 242 OFFCURVE",
"200 212 OFFCURVE",
"154 114 OFFCURVE",
"88 28 OFFCURVE",
"84 -4 OFFCURVE",
"120 -16 OFFCURVE",
"488 0 OFFCURVE",
"572 0 QCURVE SMOOTH",
"668 0 OFFCURVE",
"1092 -4 OFFCURVE",
"1128 0 OFFCURVE",
"1144 36 OFFCURVE"
);
}
);
userData = {
com.schriftgestaltung.Glyphs.lastChange = "2020-04-18 21:25:10 +0000";
};
width = 1220;
},
{
layerId = "F16CA8CE-DA8C-4EBD-81D6-AE00C3431B7F";
paths = (
{
closed = 1;
nodes = (
"1158 212 OFFCURVE",
"1160 416 OFFCURVE",
"1142 430 OFFCURVE",
"1124 416 OFFCURVE",
"1002 238 OFFCURVE",
"886 96 OFFCURVE",
"864 84 OFFCURVE",
"676 84 OFFCURVE",
"476 86 OFFCURVE",
"460 94 OFFCURVE",
"456 130 OFFCURVE",
"456 748 OFFCURVE",
"460 1138 OFFCURVE",
"464 1168 OFFCURVE",
"532 1272 OFFCURVE",
"592 1342 OFFCURVE",
"608 1364 OFFCURVE",
"588 1380 OFFCURVE",
"392 1364 OFFCURVE",
"344 1364 QCURVE SMOOTH",
"296 1364 OFFCURVE",
"120 1380 OFFCURVE",
"92 1372 OFFCURVE",
"96 1340 OFFCURVE",
"140 1278 OFFCURVE",
"200 1162 OFFCURVE",
"200 1132 OFFCURVE",
"200 680 OFFCURVE",
"204 242 OFFCURVE",
"200 212 OFFCURVE",
"154 114 OFFCURVE",
"88 28 OFFCURVE",
"84 -4 OFFCURVE",
"120 -16 OFFCURVE",
"488 0 OFFCURVE",
"572 0 QCURVE SMOOTH",
"668 0 OFFCURVE",
"1092 -4 OFFCURVE",
"1128 0 OFFCURVE",
"1144 36 OFFCURVE"
);
}
);
userData = {
com.schriftgestaltung.Glyphs.lastChange = "2020-04-18 21:25:10 +0000";
};
width = 1220;
},
{
layerId = "02ADBE8D-B3BB-4EC7-92FE-8DBAAB138109";
paths = (
{
closed = 1;
nodes = (
"1158 212 OFFCURVE",
"1160 416 OFFCURVE",
"1142 430 OFFCURVE",
"1124 416 OFFCURVE",
"1002 238 OFFCURVE",
"886 96 OFFCURVE",
"864 84 OFFCURVE",
"676 84 OFFCURVE",
"476 86 OFFCURVE",
"460 94 OFFCURVE",
"456 130 OFFCURVE",
"456 748 OFFCURVE",
"460 1138 OFFCURVE",
"464 1168 OFFCURVE",
"532 1272 OFFCURVE",
"592 1342 OFFCURVE",
"608 1364 OFFCURVE",
"588 1380 OFFCURVE",
"392 1364 OFFCURVE",
"344 1364 QCURVE SMOOTH",
"296 1364 OFFCURVE",
"120 1380 OFFCURVE",
"92 1372 OFFCURVE",
"96 1340 OFFCURVE",
"140 1278 OFFCURVE",
"200 1162 OFFCURVE",
"200 1132 OFFCURVE",
"200 680 OFFCURVE",
"204 242 OFFCURVE",
"200 212 OFFCURVE",
"154 114 OFFCURVE",
"88 28 OFFCURVE",
"84 -4 OFFCURVE",
"120 -16 OFFCURVE",
"488 0 OFFCURVE",
"572 0 QCURVE SMOOTH",
"668 0 OFFCURVE",
"1092 -4 OFFCURVE",
"1128 0 OFFCURVE",
"1144 36 OFFCURVE"
);
}
);
userData = {
com.schriftgestaltung.Glyphs.lastChange = "2020-04-18 21:25:10 +0000";
};
width = 1220;
}
);
unicode = 004C;
},
{
glyphname = Lacute;
layers = (
{
layerId = master01;
paths = (
{
closed = 1;
nodes = (
"584 1738 LINE",
"322 1738 LINE",
"296 1480 LINE",
"326 1480 LINE"
);
},
{
closed = 1;
nodes = (
"1140 432 LINE",
"876 90 LINE",
"460 90 LINE",
"460 1160 LINE",
"612 1370 LINE",
"80 1370 LINE",
"200 1162 LINE",
"200 212 LINE",
"80 0 LINE",
"1138 0 LINE",
"1160 432 LINE"
);
}
);
width = 1220;
},
{
layerId = "F16CA8CE-DA8C-4EBD-81D6-AE00C3431B7F";
paths = (
{
closed = 1;
nodes = (
"584 1738 LINE",
"322 1738 LINE",
"296 1480 LINE",
"326 1480 LINE"
);
},
{
closed = 1;
nodes = (
"1140 432 LINE",
"876 90 LINE",
"460 90 LINE",
"460 1160 LINE",
"612 1370 LINE",
"80 1370 LINE",
"200 1162 LINE",
"200 212 LINE",
"80 0 LINE",
"1138 0 LINE",
"1160 432 LINE"
);
}
);
width = 1220;
},
{
layerId = "02ADBE8D-B3BB-4EC7-92FE-8DBAAB138109";
paths = (
{
closed = 1;
nodes = (
"584 1738 LINE",
"322 1738 LINE",
"296 1480 LINE",
"326 1480 LINE"
);
},
{
closed = 1;
nodes = (
"1140 432 LINE",
"876 90 LINE",
"460 90 LINE",
"460 1160 LINE",
"612 1370 LINE",
"80 1370 LINE",
"200 1162 LINE",
"200 212 LINE",
"80 0 LINE",
"1138 0 LINE",
"1160 432 LINE"
);
}
);
width = 1220;
}
);
unicode = 0139;
},
{
glyphname = Lcaron;
layers = (
{
layerId = master01;
paths = (
{
closed = 1;
nodes = (
"870 886 OFFCURVE",
"1120 1032 OFFCURVE",
"1120 1228 CURVE SMOOTH",
"1120 1296 OFFCURVE",
"1024 1382 OFFCURVE",
"958 1422 CURVE",
"792 1252 LINE",
"870 1190 LINE",
"896 1162 OFFCURVE",
"928 1138 OFFCURVE",
"928 1086 CURVE SMOOTH",
"928 1010 OFFCURVE",
"866 934 OFFCURVE",
"798 878 CURVE",
"826 858 LINE"
);
},
{
closed = 1;
nodes = (
"1140 432 LINE",
"876 90 LINE",
"460 90 LINE",
"460 1160 LINE",
"612 1370 LINE",
"80 1370 LINE",
"200 1162 LINE",
"200 212 LINE",
"80 0 LINE",
"1138 0 LINE",
"1160 432 LINE"
);
}
);
width = 1228;
},
{
layerId = "F16CA8CE-DA8C-4EBD-81D6-AE00C3431B7F";
paths = (
{
closed = 1;
nodes = (
"870 886 OFFCURVE",
"1120 1032 OFFCURVE",
"1120 1228 CURVE SMOOTH",
"1120 1296 OFFCURVE",
"1024 1382 OFFCURVE",
"958 1422 CURVE",
"792 1252 LINE",
"870 1190 LINE",
"896 1162 OFFCURVE",
"928 1138 OFFCURVE",
"928 1086 CURVE SMOOTH",
"928 1010 OFFCURVE",
"866 934 OFFCURVE",
"798 878 CURVE",
"826 858 LINE"
);
},
{
closed = 1;
nodes = (
"1140 432 LINE",
"876 90 LINE",
"460 90 LINE",
"460 1160 LINE",
"612 1370 LINE",
"80 1370 LINE",
"200 1162 LINE",
"200 212 LINE",
"80 0 LINE",
"1138 0 LINE",
"1160 432 LINE"
);
}
);
width = 1228;
},
{
layerId = "02ADBE8D-B3BB-4EC7-92FE-8DBAAB138109";
paths = (
{
closed = 1;
nodes = (
"870 886 OFFCURVE",
"1120 1032 OFFCURVE",
"1120 1228 CURVE SMOOTH",
"1120 1296 OFFCURVE",
"1024 1382 OFFCURVE",
"958 1422 CURVE",
"792 1252 LINE",
"870 1190 LINE",
"896 1162 OFFCURVE",
"928 1138 OFFCURVE",
"928 1086 CURVE SMOOTH",
"928 1010 OFFCURVE",
"866 934 OFFCURVE",
"798 878 CURVE",
"826 858 LINE"
);
},
{
closed = 1;
nodes = (
"1140 432 LINE",
"876 90 LINE",
"460 90 LINE",
"460 1160 LINE",
"612 1370 LINE",
"80 1370 LINE",
"200 1162 LINE",
"200 212 LINE",
"80 0 LINE",
"1138 0 LINE",
"1160 432 LINE"
);
}
);
width = 1228;
}
);
unicode = 013D;
},
{
glyphname = Ldot;
layers = (
{
layerId = master01;
paths = (
{
closed = 1;
nodes = (
"1140 432 LINE",
"876 90 LINE",
"460 90 LINE",
"460 1160 LINE",
"612 1370 LINE",
"80 1370 LINE",
"200 1162 LINE",
"200 212 LINE",
"80 0 LINE",
"1138 0 LINE",
"1160 432 LINE"
);
},
{
closed = 1;
nodes = (
"1084 758 LINE",
"914 944 LINE",
"742 758 LINE",
"914 574 LINE"
);
}
);
width = 1228;
},
{
layerId = "F16CA8CE-DA8C-4EBD-81D6-AE00C3431B7F";
paths = (
{
closed = 1;
nodes = (
"1140 432 LINE",
"876 90 LINE",
"460 90 LINE",
"460 1160 LINE",
"612 1370 LINE",
"80 1370 LINE",
"200 1162 LINE",
"200 212 LINE",
"80 0 LINE",
"1138 0 LINE",
"1160 432 LINE"
);
},
{
closed = 1;
nodes = (
"1084 758 LINE",
"914 944 LINE",
"742 758 LINE",
"914 574 LINE"
);
}
);
width = 1228;
},
{
layerId = "02ADBE8D-B3BB-4EC7-92FE-8DBAAB138109";
paths = (
{
closed = 1;
nodes = (
"1140 432 LINE",
"876 90 LINE",
"460 90 LINE",
"460 1160 LINE",
"612 1370 LINE",
"80 1370 LINE",
"200 1162 LINE",
"200 212 LINE",
"80 0 LINE",
"1138 0 LINE",
"1160 432 LINE"
);
},
{
closed = 1;
nodes = (
"1084 758 LINE",
"914 944 LINE",
"742 758 LINE",
"914 574 LINE"
);
}
);
width = 1228;
}
);
unicode = 013F;
},
{
glyphname = Lslash;
layers = (
{
layerId = master01;
paths = (
{
closed = 1;
nodes = (
"1178 430 LINE",
"1158 430 LINE",
"880 72 LINE",
"478 72 LINE",
"478 652 LINE",
"740 728 LINE",
"740 856 LINE",
"478 778 LINE",
"478 1160 LINE",
"630 1370 LINE",
"98 1370 LINE",
"218 1162 LINE",
"218 702 LINE",
"20 644 LINE",
"20 520 LINE",
"218 578 LINE",
"218 212 LINE",
"98 0 LINE",
"1156 0 LINE"
);
}
);
width = 1248;
},
{
layerId = "F16CA8CE-DA8C-4EBD-81D6-AE00C3431B7F";
paths = (
{
closed = 1;
nodes = (
"1178 430 LINE",
"1158 430 LINE",
"880 72 LINE",
"478 72 LINE",
"478 652 LINE",
"740 728 LINE",
"740 856 LINE",
"478 778 LINE",
"478 1160 LINE",
"630 1370 LINE",
"98 1370 LINE",
"218 1162 LINE",
"218 702 LINE",
"20 644 LINE",
"20 520 LINE",
"218 578 LINE",
"218 212 LINE",
"98 0 LINE",
"1156 0 LINE"
);
}
);
width = 1248;
},
{
layerId = "02ADBE8D-B3BB-4EC7-92FE-8DBAAB138109";
paths = (
{
closed = 1;
nodes = (
"1178 430 LINE",
"1158 430 LINE",
"880 72 LINE",
"478 72 LINE",
"478 652 LINE",
"740 728 LINE",
"740 856 LINE",
"478 778 LINE",
"478 1160 LINE",
"630 1370 LINE",
"98 1370 LINE",
"218 1162 LINE",
"218 702 LINE",
"20 644 LINE",
"20 520 LINE",
"218 578 LINE",
"218 212 LINE",
"98 0 LINE",
"1156 0 LINE"
);
}
);
width = 1248;
}
);
unicode = 0141;
},
{
color = 4;
glyphname = M;
layers = (
{
layerId = master01;
paths = (
{
closed = 1;
nodes = (
"1542 4 OFFCURVE",
"1720 -6 OFFCURVE",
"1756 2 OFFCURVE",
"1740 46 OFFCURVE",
"1674 110 OFFCURVE",
"1616 214 OFFCURVE",
"1604 650 OFFCURVE",
"1616 1180 OFFCURVE",
"1620 1218 OFFCURVE",
"1676 1292 OFFCURVE",
"1740 1338 OFFCURVE",
"1738 1374 OFFCURVE",
"1710 1376 OFFCURVE",
"1602 1366 OFFCURVE",
"1536 1368 QCURVE SMOOTH",
"1492 1370 OFFCURVE",
"1362 1378 OFFCURVE",
"1332 1366 OFFCURVE",
"1316 1332 OFFCURVE",
"1156 924 OFFCURVE",
"936 414 OFFCURVE",
"912 388 OFFCURVE",
"888 418 OFFCURVE",
"660 884 OFFCURVE",
"456 1334 OFFCURVE",
"432 1372 OFFCURVE",
"394 1372 OFFCURVE",
"226 1364 OFFCURVE",
"72 1376 OFFCURVE",
"46 1368 OFFCURVE",
"60 1336 OFFCURVE",
"134 1270 OFFCURVE",
"202 1174 OFFCURVE",
"212 1142 OFFCURVE",
"218 744 OFFCURVE",
"212 224 OFFCURVE",
"212 180 OFFCURVE",
"160 104 OFFCURVE",
"82 34 OFFCURVE",
"64 6 OFFCURVE",
"82 -8 OFFCURVE",
"256 4 OFFCURVE",
"430 -8 OFFCURVE",
"460 -8 OFFCURVE",
"456 18 OFFCURVE",
"376 96 OFFCURVE",
"308 188 OFFCURVE",
"304 228 OFFCURVE",
"300 720 OFFCURVE",
"304 962 OFFCURVE",
"314 982 OFFCURVE",
"334 964 OFFCURVE",
"538 568 OFFCURVE",
"804 2 OFFCURVE",
"832 -30 OFFCURVE",
"858 6 OFFCURVE",
"1094 592 OFFCURVE",
"1334 1130 OFFCURVE",
"1350 1150 OFFCURVE",
"1362 1128 OFFCURVE",
"1360 664 OFFCURVE",
"1350 210 OFFCURVE",
"1292 116 OFFCURVE",
"1206 34 OFFCURVE",
"1196 -2 OFFCURVE",
"1232 -8 OFFCURVE",
"1408 4 OFFCURVE",
"1484 4 QCURVE SMOOTH"
);
}
);
userData = {
com.schriftgestaltung.Glyphs.lastChange = "2020-04-18 21:56:32 +0000";
};
width = 1832;
},
{
layerId = "F16CA8CE-DA8C-4EBD-81D6-AE00C3431B7F";
paths = (
{
closed = 1;
nodes = (
"1542 4 OFFCURVE",
"1720 -6 OFFCURVE",
"1756 2 OFFCURVE",
"1740 46 OFFCURVE",
"1674 110 OFFCURVE",
"1616 214 OFFCURVE",
"1604 650 OFFCURVE",
"1616 1180 OFFCURVE",
"1620 1218 OFFCURVE",
"1676 1292 OFFCURVE",
"1740 1338 OFFCURVE",
"1738 1374 OFFCURVE",
"1710 1376 OFFCURVE",
"1602 1366 OFFCURVE",
"1536 1368 QCURVE SMOOTH",
"1492 1370 OFFCURVE",
"1362 1378 OFFCURVE",
"1332 1366 OFFCURVE",
"1316 1332 OFFCURVE",
"1156 924 OFFCURVE",
"936 414 OFFCURVE",
"912 388 OFFCURVE",
"888 418 OFFCURVE",
"660 884 OFFCURVE",
"456 1334 OFFCURVE",
"432 1372 OFFCURVE",
"394 1372 OFFCURVE",
"226 1364 OFFCURVE",
"72 1376 OFFCURVE",
"46 1368 OFFCURVE",
"60 1336 OFFCURVE",
"134 1270 OFFCURVE",
"202 1174 OFFCURVE",
"212 1142 OFFCURVE",
"218 744 OFFCURVE",
"212 224 OFFCURVE",
"212 180 OFFCURVE",
"160 104 OFFCURVE",
"82 34 OFFCURVE",
"64 6 OFFCURVE",
"82 -8 OFFCURVE",
"256 4 OFFCURVE",
"430 -8 OFFCURVE",
"460 -8 OFFCURVE",
"456 18 OFFCURVE",
"376 96 OFFCURVE",
"308 188 OFFCURVE",
"304 228 OFFCURVE",
"300 720 OFFCURVE",
"304 962 OFFCURVE",
"314 982 OFFCURVE",
"334 964 OFFCURVE",
"538 568 OFFCURVE",
"804 2 OFFCURVE",
"832 -30 OFFCURVE",
"858 6 OFFCURVE",
"1094 592 OFFCURVE",
"1334 1130 OFFCURVE",
"1350 1150 OFFCURVE",
"1362 1128 OFFCURVE",
"1360 664 OFFCURVE",
"1350 210 OFFCURVE",
"1292 116 OFFCURVE",
"1206 34 OFFCURVE",
"1196 -2 OFFCURVE",
"1232 -8 OFFCURVE",
"1408 4 OFFCURVE",
"1484 4 QCURVE SMOOTH"
);
}
);
userData = {
com.schriftgestaltung.Glyphs.lastChange = "2020-04-18 21:56:32 +0000";
};
width = 1832;
},
{
layerId = "02ADBE8D-B3BB-4EC7-92FE-8DBAAB138109";
paths = (
{
closed = 1;
nodes = (
"1542 4 OFFCURVE",
"1720 -6 OFFCURVE",
"1756 2 OFFCURVE",
"1740 46 OFFCURVE",
"1674 110 OFFCURVE",
"1616 214 OFFCURVE",
"1604 650 OFFCURVE",
"1616 1180 OFFCURVE",
"1620 1218 OFFCURVE",
"1676 1292 OFFCURVE",
"1740 1338 OFFCURVE",
"1738 1374 OFFCURVE",
"1710 1376 OFFCURVE",
"1602 1366 OFFCURVE",
"1536 1368 QCURVE SMOOTH",
"1492 1370 OFFCURVE",
"1362 1378 OFFCURVE",
"1332 1366 OFFCURVE",
"1316 1332 OFFCURVE",
"1156 924 OFFCURVE",
"936 414 OFFCURVE",
"912 388 OFFCURVE",
"888 418 OFFCURVE",
"660 884 OFFCURVE",
"456 1334 OFFCURVE",
"432 1372 OFFCURVE",
"394 1372 OFFCURVE",
"226 1364 OFFCURVE",
"72 1376 OFFCURVE",
"46 1368 OFFCURVE",
"60 1336 OFFCURVE",
"134 1270 OFFCURVE",
"202 1174 OFFCURVE",
"212 1142 OFFCURVE",
"218 744 OFFCURVE",
"212 224 OFFCURVE",
"212 180 OFFCURVE",
"160 104 OFFCURVE",
"82 34 OFFCURVE",
"64 6 OFFCURVE",
"82 -8 OFFCURVE",
"256 4 OFFCURVE",
"430 -8 OFFCURVE",
"460 -8 OFFCURVE",
"456 18 OFFCURVE",
"376 96 OFFCURVE",
"308 188 OFFCURVE",
"304 228 OFFCURVE",
"300 720 OFFCURVE",
"304 962 OFFCURVE",
"314 982 OFFCURVE",
"334 964 OFFCURVE",
"538 568 OFFCURVE",
"804 2 OFFCURVE",
"832 -30 OFFCURVE",
"858 6 OFFCURVE",
"1094 592 OFFCURVE",
"1334 1130 OFFCURVE",
"1350 1150 OFFCURVE",
"1362 1128 OFFCURVE",
"1360 664 OFFCURVE",
"1350 210 OFFCURVE",
"1292 116 OFFCURVE",
"1206 34 OFFCURVE",
"1196 -2 OFFCURVE",
"1232 -8 OFFCURVE",
"1408 4 OFFCURVE",
"1484 4 QCURVE SMOOTH"
);
}
);
userData = {
com.schriftgestaltung.Glyphs.lastChange = "2020-04-18 21:56:32 +0000";
};
width = 1832;
}
);
unicode = 004D;
},
{
color = 4;
glyphname = N;
layers = (
{
layerId = master01;
paths = (
{
closed = 1;
nodes = (
"1292 136 OFFCURVE",
"1292 720 OFFCURVE",
"1296 1172 OFFCURVE",
"1304 1200 OFFCURVE",
"1368 1284 OFFCURVE",
"1440 1356 OFFCURVE",
"1450 1372 OFFCURVE",
"1424 1380 OFFCURVE",
"1276 1368 OFFCURVE",
"1240 1368 QCURVE SMOOTH",
"1208 1368 OFFCURVE",
"1056 1386 OFFCURVE",
"1034 1374 OFFCURVE",
"1040 1358 OFFCURVE",
"1132 1276 OFFCURVE",
"1188 1208 OFFCURVE",
"1200 1184 OFFCURVE",
"1204 708 OFFCURVE",
"1208 264 OFFCURVE",
"1192 240 OFFCURVE",
"1164 256 OFFCURVE",
"736 872 OFFCURVE",
"396 1344 OFFCURVE",
"380 1372 OFFCURVE",
"352 1372 OFFCURVE",
"224 1364 OFFCURVE",
"80 1380 OFFCURVE",
"60 1378 OFFCURVE",
"60 1352 OFFCURVE",
"156 1244 OFFCURVE",
"244 1112 OFFCURVE",
"244 1092 OFFCURVE",
"250 540 OFFCURVE",
"246 198 OFFCURVE",
"242 178 OFFCURVE",
"194 112 OFFCURVE",
"110 20 OFFCURVE",
"102 0 OFFCURVE",
"120 -8 OFFCURVE",
"250 0 OFFCURVE",
"296 0 QCURVE SMOOTH",
"336 0 OFFCURVE",
"484 -10 OFFCURVE",
"500 -4 OFFCURVE",
"500 14 OFFCURVE",
"418 82 OFFCURVE",
"348 164 OFFCURVE",
"336 186 OFFCURVE",
"330 520 OFFCURVE",
"332 952 OFFCURVE",
"340 962 OFFCURVE",
"354 956 OFFCURVE",
"688 532 OFFCURVE",
"1052 6 OFFCURVE",
"1080 -10 OFFCURVE",
"1232 4 OFFCURVE",
"1352 -10 OFFCURVE",
"1376 -6 OFFCURVE",
"1372 14 OFFCURVE",
"1336 52 OFFCURVE",
"1302 106 OFFCURVE"
);
}
);
userData = {
com.schriftgestaltung.Glyphs.lastChange = "2020-04-18 22:38:42 +0000";
};
width = 1512;
},
{
layerId = "F16CA8CE-DA8C-4EBD-81D6-AE00C3431B7F";
paths = (
{
closed = 1;
nodes = (
"1292 136 OFFCURVE",
"1292 720 OFFCURVE",
"1296 1172 OFFCURVE",
"1304 1200 OFFCURVE",
"1368 1284 OFFCURVE",
"1440 1356 OFFCURVE",
"1450 1372 OFFCURVE",
"1424 1380 OFFCURVE",
"1276 1368 OFFCURVE",
"1240 1368 QCURVE SMOOTH",
"1208 1368 OFFCURVE",
"1056 1386 OFFCURVE",
"1034 1374 OFFCURVE",
"1040 1358 OFFCURVE",
"1132 1276 OFFCURVE",
"1188 1208 OFFCURVE",
"1200 1184 OFFCURVE",
"1204 708 OFFCURVE",
"1208 264 OFFCURVE",
"1192 240 OFFCURVE",
"1164 256 OFFCURVE",
"736 872 OFFCURVE",
"396 1344 OFFCURVE",
"380 1372 OFFCURVE",
"352 1372 OFFCURVE",
"224 1364 OFFCURVE",
"80 1380 OFFCURVE",
"60 1378 OFFCURVE",
"60 1352 OFFCURVE",
"156 1244 OFFCURVE",
"244 1112 OFFCURVE",
"244 1092 OFFCURVE",
"250 540 OFFCURVE",
"246 198 OFFCURVE",
"242 178 OFFCURVE",
"194 112 OFFCURVE",
"110 20 OFFCURVE",
"102 0 OFFCURVE",
"120 -8 OFFCURVE",
"250 0 OFFCURVE",
"296 0 QCURVE SMOOTH",
"336 0 OFFCURVE",
"484 -10 OFFCURVE",
"500 -4 OFFCURVE",
"500 14 OFFCURVE",
"418 82 OFFCURVE",
"348 164 OFFCURVE",
"336 186 OFFCURVE",
"330 520 OFFCURVE",
"332 952 OFFCURVE",
"340 962 OFFCURVE",
"354 956 OFFCURVE",
"688 532 OFFCURVE",
"1052 6 OFFCURVE",
"1080 -10 OFFCURVE",
"1232 4 OFFCURVE",
"1352 -10 OFFCURVE",
"1376 -6 OFFCURVE",
"1372 14 OFFCURVE",
"1336 52 OFFCURVE",
"1302 106 OFFCURVE"
);
}
);
userData = {
com.schriftgestaltung.Glyphs.lastChange = "2020-04-18 22:38:42 +0000";
};
width = 1512;
},
{
layerId = "02ADBE8D-B3BB-4EC7-92FE-8DBAAB138109";
paths = (
{
closed = 1;
nodes = (
"1292 136 OFFCURVE",
"1292 720 OFFCURVE",
"1296 1172 OFFCURVE",
"1304 1200 OFFCURVE",
"1368 1284 OFFCURVE",
"1440 1356 OFFCURVE",
"1450 1372 OFFCURVE",
"1424 1380 OFFCURVE",
"1276 1368 OFFCURVE",
"1240 1368 QCURVE SMOOTH",
"1208 1368 OFFCURVE",
"1056 1386 OFFCURVE",
"1034 1374 OFFCURVE",
"1040 1358 OFFCURVE",
"1132 1276 OFFCURVE",
"1188 1208 OFFCURVE",
"1200 1184 OFFCURVE",
"1204 708 OFFCURVE",
"1208 264 OFFCURVE",
"1192 240 OFFCURVE",
"1164 256 OFFCURVE",
"736 872 OFFCURVE",
"396 1344 OFFCURVE",
"380 1372 OFFCURVE",
"352 1372 OFFCURVE",
"224 1364 OFFCURVE",
"80 1380 OFFCURVE",
"60 1378 OFFCURVE",
"60 1352 OFFCURVE",
"156 1244 OFFCURVE",
"244 1112 OFFCURVE",
"244 1092 OFFCURVE",
"250 540 OFFCURVE",
"246 198 OFFCURVE",
"242 178 OFFCURVE",
"194 112 OFFCURVE",
"110 20 OFFCURVE",
"102 0 OFFCURVE",
"120 -8 OFFCURVE",
"250 0 OFFCURVE",
"296 0 QCURVE SMOOTH",
"336 0 OFFCURVE",
"484 -10 OFFCURVE",
"500 -4 OFFCURVE",
"500 14 OFFCURVE",
"418 82 OFFCURVE",
"348 164 OFFCURVE",
"336 186 OFFCURVE",
"330 520 OFFCURVE",
"332 952 OFFCURVE",
"340 962 OFFCURVE",
"354 956 OFFCURVE",
"688 532 OFFCURVE",
"1052 6 OFFCURVE",
"1080 -10 OFFCURVE",
"1232 4 OFFCURVE",
"1352 -10 OFFCURVE",
"1376 -6 OFFCURVE",
"1372 14 OFFCURVE",
"1336 52 OFFCURVE",
"1302 106 OFFCURVE"
);
}
);
userData = {
com.schriftgestaltung.Glyphs.lastChange = "2020-04-18 22:38:42 +0000";
};
width = 1512;
}
);
unicode = 004E;
},
{
glyphname = Nacute;
layers = (
{
layerId = master01;
paths = (
{
closed = 1;
nodes = (
"980 1738 LINE",
"718 1738 LINE",
"692 1480 LINE",
"722 1480 LINE"
);
},
{
closed = 1;
nodes = (
"1070 0 LINE",
"1380 0 LINE",
"1294 116 LINE",
"1294 1184 LINE",
"1442 1370 LINE",
"1014 1370 LINE",
"1186 1198 LINE",
"1186 260 LINE",
"356 1370 LINE",
"26 1370 LINE",
"220 1116 LINE",
"220 186 LINE",
"72 0 LINE",
"500 0 LINE",
"328 172 LINE",
"328 974 LINE"
);
}
);
width = 1512;
},
{
layerId = "F16CA8CE-DA8C-4EBD-81D6-AE00C3431B7F";
paths = (
{
closed = 1;
nodes = (
"980 1738 LINE",
"718 1738 LINE",
"692 1480 LINE",
"722 1480 LINE"
);
},
{
closed = 1;
nodes = (
"1070 0 LINE",
"1380 0 LINE",
"1294 116 LINE",
"1294 1184 LINE",
"1442 1370 LINE",
"1014 1370 LINE",
"1186 1198 LINE",
"1186 260 LINE",
"356 1370 LINE",
"26 1370 LINE",
"220 1116 LINE",
"220 186 LINE",
"72 0 LINE",
"500 0 LINE",
"328 172 LINE",
"328 974 LINE"
);
}
);
width = 1512;
},
{
layerId = "02ADBE8D-B3BB-4EC7-92FE-8DBAAB138109";
paths = (
{
closed = 1;
nodes = (
"980 1738 LINE",
"718 1738 LINE",
"692 1480 LINE",
"722 1480 LINE"
);
},
{
closed = 1;
nodes = (
"1070 0 LINE",
"1380 0 LINE",
"1294 116 LINE",
"1294 1184 LINE",
"1442 1370 LINE",
"1014 1370 LINE",
"1186 1198 LINE",
"1186 260 LINE",
"356 1370 LINE",
"26 1370 LINE",
"220 1116 LINE",
"220 186 LINE",
"72 0 LINE",
"500 0 LINE",
"328 172 LINE",
"328 974 LINE"
);
}
);
width = 1512;
}
);
unicode = 0143;
},
{
glyphname = Ncaron;
layers = (
{
layerId = master01;
paths = (
{
closed = 1;
nodes = (
"582 1738 LINE",
"552 1738 LINE",
"676 1480 LINE",
"842 1480 LINE",
"968 1738 LINE",
"938 1738 LINE",
"760 1598 LINE"
);
},
{
closed = 1;
nodes = (
"1070 0 LINE",
"1380 0 LINE",
"1294 116 LINE",
"1294 1184 LINE",
"1442 1370 LINE",
"1014 1370 LINE",
"1186 1198 LINE",
"1186 260 LINE",
"356 1370 LINE",
"26 1370 LINE",
"220 1116 LINE",
"220 186 LINE",
"72 0 LINE",
"500 0 LINE",
"328 172 LINE",
"328 974 LINE"
);
}
);
width = 1512;
},
{
layerId = "F16CA8CE-DA8C-4EBD-81D6-AE00C3431B7F";
paths = (
{
closed = 1;
nodes = (
"582 1738 LINE",
"552 1738 LINE",
"676 1480 LINE",
"842 1480 LINE",
"968 1738 LINE",
"938 1738 LINE",
"760 1598 LINE"
);
},
{
closed = 1;
nodes = (
"1070 0 LINE",
"1380 0 LINE",
"1294 116 LINE",
"1294 1184 LINE",
"1442 1370 LINE",
"1014 1370 LINE",
"1186 1198 LINE",
"1186 260 LINE",
"356 1370 LINE",
"26 1370 LINE",
"220 1116 LINE",
"220 186 LINE",
"72 0 LINE",
"500 0 LINE",
"328 172 LINE",
"328 974 LINE"
);
}
);
width = 1512;
},
{
layerId = "02ADBE8D-B3BB-4EC7-92FE-8DBAAB138109";
paths = (
{
closed = 1;
nodes = (
"582 1738 LINE",
"552 1738 LINE",
"676 1480 LINE",
"842 1480 LINE",
"968 1738 LINE",
"938 1738 LINE",
"760 1598 LINE"
);
},
{
closed = 1;
nodes = (
"1070 0 LINE",
"1380 0 LINE",
"1294 116 LINE",
"1294 1184 LINE",
"1442 1370 LINE",
"1014 1370 LINE",
"1186 1198 LINE",
"1186 260 LINE",
"356 1370 LINE",
"26 1370 LINE",
"220 1116 LINE",
"220 186 LINE",
"72 0 LINE",
"500 0 LINE",
"328 172 LINE",
"328 974 LINE"
);
}
);
width = 1512;
}
);
unicode = 0147;
},
{
glyphname = Ntilde;
layers = (
{
layerId = master01;
paths = (
{
closed = 1;
nodes = (
"992 1684 LINE",
"962 1646 OFFCURVE",
"934 1616 OFFCURVE",
"904 1616 CURVE SMOOTH",
"812 1616 OFFCURVE",
"706 1630 OFFCURVE",
"614 1638 CURVE",
"488 1424 LINE",
"516 1406 LINE",
"542 1450 OFFCURVE",
"570 1492 OFFCURVE",
"596 1492 CURVE SMOOTH",
"694 1492 OFFCURVE",
"806 1478 OFFCURVE",
"904 1470 CURVE",
"1022 1672 LINE"
);
},
{
closed = 1;
nodes = (
"1294 1184 LINE",
"1442 1370 LINE",
"1026 1370 LINE",
"1198 1198 LINE",
"1198 228 LINE",
"378 1370 LINE",
"48 1370 LINE",
"242 1116 LINE",
"242 186 LINE",
"94 0 LINE",
"506 0 LINE",
"336 172 LINE",
"336 978 LINE",
"1070 0 LINE",
"1380 0 LINE",
"1294 116 LINE"
);
}
);
width = 1512;
},
{
layerId = "F16CA8CE-DA8C-4EBD-81D6-AE00C3431B7F";
paths = (
{
closed = 1;
nodes = (
"992 1684 LINE",
"962 1646 OFFCURVE",
"934 1616 OFFCURVE",
"904 1616 CURVE SMOOTH",
"812 1616 OFFCURVE",
"706 1630 OFFCURVE",
"614 1638 CURVE",
"488 1424 LINE",
"516 1406 LINE",
"542 1450 OFFCURVE",
"570 1492 OFFCURVE",
"596 1492 CURVE SMOOTH",
"694 1492 OFFCURVE",
"806 1478 OFFCURVE",
"904 1470 CURVE",
"1022 1672 LINE"
);
},
{
closed = 1;
nodes = (
"1294 1184 LINE",
"1442 1370 LINE",
"1026 1370 LINE",
"1198 1198 LINE",
"1198 228 LINE",
"378 1370 LINE",
"48 1370 LINE",
"242 1116 LINE",
"242 186 LINE",
"94 0 LINE",
"506 0 LINE",
"336 172 LINE",
"336 978 LINE",
"1070 0 LINE",
"1380 0 LINE",
"1294 116 LINE"
);
}
);
width = 1512;
},
{
layerId = "02ADBE8D-B3BB-4EC7-92FE-8DBAAB138109";
paths = (
{
closed = 1;
nodes = (
"992 1684 LINE",
"962 1646 OFFCURVE",
"934 1616 OFFCURVE",
"904 1616 CURVE SMOOTH",
"812 1616 OFFCURVE",
"706 1630 OFFCURVE",
"614 1638 CURVE",
"488 1424 LINE",
"516 1406 LINE",
"542 1450 OFFCURVE",
"570 1492 OFFCURVE",
"596 1492 CURVE SMOOTH",
"694 1492 OFFCURVE",
"806 1478 OFFCURVE",
"904 1470 CURVE",
"1022 1672 LINE"
);
},
{
closed = 1;
nodes = (
"1294 1184 LINE",
"1442 1370 LINE",
"1026 1370 LINE",
"1198 1198 LINE",
"1198 228 LINE",
"378 1370 LINE",
"48 1370 LINE",
"242 1116 LINE",
"242 186 LINE",
"94 0 LINE",
"506 0 LINE",
"336 172 LINE",
"336 978 LINE",
"1070 0 LINE",
"1380 0 LINE",
"1294 116 LINE"
);
}
);
width = 1512;
}
);
unicode = 00D1;
},
{
color = 4;
glyphname = O;
layers = (
{
layerId = master01;
paths = (
{
closed = 1;
nodes = (
"994 -24 OFFCURVE",
"1406 400 OFFCURVE",
"1406 1002 OFFCURVE",
"1086 1396 OFFCURVE",
"814 1396 QCURVE SMOOTH",
"474 1396 OFFCURVE",
"70 948 OFFCURVE",
"70 382 OFFCURVE",
"390 -24 OFFCURVE",
"662 -24 QCURVE SMOOTH"
);
},
{
closed = 1;
nodes = (
"626 60 OFFCURVE",
"358 496 OFFCURVE",
"358 1034 OFFCURVE",
"494 1310 OFFCURVE",
"672 1310 QCURVE SMOOTH",
"876 1310 OFFCURVE",
"1126 832 OFFCURVE",
"1126 306 OFFCURVE",
"942 60 OFFCURVE",
"804 60 QCURVE SMOOTH"
);
}
);
userData = {
com.schriftgestaltung.Glyphs.lastChange = "2020-04-18 22:29:15 +0000";
};
width = 1476;
},
{
layerId = "F16CA8CE-DA8C-4EBD-81D6-AE00C3431B7F";
paths = (
{
closed = 1;
nodes = (
"994 -24 OFFCURVE",
"1406 400 OFFCURVE",
"1406 1002 OFFCURVE",
"1086 1396 OFFCURVE",
"814 1396 QCURVE SMOOTH",
"474 1396 OFFCURVE",
"70 948 OFFCURVE",
"70 382 OFFCURVE",
"390 -24 OFFCURVE",
"662 -24 QCURVE SMOOTH"
);
},
{
closed = 1;
nodes = (
"626 60 OFFCURVE",
"358 496 OFFCURVE",
"358 1034 OFFCURVE",
"494 1310 OFFCURVE",
"672 1310 QCURVE SMOOTH",
"876 1310 OFFCURVE",
"1126 832 OFFCURVE",
"1126 306 OFFCURVE",
"942 60 OFFCURVE",
"804 60 QCURVE SMOOTH"
);
}
);
userData = {
com.schriftgestaltung.Glyphs.lastChange = "2020-04-18 22:29:15 +0000";
};
width = 1476;
},
{
layerId = "02ADBE8D-B3BB-4EC7-92FE-8DBAAB138109";
paths = (
{
closed = 1;
nodes = (
"994 -24 OFFCURVE",
"1406 400 OFFCURVE",
"1406 1002 OFFCURVE",
"1086 1396 OFFCURVE",
"814 1396 QCURVE SMOOTH",
"474 1396 OFFCURVE",
"70 948 OFFCURVE",
"70 382 OFFCURVE",
"390 -24 OFFCURVE",
"662 -24 QCURVE SMOOTH"
);
},
{
closed = 1;
nodes = (
"626 60 OFFCURVE",
"358 496 OFFCURVE",
"358 1034 OFFCURVE",
"494 1310 OFFCURVE",
"672 1310 QCURVE SMOOTH",
"876 1310 OFFCURVE",
"1126 832 OFFCURVE",
"1126 306 OFFCURVE",
"942 60 OFFCURVE",
"804 60 QCURVE SMOOTH"
);
}
);
userData = {
com.schriftgestaltung.Glyphs.lastChange = "2020-04-18 22:29:15 +0000";
};
width = 1476;
}
);
unicode = 004F;
},
{
glyphname = Oacute;
layers = (
{
layerId = master01;
paths = (
{
closed = 1;
nodes = (
"950 1738 LINE",
"688 1738 LINE",
"662 1480 LINE",
"692 1480 LINE"
);
},
{
closed = 1;
nodes = (
"1406 1072 OFFCURVE",
"1182 1396 OFFCURVE",
"814 1396 CURVE SMOOTH",
"326 1396 OFFCURVE",
"70 1028 OFFCURVE",
"70 626 CURVE SMOOTH",
"70 300 OFFCURVE",
"294 -24 OFFCURVE",
"662 -24 CURVE SMOOTH",
"1150 -24 OFFCURVE",
"1406 344 OFFCURVE",
"1406 746 CURVE SMOOTH"
);
},
{
closed = 1;
nodes = (
"956 1310 OFFCURVE",
"1126 916 OFFCURVE",
"1126 504 CURVE SMOOTH",
"1126 346 OFFCURVE",
"1044 60 OFFCURVE",
"804 60 CURVE SMOOTH",
"520 60 OFFCURVE",
"354 456 OFFCURVE",
"354 868 CURVE SMOOTH",
"354 1026 OFFCURVE",
"402 1310 OFFCURVE",
"672 1310 CURVE SMOOTH"
);
}
);
width = 1476;
},
{
layerId = "F16CA8CE-DA8C-4EBD-81D6-AE00C3431B7F";
paths = (
{
closed = 1;
nodes = (
"950 1738 LINE",
"688 1738 LINE",
"662 1480 LINE",
"692 1480 LINE"
);
},
{
closed = 1;
nodes = (
"1406 1072 OFFCURVE",
"1182 1396 OFFCURVE",
"814 1396 CURVE SMOOTH",
"326 1396 OFFCURVE",
"70 1028 OFFCURVE",
"70 626 CURVE SMOOTH",
"70 300 OFFCURVE",
"294 -24 OFFCURVE",
"662 -24 CURVE SMOOTH",
"1150 -24 OFFCURVE",
"1406 344 OFFCURVE",
"1406 746 CURVE SMOOTH"
);
},
{
closed = 1;
nodes = (
"956 1310 OFFCURVE",
"1126 916 OFFCURVE",
"1126 504 CURVE SMOOTH",
"1126 346 OFFCURVE",
"1044 60 OFFCURVE",
"804 60 CURVE SMOOTH",
"520 60 OFFCURVE",
"354 456 OFFCURVE",
"354 868 CURVE SMOOTH",
"354 1026 OFFCURVE",
"402 1310 OFFCURVE",
"672 1310 CURVE SMOOTH"
);
}
);
width = 1476;
},
{
layerId = "02ADBE8D-B3BB-4EC7-92FE-8DBAAB138109";
paths = (
{
closed = 1;
nodes = (
"950 1738 LINE",
"688 1738 LINE",
"662 1480 LINE",
"692 1480 LINE"
);
},
{
closed = 1;
nodes = (
"1406 1072 OFFCURVE",
"1182 1396 OFFCURVE",
"814 1396 CURVE SMOOTH",
"326 1396 OFFCURVE",
"70 1028 OFFCURVE",
"70 626 CURVE SMOOTH",
"70 300 OFFCURVE",
"294 -24 OFFCURVE",
"662 -24 CURVE SMOOTH",
"1150 -24 OFFCURVE",
"1406 344 OFFCURVE",
"1406 746 CURVE SMOOTH"
);
},
{
closed = 1;
nodes = (
"956 1310 OFFCURVE",
"1126 916 OFFCURVE",
"1126 504 CURVE SMOOTH",
"1126 346 OFFCURVE",
"1044 60 OFFCURVE",
"804 60 CURVE SMOOTH",
"520 60 OFFCURVE",
"354 456 OFFCURVE",
"354 868 CURVE SMOOTH",
"354 1026 OFFCURVE",
"402 1310 OFFCURVE",
"672 1310 CURVE SMOOTH"
);
}
);
width = 1476;
}
);
unicode = 00D3;
},
{
glyphname = Ocircumflex;
layers = (
{
layerId = master01;
paths = (
{
closed = 1;
nodes = (
"556 1480 LINE",
"734 1620 LINE",
"912 1480 LINE",
"942 1480 LINE",
"816 1738 LINE",
"650 1738 LINE",
"526 1480 LINE"
);
},
{
closed = 1;
nodes = (
"1406 1072 OFFCURVE",
"1182 1396 OFFCURVE",
"814 1396 CURVE SMOOTH",
"326 1396 OFFCURVE",
"70 1028 OFFCURVE",
"70 626 CURVE SMOOTH",
"70 300 OFFCURVE",
"294 -24 OFFCURVE",
"662 -24 CURVE SMOOTH",
"1150 -24 OFFCURVE",
"1406 344 OFFCURVE",
"1406 746 CURVE SMOOTH"
);
},
{
closed = 1;
nodes = (
"956 1310 OFFCURVE",
"1126 916 OFFCURVE",
"1126 504 CURVE SMOOTH",
"1126 346 OFFCURVE",
"1044 60 OFFCURVE",
"804 60 CURVE SMOOTH",
"520 60 OFFCURVE",
"354 456 OFFCURVE",
"354 868 CURVE SMOOTH",
"354 1026 OFFCURVE",
"402 1310 OFFCURVE",
"672 1310 CURVE SMOOTH"
);
}
);
width = 1476;
},
{
layerId = "F16CA8CE-DA8C-4EBD-81D6-AE00C3431B7F";
paths = (
{
closed = 1;
nodes = (
"556 1480 LINE",
"734 1620 LINE",
"912 1480 LINE",
"942 1480 LINE",
"816 1738 LINE",
"650 1738 LINE",
"526 1480 LINE"
);
},
{
closed = 1;
nodes = (
"1406 1072 OFFCURVE",
"1182 1396 OFFCURVE",
"814 1396 CURVE SMOOTH",
"326 1396 OFFCURVE",
"70 1028 OFFCURVE",
"70 626 CURVE SMOOTH",
"70 300 OFFCURVE",
"294 -24 OFFCURVE",
"662 -24 CURVE SMOOTH",
"1150 -24 OFFCURVE",
"1406 344 OFFCURVE",
"1406 746 CURVE SMOOTH"
);
},
{
closed = 1;
nodes = (
"956 1310 OFFCURVE",
"1126 916 OFFCURVE",
"1126 504 CURVE SMOOTH",
"1126 346 OFFCURVE",
"1044 60 OFFCURVE",
"804 60 CURVE SMOOTH",
"520 60 OFFCURVE",
"354 456 OFFCURVE",
"354 868 CURVE SMOOTH",
"354 1026 OFFCURVE",
"402 1310 OFFCURVE",
"672 1310 CURVE SMOOTH"
);
}
);
width = 1476;
},
{
layerId = "02ADBE8D-B3BB-4EC7-92FE-8DBAAB138109";
paths = (
{
closed = 1;
nodes = (
"556 1480 LINE",
"734 1620 LINE",
"912 1480 LINE",
"942 1480 LINE",
"816 1738 LINE",
"650 1738 LINE",
"526 1480 LINE"
);
},
{
closed = 1;
nodes = (
"1406 1072 OFFCURVE",
"1182 1396 OFFCURVE",
"814 1396 CURVE SMOOTH",
"326 1396 OFFCURVE",
"70 1028 OFFCURVE",
"70 626 CURVE SMOOTH",
"70 300 OFFCURVE",
"294 -24 OFFCURVE",
"662 -24 CURVE SMOOTH",
"1150 -24 OFFCURVE",
"1406 344 OFFCURVE",
"1406 746 CURVE SMOOTH"
);
},
{
closed = 1;
nodes = (
"956 1310 OFFCURVE",
"1126 916 OFFCURVE",
"1126 504 CURVE SMOOTH",
"1126 346 OFFCURVE",
"1044 60 OFFCURVE",
"804 60 CURVE SMOOTH",
"520 60 OFFCURVE",
"354 456 OFFCURVE",
"354 868 CURVE SMOOTH",
"354 1026 OFFCURVE",
"402 1310 OFFCURVE",
"672 1310 CURVE SMOOTH"
);
}
);
width = 1476;
}
);
unicode = 00D4;
},
{
glyphname = Odieresis;
layers = (
{
layerId = master01;
paths = (
{
closed = 1;
nodes = (
"498 1480 LINE",
"650 1656 LINE",
"498 1830 LINE",
"342 1656 LINE"
);
},
{
closed = 1;
nodes = (
"966 1480 LINE",
"1118 1656 LINE",
"966 1830 LINE",
"810 1656 LINE"
);
},
{
closed = 1;
nodes = (
"1406 1072 OFFCURVE",
"1182 1396 OFFCURVE",
"814 1396 CURVE SMOOTH",
"326 1396 OFFCURVE",
"70 1028 OFFCURVE",
"70 626 CURVE SMOOTH",
"70 300 OFFCURVE",
"294 -24 OFFCURVE",
"662 -24 CURVE SMOOTH",
"1150 -24 OFFCURVE",
"1406 344 OFFCURVE",
"1406 746 CURVE SMOOTH"
);
},
{
closed = 1;
nodes = (
"956 1310 OFFCURVE",
"1126 916 OFFCURVE",
"1126 504 CURVE SMOOTH",
"1126 346 OFFCURVE",
"1044 60 OFFCURVE",
"804 60 CURVE SMOOTH",
"520 60 OFFCURVE",
"354 456 OFFCURVE",
"354 868 CURVE SMOOTH",
"354 1026 OFFCURVE",
"402 1310 OFFCURVE",
"672 1310 CURVE SMOOTH"
);
}
);
width = 1476;
},
{
layerId = "F16CA8CE-DA8C-4EBD-81D6-AE00C3431B7F";
paths = (
{
closed = 1;
nodes = (
"498 1480 LINE",
"650 1656 LINE",
"498 1830 LINE",
"342 1656 LINE"
);
},
{
closed = 1;
nodes = (
"966 1480 LINE",
"1118 1656 LINE",
"966 1830 LINE",
"810 1656 LINE"
);
},
{
closed = 1;
nodes = (
"1406 1072 OFFCURVE",
"1182 1396 OFFCURVE",
"814 1396 CURVE SMOOTH",
"326 1396 OFFCURVE",
"70 1028 OFFCURVE",
"70 626 CURVE SMOOTH",
"70 300 OFFCURVE",
"294 -24 OFFCURVE",
"662 -24 CURVE SMOOTH",
"1150 -24 OFFCURVE",
"1406 344 OFFCURVE",
"1406 746 CURVE SMOOTH"
);
},
{
closed = 1;
nodes = (
"956 1310 OFFCURVE",
"1126 916 OFFCURVE",
"1126 504 CURVE SMOOTH",
"1126 346 OFFCURVE",
"1044 60 OFFCURVE",
"804 60 CURVE SMOOTH",
"520 60 OFFCURVE",
"354 456 OFFCURVE",
"354 868 CURVE SMOOTH",
"354 1026 OFFCURVE",
"402 1310 OFFCURVE",
"672 1310 CURVE SMOOTH"
);
}
);
width = 1476;
},
{
layerId = "02ADBE8D-B3BB-4EC7-92FE-8DBAAB138109";
paths = (
{
closed = 1;
nodes = (
"498 1480 LINE",
"650 1656 LINE",
"498 1830 LINE",
"342 1656 LINE"
);
},
{
closed = 1;
nodes = (
"966 1480 LINE",
"1118 1656 LINE",
"966 1830 LINE",
"810 1656 LINE"
);
},
{
closed = 1;
nodes = (
"1406 1072 OFFCURVE",
"1182 1396 OFFCURVE",
"814 1396 CURVE SMOOTH",
"326 1396 OFFCURVE",
"70 1028 OFFCURVE",
"70 626 CURVE SMOOTH",
"70 300 OFFCURVE",
"294 -24 OFFCURVE",
"662 -24 CURVE SMOOTH",
"1150 -24 OFFCURVE",
"1406 344 OFFCURVE",
"1406 746 CURVE SMOOTH"
);
},
{
closed = 1;
nodes = (
"956 1310 OFFCURVE",
"1126 916 OFFCURVE",
"1126 504 CURVE SMOOTH",
"1126 346 OFFCURVE",
"1044 60 OFFCURVE",
"804 60 CURVE SMOOTH",
"520 60 OFFCURVE",
"354 456 OFFCURVE",
"354 868 CURVE SMOOTH",
"354 1026 OFFCURVE",
"402 1310 OFFCURVE",
"672 1310 CURVE SMOOTH"
);
}
);
width = 1476;
}
);
unicode = 00D6;
},
{
glyphname = Ograve;
layers = (
{
layerId = master01;
paths = (
{
closed = 1;
nodes = (
"704 1480 LINE",
"678 1738 LINE",
"416 1738 LINE",
"674 1480 LINE"
);
},
{
closed = 1;
nodes = (
"1406 1072 OFFCURVE",
"1182 1396 OFFCURVE",
"814 1396 CURVE SMOOTH",
"326 1396 OFFCURVE",
"70 1028 OFFCURVE",
"70 626 CURVE SMOOTH",
"70 300 OFFCURVE",
"294 -24 OFFCURVE",
"662 -24 CURVE SMOOTH",
"1150 -24 OFFCURVE",
"1406 344 OFFCURVE",
"1406 746 CURVE SMOOTH"
);
},
{
closed = 1;
nodes = (
"956 1310 OFFCURVE",
"1126 916 OFFCURVE",
"1126 504 CURVE SMOOTH",
"1126 346 OFFCURVE",
"1044 60 OFFCURVE",
"804 60 CURVE SMOOTH",
"520 60 OFFCURVE",
"354 456 OFFCURVE",
"354 868 CURVE SMOOTH",
"354 1026 OFFCURVE",
"402 1310 OFFCURVE",
"672 1310 CURVE SMOOTH"
);
}
);
width = 1476;
},
{
layerId = "F16CA8CE-DA8C-4EBD-81D6-AE00C3431B7F";
paths = (
{
closed = 1;
nodes = (
"704 1480 LINE",
"678 1738 LINE",
"416 1738 LINE",
"674 1480 LINE"
);
},
{
closed = 1;
nodes = (
"1406 1072 OFFCURVE",
"1182 1396 OFFCURVE",
"814 1396 CURVE SMOOTH",
"326 1396 OFFCURVE",
"70 1028 OFFCURVE",
"70 626 CURVE SMOOTH",
"70 300 OFFCURVE",
"294 -24 OFFCURVE",
"662 -24 CURVE SMOOTH",
"1150 -24 OFFCURVE",
"1406 344 OFFCURVE",
"1406 746 CURVE SMOOTH"
);
},
{
closed = 1;
nodes = (
"956 1310 OFFCURVE",
"1126 916 OFFCURVE",
"1126 504 CURVE SMOOTH",
"1126 346 OFFCURVE",
"1044 60 OFFCURVE",
"804 60 CURVE SMOOTH",
"520 60 OFFCURVE",
"354 456 OFFCURVE",
"354 868 CURVE SMOOTH",
"354 1026 OFFCURVE",
"402 1310 OFFCURVE",
"672 1310 CURVE SMOOTH"
);
}
);
width = 1476;
},
{
layerId = "02ADBE8D-B3BB-4EC7-92FE-8DBAAB138109";
paths = (
{
closed = 1;
nodes = (
"704 1480 LINE",
"678 1738 LINE",
"416 1738 LINE",
"674 1480 LINE"
);
},
{
closed = 1;
nodes = (
"1406 1072 OFFCURVE",
"1182 1396 OFFCURVE",
"814 1396 CURVE SMOOTH",
"326 1396 OFFCURVE",
"70 1028 OFFCURVE",
"70 626 CURVE SMOOTH",
"70 300 OFFCURVE",
"294 -24 OFFCURVE",
"662 -24 CURVE SMOOTH",
"1150 -24 OFFCURVE",
"1406 344 OFFCURVE",
"1406 746 CURVE SMOOTH"
);
},
{
closed = 1;
nodes = (
"956 1310 OFFCURVE",
"1126 916 OFFCURVE",
"1126 504 CURVE SMOOTH",
"1126 346 OFFCURVE",
"1044 60 OFFCURVE",
"804 60 CURVE SMOOTH",
"520 60 OFFCURVE",
"354 456 OFFCURVE",
"354 868 CURVE SMOOTH",
"354 1026 OFFCURVE",
"402 1310 OFFCURVE",
"672 1310 CURVE SMOOTH"
);
}
);
width = 1476;
}
);
unicode = 00D2;
},
{
glyphname = Oslash;
layers = (
{
layerId = master01;
paths = (
{
closed = 1;
nodes = (
"1310 1380 LINE",
"1202 1260 LINE",
"1106 1344 OFFCURVE",
"982 1396 OFFCURVE",
"834 1396 CURVE SMOOTH",
"346 1396 OFFCURVE",
"90 1028 OFFCURVE",
"90 626 CURVE SMOOTH",
"90 468 OFFCURVE",
"142 310 OFFCURVE",
"240 190 CURVE",
"60 -10 LINE",
"194 -10 LINE",
"308 116 LINE",
"404 30 OFFCURVE",
"532 -24 OFFCURVE",
"682 -24 CURVE SMOOTH",
"1170 -24 OFFCURVE",
"1426 344 OFFCURVE",
"1426 746 CURVE SMOOTH",
"1426 906 OFFCURVE",
"1372 1068 OFFCURVE",
"1272 1188 CURVE",
"1444 1380 LINE"
);
},
{
closed = 1;
nodes = (
"398 552 OFFCURVE",
"374 708 OFFCURVE",
"374 868 CURVE SMOOTH",
"374 1026 OFFCURVE",
"422 1310 OFFCURVE",
"692 1310 CURVE SMOOTH",
"834 1310 OFFCURVE",
"946 1212 OFFCURVE",
"1024 1062 CURVE",
"446 418 LINE"
);
},
{
closed = 1;
nodes = (
"1120 828 OFFCURVE",
"1146 668 OFFCURVE",
"1146 504 CURVE SMOOTH",
"1146 346 OFFCURVE",
"1064 60 OFFCURVE",
"824 60 CURVE SMOOTH",
"680 60 OFFCURVE",
"566 162 OFFCURVE",
"488 318 CURVE",
"1068 962 LINE"
);
}
);
width = 1504;
},
{
layerId = "F16CA8CE-DA8C-4EBD-81D6-AE00C3431B7F";
paths = (
{
closed = 1;
nodes = (
"1310 1380 LINE",
"1202 1260 LINE",
"1106 1344 OFFCURVE",
"982 1396 OFFCURVE",
"834 1396 CURVE SMOOTH",
"346 1396 OFFCURVE",
"90 1028 OFFCURVE",
"90 626 CURVE SMOOTH",
"90 468 OFFCURVE",
"142 310 OFFCURVE",
"240 190 CURVE",
"60 -10 LINE",
"194 -10 LINE",
"308 116 LINE",
"404 30 OFFCURVE",
"532 -24 OFFCURVE",
"682 -24 CURVE SMOOTH",
"1170 -24 OFFCURVE",
"1426 344 OFFCURVE",
"1426 746 CURVE SMOOTH",
"1426 906 OFFCURVE",
"1372 1068 OFFCURVE",
"1272 1188 CURVE",
"1444 1380 LINE"
);
},
{
closed = 1;
nodes = (
"398 552 OFFCURVE",
"374 708 OFFCURVE",
"374 868 CURVE SMOOTH",
"374 1026 OFFCURVE",
"422 1310 OFFCURVE",
"692 1310 CURVE SMOOTH",
"834 1310 OFFCURVE",
"946 1212 OFFCURVE",
"1024 1062 CURVE",
"446 418 LINE"
);
},
{
closed = 1;
nodes = (
"1120 828 OFFCURVE",
"1146 668 OFFCURVE",
"1146 504 CURVE SMOOTH",
"1146 346 OFFCURVE",
"1064 60 OFFCURVE",
"824 60 CURVE SMOOTH",
"680 60 OFFCURVE",
"566 162 OFFCURVE",
"488 318 CURVE",
"1068 962 LINE"
);
}
);
width = 1504;
},
{
layerId = "02ADBE8D-B3BB-4EC7-92FE-8DBAAB138109";
paths = (
{
closed = 1;
nodes = (
"1310 1380 LINE",
"1202 1260 LINE",
"1106 1344 OFFCURVE",
"982 1396 OFFCURVE",
"834 1396 CURVE SMOOTH",
"346 1396 OFFCURVE",
"90 1028 OFFCURVE",
"90 626 CURVE SMOOTH",
"90 468 OFFCURVE",
"142 310 OFFCURVE",
"240 190 CURVE",
"60 -10 LINE",
"194 -10 LINE",
"308 116 LINE",
"404 30 OFFCURVE",
"532 -24 OFFCURVE",
"682 -24 CURVE SMOOTH",
"1170 -24 OFFCURVE",
"1426 344 OFFCURVE",
"1426 746 CURVE SMOOTH",
"1426 906 OFFCURVE",
"1372 1068 OFFCURVE",
"1272 1188 CURVE",
"1444 1380 LINE"
);
},
{
closed = 1;
nodes = (
"398 552 OFFCURVE",
"374 708 OFFCURVE",
"374 868 CURVE SMOOTH",
"374 1026 OFFCURVE",
"422 1310 OFFCURVE",
"692 1310 CURVE SMOOTH",
"834 1310 OFFCURVE",
"946 1212 OFFCURVE",
"1024 1062 CURVE",
"446 418 LINE"
);
},
{
closed = 1;
nodes = (
"1120 828 OFFCURVE",
"1146 668 OFFCURVE",
"1146 504 CURVE SMOOTH",
"1146 346 OFFCURVE",
"1064 60 OFFCURVE",
"824 60 CURVE SMOOTH",
"680 60 OFFCURVE",
"566 162 OFFCURVE",
"488 318 CURVE",
"1068 962 LINE"
);
}
);
width = 1504;
}
);
unicode = 00D8;
},
{
glyphname = Otilde;
layers = (
{
layerId = master01;
paths = (
{
closed = 1;
nodes = (
"472 1460 LINE",
"498 1504 OFFCURVE",
"526 1546 OFFCURVE",
"552 1546 CURVE SMOOTH",
"650 1546 OFFCURVE",
"762 1532 OFFCURVE",
"860 1524 CURVE",
"978 1726 LINE",
"948 1738 LINE",
"918 1700 OFFCURVE",
"890 1670 OFFCURVE",
"860 1670 CURVE SMOOTH",
"768 1670 OFFCURVE",
"662 1684 OFFCURVE",
"570 1692 CURVE",
"444 1478 LINE"
);
},
{
closed = 1;
nodes = (
"1406 1072 OFFCURVE",
"1182 1396 OFFCURVE",
"814 1396 CURVE SMOOTH",
"326 1396 OFFCURVE",
"70 1028 OFFCURVE",
"70 626 CURVE SMOOTH",
"70 300 OFFCURVE",
"294 -24 OFFCURVE",
"662 -24 CURVE SMOOTH",
"1150 -24 OFFCURVE",
"1406 344 OFFCURVE",
"1406 746 CURVE SMOOTH"
);
},
{
closed = 1;
nodes = (
"956 1310 OFFCURVE",
"1126 916 OFFCURVE",
"1126 504 CURVE SMOOTH",
"1126 346 OFFCURVE",
"1044 60 OFFCURVE",
"804 60 CURVE SMOOTH",
"520 60 OFFCURVE",
"354 456 OFFCURVE",
"354 868 CURVE SMOOTH",
"354 1026 OFFCURVE",
"402 1310 OFFCURVE",
"672 1310 CURVE SMOOTH"
);
}
);
width = 1476;
},
{
layerId = "F16CA8CE-DA8C-4EBD-81D6-AE00C3431B7F";
paths = (
{
closed = 1;
nodes = (
"472 1460 LINE",
"498 1504 OFFCURVE",
"526 1546 OFFCURVE",
"552 1546 CURVE SMOOTH",
"650 1546 OFFCURVE",
"762 1532 OFFCURVE",
"860 1524 CURVE",
"978 1726 LINE",
"948 1738 LINE",
"918 1700 OFFCURVE",
"890 1670 OFFCURVE",
"860 1670 CURVE SMOOTH",
"768 1670 OFFCURVE",
"662 1684 OFFCURVE",
"570 1692 CURVE",
"444 1478 LINE"
);
},
{
closed = 1;
nodes = (
"1406 1072 OFFCURVE",
"1182 1396 OFFCURVE",
"814 1396 CURVE SMOOTH",
"326 1396 OFFCURVE",
"70 1028 OFFCURVE",
"70 626 CURVE SMOOTH",
"70 300 OFFCURVE",
"294 -24 OFFCURVE",
"662 -24 CURVE SMOOTH",
"1150 -24 OFFCURVE",
"1406 344 OFFCURVE",
"1406 746 CURVE SMOOTH"
);
},
{
closed = 1;
nodes = (
"956 1310 OFFCURVE",
"1126 916 OFFCURVE",
"1126 504 CURVE SMOOTH",
"1126 346 OFFCURVE",
"1044 60 OFFCURVE",
"804 60 CURVE SMOOTH",
"520 60 OFFCURVE",
"354 456 OFFCURVE",
"354 868 CURVE SMOOTH",
"354 1026 OFFCURVE",
"402 1310 OFFCURVE",
"672 1310 CURVE SMOOTH"
);
}
);
width = 1476;
},
{
layerId = "02ADBE8D-B3BB-4EC7-92FE-8DBAAB138109";
paths = (
{
closed = 1;
nodes = (
"472 1460 LINE",
"498 1504 OFFCURVE",
"526 1546 OFFCURVE",
"552 1546 CURVE SMOOTH",
"650 1546 OFFCURVE",
"762 1532 OFFCURVE",
"860 1524 CURVE",
"978 1726 LINE",
"948 1738 LINE",
"918 1700 OFFCURVE",
"890 1670 OFFCURVE",
"860 1670 CURVE SMOOTH",
"768 1670 OFFCURVE",
"662 1684 OFFCURVE",
"570 1692 CURVE",
"444 1478 LINE"
);
},
{
closed = 1;
nodes = (
"1406 1072 OFFCURVE",
"1182 1396 OFFCURVE",
"814 1396 CURVE SMOOTH",
"326 1396 OFFCURVE",
"70 1028 OFFCURVE",
"70 626 CURVE SMOOTH",
"70 300 OFFCURVE",
"294 -24 OFFCURVE",
"662 -24 CURVE SMOOTH",
"1150 -24 OFFCURVE",
"1406 344 OFFCURVE",
"1406 746 CURVE SMOOTH"
);
},
{
closed = 1;
nodes = (
"956 1310 OFFCURVE",
"1126 916 OFFCURVE",
"1126 504 CURVE SMOOTH",
"1126 346 OFFCURVE",
"1044 60 OFFCURVE",
"804 60 CURVE SMOOTH",
"520 60 OFFCURVE",
"354 456 OFFCURVE",
"354 868 CURVE SMOOTH",
"354 1026 OFFCURVE",
"402 1310 OFFCURVE",
"672 1310 CURVE SMOOTH"
);
}
);
width = 1476;
}
);
unicode = 00D5;
},
{
glyphname = OE;
layers = (
{
layerId = master01;
paths = (
{
closed = 1;
nodes = (
"1264 744 LINE",
"1264 1298 LINE",
"1604 1298 LINE",
"1824 962 LINE",
"1848 962 LINE",
"1848 1370 LINE",
"814 1370 LINE SMOOTH",
"326 1370 OFFCURVE",
"70 1028 OFFCURVE",
"70 626 CURVE SMOOTH",
"70 300 OFFCURVE",
"294 0 OFFCURVE",
"662 0 CURVE SMOOTH",
"1886 0 LINE",
"1908 422 LINE",
"1886 426 LINE",
"1622 72 LINE",
"1264 72 LINE",
"1264 664 LINE",
"1810 664 LINE",
"1810 744 LINE"
);
},
{
closed = 1;
nodes = (
"1002 72 LINE",
"804 72 LINE SMOOTH",
"520 72 OFFCURVE",
"354 400 OFFCURVE",
"354 792 CURVE SMOOTH",
"354 942 OFFCURVE",
"416 1296 OFFCURVE",
"756 1296 CURVE SMOOTH",
"1002 1296 LINE"
);
}
);
width = 1988;
},
{
layerId = "F16CA8CE-DA8C-4EBD-81D6-AE00C3431B7F";
paths = (
{
closed = 1;
nodes = (
"1264 744 LINE",
"1264 1298 LINE",
"1604 1298 LINE",
"1824 962 LINE",
"1848 962 LINE",
"1848 1370 LINE",
"814 1370 LINE SMOOTH",
"326 1370 OFFCURVE",
"70 1028 OFFCURVE",
"70 626 CURVE SMOOTH",
"70 300 OFFCURVE",
"294 0 OFFCURVE",
"662 0 CURVE SMOOTH",
"1886 0 LINE",
"1908 422 LINE",
"1886 426 LINE",
"1622 72 LINE",
"1264 72 LINE",
"1264 664 LINE",
"1810 664 LINE",
"1810 744 LINE"
);
},
{
closed = 1;
nodes = (
"1002 72 LINE",
"804 72 LINE SMOOTH",
"520 72 OFFCURVE",
"354 400 OFFCURVE",
"354 792 CURVE SMOOTH",
"354 942 OFFCURVE",
"416 1296 OFFCURVE",
"756 1296 CURVE SMOOTH",
"1002 1296 LINE"
);
}
);
width = 1988;
},
{
layerId = "02ADBE8D-B3BB-4EC7-92FE-8DBAAB138109";
paths = (
{
closed = 1;
nodes = (
"1264 744 LINE",
"1264 1298 LINE",
"1604 1298 LINE",
"1824 962 LINE",
"1848 962 LINE",
"1848 1370 LINE",
"814 1370 LINE SMOOTH",
"326 1370 OFFCURVE",
"70 1028 OFFCURVE",
"70 626 CURVE SMOOTH",
"70 300 OFFCURVE",
"294 0 OFFCURVE",
"662 0 CURVE SMOOTH",
"1886 0 LINE",
"1908 422 LINE",
"1886 426 LINE",
"1622 72 LINE",
"1264 72 LINE",
"1264 664 LINE",
"1810 664 LINE",
"1810 744 LINE"
);
},
{
closed = 1;
nodes = (
"1002 72 LINE",
"804 72 LINE SMOOTH",
"520 72 OFFCURVE",
"354 400 OFFCURVE",
"354 792 CURVE SMOOTH",
"354 942 OFFCURVE",
"416 1296 OFFCURVE",
"756 1296 CURVE SMOOTH",
"1002 1296 LINE"
);
}
);
width = 1988;
}
);
unicode = 0152;
},
{
color = 4;
glyphname = P;
layers = (
{
layerId = master01;
paths = (
{
closed = 1;
nodes = (
"502 0 OFFCURVE",
"632 -10 OFFCURVE",
"656 -10 OFFCURVE",
"664 12 OFFCURVE",
"564 102 OFFCURVE",
"506 174 OFFCURVE",
"496 202 OFFCURVE",
"480 412 OFFCURVE",
"484 540 OFFCURVE",
"488 564 OFFCURVE",
"508 580 OFFCURVE",
"824 600 OFFCURVE",
"1112 816 OFFCURVE",
"1116 1212 OFFCURVE",
"772 1370 OFFCURVE",
"560 1370 QCURVE SMOOTH",
"352 1370 OFFCURVE",
"144 1376 OFFCURVE",
"106 1364 OFFCURVE",
"102 1328 OFFCURVE",
"168 1264 OFFCURVE",
"220 1184 OFFCURVE",
"236 1148 OFFCURVE",
"244 764 OFFCURVE",
"240 220 OFFCURVE",
"224 190 OFFCURVE",
"184 120 OFFCURVE",
"92 24 OFFCURVE",
"84 0 OFFCURVE",
"116 -12 OFFCURVE",
"300 0 OFFCURVE",
"388 0 QCURVE SMOOTH"
);
},
{
closed = 1;
nodes = (
"484 1260 OFFCURVE",
"520 1304 OFFCURVE",
"644 1304 OFFCURVE",
"828 1236 OFFCURVE",
"832 1000 QCURVE SMOOTH",
"834 868 OFFCURVE",
"732 696 OFFCURVE",
"616 652 OFFCURVE",
"512 648 OFFCURVE",
"488 704 OFFCURVE",
"488 956 OFFCURVE",
"488 1016 QCURVE SMOOTH"
);
}
);
userData = {
com.schriftgestaltung.Glyphs.lastChange = "2020-04-18 22:45:16 +0000";
};
width = 1176;
},
{
layerId = "F16CA8CE-DA8C-4EBD-81D6-AE00C3431B7F";
paths = (
{
closed = 1;
nodes = (
"502 0 OFFCURVE",
"632 -10 OFFCURVE",
"656 -10 OFFCURVE",
"664 12 OFFCURVE",
"564 102 OFFCURVE",
"506 174 OFFCURVE",
"496 202 OFFCURVE",
"480 412 OFFCURVE",
"484 540 OFFCURVE",
"488 564 OFFCURVE",
"508 580 OFFCURVE",
"824 600 OFFCURVE",
"1112 816 OFFCURVE",
"1116 1212 OFFCURVE",
"772 1370 OFFCURVE",
"560 1370 QCURVE SMOOTH",
"352 1370 OFFCURVE",
"144 1376 OFFCURVE",
"106 1364 OFFCURVE",
"102 1328 OFFCURVE",
"168 1264 OFFCURVE",
"220 1184 OFFCURVE",
"236 1148 OFFCURVE",
"244 764 OFFCURVE",
"240 220 OFFCURVE",
"224 190 OFFCURVE",
"184 120 OFFCURVE",
"92 24 OFFCURVE",
"84 0 OFFCURVE",
"116 -12 OFFCURVE",
"300 0 OFFCURVE",
"388 0 QCURVE SMOOTH"
);
},
{
closed = 1;
nodes = (
"484 1260 OFFCURVE",
"520 1304 OFFCURVE",
"644 1304 OFFCURVE",
"828 1236 OFFCURVE",
"832 1000 QCURVE SMOOTH",
"834 868 OFFCURVE",
"732 696 OFFCURVE",
"616 652 OFFCURVE",
"512 648 OFFCURVE",
"488 704 OFFCURVE",
"488 956 OFFCURVE",
"488 1016 QCURVE SMOOTH"
);
}
);
userData = {
com.schriftgestaltung.Glyphs.lastChange = "2020-04-18 22:45:16 +0000";
};
width = 1176;
},
{
layerId = "02ADBE8D-B3BB-4EC7-92FE-8DBAAB138109";
paths = (
{
closed = 1;
nodes = (
"502 0 OFFCURVE",
"632 -10 OFFCURVE",
"656 -10 OFFCURVE",
"664 12 OFFCURVE",
"564 102 OFFCURVE",
"506 174 OFFCURVE",
"496 202 OFFCURVE",
"480 412 OFFCURVE",
"484 540 OFFCURVE",
"488 564 OFFCURVE",
"508 580 OFFCURVE",
"824 600 OFFCURVE",
"1112 816 OFFCURVE",
"1116 1212 OFFCURVE",
"772 1370 OFFCURVE",
"560 1370 QCURVE SMOOTH",
"352 1370 OFFCURVE",
"144 1376 OFFCURVE",
"106 1364 OFFCURVE",
"102 1328 OFFCURVE",
"168 1264 OFFCURVE",
"220 1184 OFFCURVE",
"236 1148 OFFCURVE",
"244 764 OFFCURVE",
"240 220 OFFCURVE",
"224 190 OFFCURVE",
"184 120 OFFCURVE",
"92 24 OFFCURVE",
"84 0 OFFCURVE",
"116 -12 OFFCURVE",
"300 0 OFFCURVE",
"388 0 QCURVE SMOOTH"
);
},
{
closed = 1;
nodes = (
"484 1260 OFFCURVE",
"520 1304 OFFCURVE",
"644 1304 OFFCURVE",
"828 1236 OFFCURVE",
"832 1000 QCURVE SMOOTH",
"834 868 OFFCURVE",
"732 696 OFFCURVE",
"616 652 OFFCURVE",
"512 648 OFFCURVE",
"488 704 OFFCURVE",
"488 956 OFFCURVE",
"488 1016 QCURVE SMOOTH"
);
}
);
userData = {
com.schriftgestaltung.Glyphs.lastChange = "2020-04-18 22:45:16 +0000";
};
width = 1176;
}
);
unicode = 0050;
},
{
glyphname = Thorn;
layers = (
{
layerId = master01;
paths = (
{
closed = 1;
nodes = (
"488 1158 LINE",
"636 1370 LINE",
"80 1370 LINE",
"228 1158 LINE",
"228 212 LINE",
"80 0 LINE",
"668 0 LINE",
"488 212 LINE",
"488 326 LINE",
"534 326 OFFCURVE",
"608 330 OFFCURVE",
"672 340 CURVE SMOOTH",
"882 366 OFFCURVE",
"1116 504 OFFCURVE",
"1116 750 CURVE SMOOTH",
"1116 1082 OFFCURVE",
"702 1116 OFFCURVE",
"560 1116 CURVE SMOOTH",
"488 1116 LINE"
);
},
{
closed = 1;
nodes = (
"702 1056 OFFCURVE",
"832 950 OFFCURVE",
"832 726 CURVE SMOOTH",
"832 502 OFFCURVE",
"706 394 OFFCURVE",
"488 394 CURVE",
"488 1056 LINE"
);
}
);
width = 1210;
},
{
layerId = "F16CA8CE-DA8C-4EBD-81D6-AE00C3431B7F";
paths = (
{
closed = 1;
nodes = (
"488 1158 LINE",
"636 1370 LINE",
"80 1370 LINE",
"228 1158 LINE",
"228 212 LINE",
"80 0 LINE",
"668 0 LINE",
"488 212 LINE",
"488 326 LINE",
"534 326 OFFCURVE",
"608 330 OFFCURVE",
"672 340 CURVE SMOOTH",
"882 366 OFFCURVE",
"1116 504 OFFCURVE",
"1116 750 CURVE SMOOTH",
"1116 1082 OFFCURVE",
"702 1116 OFFCURVE",
"560 1116 CURVE SMOOTH",
"488 1116 LINE"
);
},
{
closed = 1;
nodes = (
"702 1056 OFFCURVE",
"832 950 OFFCURVE",
"832 726 CURVE SMOOTH",
"832 502 OFFCURVE",
"706 394 OFFCURVE",
"488 394 CURVE",
"488 1056 LINE"
);
}
);
width = 1210;
},
{
layerId = "02ADBE8D-B3BB-4EC7-92FE-8DBAAB138109";
paths = (
{
closed = 1;
nodes = (
"488 1158 LINE",
"636 1370 LINE",
"80 1370 LINE",
"228 1158 LINE",
"228 212 LINE",
"80 0 LINE",
"668 0 LINE",
"488 212 LINE",
"488 326 LINE",
"534 326 OFFCURVE",
"608 330 OFFCURVE",
"672 340 CURVE SMOOTH",
"882 366 OFFCURVE",
"1116 504 OFFCURVE",
"1116 750 CURVE SMOOTH",
"1116 1082 OFFCURVE",
"702 1116 OFFCURVE",
"560 1116 CURVE SMOOTH",
"488 1116 LINE"
);
},
{
closed = 1;
nodes = (
"702 1056 OFFCURVE",
"832 950 OFFCURVE",
"832 726 CURVE SMOOTH",
"832 502 OFFCURVE",
"706 394 OFFCURVE",
"488 394 CURVE",
"488 1056 LINE"
);
}
);
width = 1210;
}
);
unicode = 00DE;
},
{
color = 4;
glyphname = Q;
layers = (
{
layerId = master01;
paths = (
{
closed = 1;
nodes = (
"70 420 OFFCURVE",
"284 88 OFFCURVE",
"568 -16 OFFCURVE",
"652 -16 OFFCURVE",
"724 -8 OFFCURVE",
"744 -16 OFFCURVE",
"928 -144 OFFCURVE",
"1146 -252 OFFCURVE",
"1172 -252 OFFCURVE",
"1180 -232 OFFCURVE",
"1116 -44 OFFCURVE",
"1096 82 OFFCURVE",
"1096 106 OFFCURVE",
"1116 122 OFFCURVE",
"1280 272 OFFCURVE",
"1408 568 OFFCURVE",
"1406 746 QCURVE SMOOTH",
"1404 988 OFFCURVE",
"1088 1392 OFFCURVE",
"518 1386 OFFCURVE",
"70 1006 OFFCURVE",
"70 626 QCURVE SMOOTH"
);
},
{
closed = 1;
nodes = (
"354 1066 OFFCURVE",
"516 1298 OFFCURVE",
"868 1298 OFFCURVE",
"1128 830 OFFCURVE",
"1128 520 QCURVE SMOOTH",
"1128 324 OFFCURVE",
"944 74 OFFCURVE",
"622 74 OFFCURVE",
"354 518 OFFCURVE",
"354 868 QCURVE SMOOTH"
);
}
);
userData = {
com.schriftgestaltung.Glyphs.lastChange = "2020-04-18 22:52:56 +0000";
};
width = 1476;
},
{
associatedMasterId = master01;
layerId = "C8C2FE98-897F-4696-9A78-160B230221A8";
name = "Apr 21 20, 13:39";
paths = (
{
closed = 1;
nodes = (
"1096 108 LINE",
"1300 248 OFFCURVE",
"1406 488 OFFCURVE",
"1406 746 CURVE SMOOTH",
"1406 1072 OFFCURVE",
"1182 1386 OFFCURVE",
"814 1386 CURVE SMOOTH",
"326 1386 OFFCURVE",
"70 1028 OFFCURVE",
"70 626 CURVE SMOOTH",
"70 300 OFFCURVE",
"294 -14 OFFCURVE",
"662 -14 CURVE SMOOTH",
"690 -14 OFFCURVE",
"716 -12 OFFCURVE",
"742 -10 CURVE",
"880 -112 OFFCURVE",
"1020 -198 OFFCURVE",
"1164 -250 CURVE",
"1172 -238 LINE"
);
},
{
closed = 1;
nodes = (
"956 1300 OFFCURVE",
"1126 916 OFFCURVE",
"1126 504 CURVE SMOOTH",
"1126 346 OFFCURVE",
"1044 70 OFFCURVE",
"804 70 CURVE SMOOTH",
"520 70 OFFCURVE",
"354 456 OFFCURVE",
"354 868 CURVE SMOOTH",
"354 1026 OFFCURVE",
"402 1300 OFFCURVE",
"672 1300 CURVE SMOOTH"
);
}
);
userData = {
com.schriftgestaltung.Glyphs.lastChange = "2020-04-18 22:52:56 +0000";
};
visible = 1;
width = 1476;
},
{
layerId = "F16CA8CE-DA8C-4EBD-81D6-AE00C3431B7F";
paths = (
{
closed = 1;
nodes = (
"70 420 OFFCURVE",
"284 88 OFFCURVE",
"568 -16 OFFCURVE",
"652 -16 OFFCURVE",
"724 -8 OFFCURVE",
"744 -16 OFFCURVE",
"928 -144 OFFCURVE",
"1146 -252 OFFCURVE",
"1172 -252 OFFCURVE",
"1180 -232 OFFCURVE",
"1116 -44 OFFCURVE",
"1096 82 OFFCURVE",
"1096 106 OFFCURVE",
"1116 122 OFFCURVE",
"1280 272 OFFCURVE",
"1408 568 OFFCURVE",
"1406 746 QCURVE SMOOTH",
"1404 988 OFFCURVE",
"1088 1392 OFFCURVE",
"518 1386 OFFCURVE",
"70 1006 OFFCURVE",
"70 626 QCURVE SMOOTH"
);
},
{
closed = 1;
nodes = (
"354 1066 OFFCURVE",
"516 1298 OFFCURVE",
"868 1298 OFFCURVE",
"1128 830 OFFCURVE",
"1128 520 QCURVE SMOOTH",
"1128 324 OFFCURVE",
"944 74 OFFCURVE",
"622 74 OFFCURVE",
"354 518 OFFCURVE",
"354 868 QCURVE SMOOTH"
);
}
);
userData = {
com.schriftgestaltung.Glyphs.lastChange = "2020-04-18 22:52:56 +0000";
};
width = 1476;
},
{
associatedMasterId = "F16CA8CE-DA8C-4EBD-81D6-AE00C3431B7F";
layerId = "32C2F1C8-16D3-4B21-8781-8A43D4244667";
name = "Apr 21 20, 13:39";
paths = (
{
closed = 1;
nodes = (
"1096 108 LINE",
"1300 248 OFFCURVE",
"1406 488 OFFCURVE",
"1406 746 CURVE SMOOTH",
"1406 1072 OFFCURVE",
"1182 1386 OFFCURVE",
"814 1386 CURVE SMOOTH",
"326 1386 OFFCURVE",
"70 1028 OFFCURVE",
"70 626 CURVE SMOOTH",
"70 300 OFFCURVE",
"294 -14 OFFCURVE",
"662 -14 CURVE SMOOTH",
"690 -14 OFFCURVE",
"716 -12 OFFCURVE",
"742 -10 CURVE",
"880 -112 OFFCURVE",
"1020 -198 OFFCURVE",
"1164 -250 CURVE",
"1172 -238 LINE"
);
},
{
closed = 1;
nodes = (
"956 1300 OFFCURVE",
"1126 916 OFFCURVE",
"1126 504 CURVE SMOOTH",
"1126 346 OFFCURVE",
"1044 70 OFFCURVE",
"804 70 CURVE SMOOTH",
"520 70 OFFCURVE",
"354 456 OFFCURVE",
"354 868 CURVE SMOOTH",
"354 1026 OFFCURVE",
"402 1300 OFFCURVE",
"672 1300 CURVE SMOOTH"
);
}
);
userData = {
com.schriftgestaltung.Glyphs.lastChange = "2020-04-18 22:52:56 +0000";
};
width = 1476;
},
{
layerId = "02ADBE8D-B3BB-4EC7-92FE-8DBAAB138109";
paths = (
{
closed = 1;
nodes = (
"70 420 OFFCURVE",
"284 88 OFFCURVE",
"568 -16 OFFCURVE",
"652 -16 OFFCURVE",
"724 -8 OFFCURVE",
"744 -16 OFFCURVE",
"928 -144 OFFCURVE",
"1146 -252 OFFCURVE",
"1172 -252 OFFCURVE",
"1180 -232 OFFCURVE",
"1116 -44 OFFCURVE",
"1096 82 OFFCURVE",
"1096 106 OFFCURVE",
"1116 122 OFFCURVE",
"1280 272 OFFCURVE",
"1408 568 OFFCURVE",
"1406 746 QCURVE SMOOTH",
"1404 988 OFFCURVE",
"1088 1392 OFFCURVE",
"518 1386 OFFCURVE",
"70 1006 OFFCURVE",
"70 626 QCURVE SMOOTH"
);
},
{
closed = 1;
nodes = (
"354 1066 OFFCURVE",
"516 1298 OFFCURVE",
"868 1298 OFFCURVE",
"1128 830 OFFCURVE",
"1128 520 QCURVE SMOOTH",
"1128 324 OFFCURVE",
"944 74 OFFCURVE",
"622 74 OFFCURVE",
"354 518 OFFCURVE",
"354 868 QCURVE SMOOTH"
);
}
);
userData = {
com.schriftgestaltung.Glyphs.lastChange = "2020-04-18 22:52:56 +0000";
};
width = 1476;
},
{
associatedMasterId = "02ADBE8D-B3BB-4EC7-92FE-8DBAAB138109";
layerId = "7243F24D-9B5C-4638-A368-D0C87CEB1D1A";
name = "Apr 21 20, 13:39";
paths = (
{
closed = 1;
nodes = (
"1096 108 LINE",
"1300 248 OFFCURVE",
"1406 488 OFFCURVE",
"1406 746 CURVE SMOOTH",
"1406 1072 OFFCURVE",
"1182 1386 OFFCURVE",
"814 1386 CURVE SMOOTH",
"326 1386 OFFCURVE",
"70 1028 OFFCURVE",
"70 626 CURVE SMOOTH",
"70 300 OFFCURVE",
"294 -14 OFFCURVE",
"662 -14 CURVE SMOOTH",
"690 -14 OFFCURVE",
"716 -12 OFFCURVE",
"742 -10 CURVE",
"880 -112 OFFCURVE",
"1020 -198 OFFCURVE",
"1164 -250 CURVE",
"1172 -238 LINE"
);
},
{
closed = 1;
nodes = (
"956 1300 OFFCURVE",
"1126 916 OFFCURVE",
"1126 504 CURVE SMOOTH",
"1126 346 OFFCURVE",
"1044 70 OFFCURVE",
"804 70 CURVE SMOOTH",
"520 70 OFFCURVE",
"354 456 OFFCURVE",
"354 868 CURVE SMOOTH",
"354 1026 OFFCURVE",
"402 1300 OFFCURVE",
"672 1300 CURVE SMOOTH"
);
}
);
userData = {
com.schriftgestaltung.Glyphs.lastChange = "2020-04-18 22:52:56 +0000";
};
width = 1476;
}
);
unicode = 0051;
},
{
color = 4;
glyphname = R;
layers = (
{
layerId = master01;
paths = (
{
closed = 1;
nodes = (
"408 8 OFFCURVE",
"572 -2 OFFCURVE",
"624 -2 OFFCURVE",
"628 24 OFFCURVE",
"540 112 OFFCURVE",
"496 196 OFFCURVE",
"488 232 OFFCURVE",
"476 452 OFFCURVE",
"480 564 OFFCURVE",
"480 612 OFFCURVE",
"504 620 OFFCURVE",
"568 624 OFFCURVE",
"592 612 OFFCURVE",
"792 316 OFFCURVE",
"932 60 OFFCURVE",
"960 20 OFFCURVE",
"1000 0 OFFCURVE",
"1180 16 OFFCURVE",
"1332 -6 OFFCURVE",
"1366 -6 OFFCURVE",
"1364 18 OFFCURVE",
"1212 136 OFFCURVE",
"1152 198 OFFCURVE",
"1024 386 OFFCURVE",
"876 640 OFFCURVE",
"866 676 OFFCURVE",
"898 694 OFFCURVE",
"1048 772 OFFCURVE",
"1158 918 OFFCURVE",
"1160 1182 OFFCURVE",
"890 1372 OFFCURVE",
"628 1372 QCURVE SMOOTH",
"520 1372 OFFCURVE",
"304 1356 OFFCURVE",
"120 1376 OFFCURVE",
"92 1372 OFFCURVE",
"96 1336 OFFCURVE",
"164 1256 OFFCURVE",
"222 1172 OFFCURVE",
"232 1140 OFFCURVE",
"236 680 OFFCURVE",
"232 232 OFFCURVE",
"222 200 OFFCURVE",
"168 108 OFFCURVE",
"90 30 OFFCURVE",
"82 -2 OFFCURVE",
"122 -8 OFFCURVE",
"324 8 OFFCURVE",
"360 8 QCURVE SMOOTH"
);
},
{
closed = 1;
nodes = (
"480 1032 OFFCURVE",
"484 1286 OFFCURVE",
"488 1308 OFFCURVE",
"516 1312 OFFCURVE",
"694 1292 OFFCURVE",
"866 1152 OFFCURVE",
"866 992 QCURVE SMOOTH",
"866 882 OFFCURVE",
"724 728 OFFCURVE",
"518 680 OFFCURVE",
"494 684 OFFCURVE",
"484 708 OFFCURVE",
"480 914 OFFCURVE",
"480 980 QCURVE SMOOTH"
);
}
);
userData = {
com.schriftgestaltung.Glyphs.lastChange = "2020-04-17 19:36:31 +0000";
};
width = 1392;
},
{
associatedMasterId = master01;
layerId = "7AE98578-6AA7-42B9-A3F0-64194A2C31B0";
name = "Apr 21 20, 14:38";
paths = (
{
closed = 1;
nodes = (
"1160 196 LINE",
"850 678 LINE",
"1012 738 OFFCURVE",
"1160 852 OFFCURVE",
"1160 1016 CURVE SMOOTH",
"1160 1348 OFFCURVE",
"766 1370 OFFCURVE",
"586 1370 CURVE SMOOTH",
"80 1370 LINE",
"228 1158 LINE",
"228 212 LINE",
"80 0 LINE",
"636 0 LINE",
"488 212 LINE",
"488 616 LINE",
"584 624 LINE",
"698 466 OFFCURVE",
"832 232 OFFCURVE",
"968 0 CURVE",
"1372 0 LINE"
);
},
{
closed = 1;
nodes = (
"702 1310 OFFCURVE",
"866 1232 OFFCURVE",
"866 992 CURVE SMOOTH",
"866 788 OFFCURVE",
"680 686 OFFCURVE",
"488 682 CURVE",
"488 1310 LINE"
);
}
);
userData = {
com.schriftgestaltung.Glyphs.lastChange = "2020-04-17 19:36:31 +0000";
};
visible = 1;
width = 1392;
},
{
layerId = "F16CA8CE-DA8C-4EBD-81D6-AE00C3431B7F";
paths = (
{
closed = 1;
nodes = (
"408 8 OFFCURVE",
"572 -2 OFFCURVE",
"624 -2 OFFCURVE",
"628 24 OFFCURVE",
"540 112 OFFCURVE",
"496 196 OFFCURVE",
"488 232 OFFCURVE",
"476 452 OFFCURVE",
"480 564 OFFCURVE",
"480 612 OFFCURVE",
"504 620 OFFCURVE",
"568 624 OFFCURVE",
"592 612 OFFCURVE",
"792 316 OFFCURVE",
"932 60 OFFCURVE",
"960 20 OFFCURVE",
"1000 0 OFFCURVE",
"1180 16 OFFCURVE",
"1332 -6 OFFCURVE",
"1366 -6 OFFCURVE",
"1364 18 OFFCURVE",
"1212 136 OFFCURVE",
"1152 198 OFFCURVE",
"1024 386 OFFCURVE",
"876 640 OFFCURVE",
"866 676 OFFCURVE",
"898 694 OFFCURVE",
"1048 772 OFFCURVE",
"1158 918 OFFCURVE",
"1160 1182 OFFCURVE",
"890 1372 OFFCURVE",
"628 1372 QCURVE SMOOTH",
"520 1372 OFFCURVE",
"304 1356 OFFCURVE",
"120 1376 OFFCURVE",
"92 1372 OFFCURVE",
"96 1336 OFFCURVE",
"164 1256 OFFCURVE",
"222 1172 OFFCURVE",
"232 1140 OFFCURVE",
"236 680 OFFCURVE",
"232 232 OFFCURVE",
"222 200 OFFCURVE",
"168 108 OFFCURVE",
"90 30 OFFCURVE",
"82 -2 OFFCURVE",
"122 -8 OFFCURVE",
"324 8 OFFCURVE",
"360 8 QCURVE SMOOTH"
);
},
{
closed = 1;
nodes = (
"480 1032 OFFCURVE",
"484 1286 OFFCURVE",
"488 1308 OFFCURVE",
"516 1312 OFFCURVE",
"694 1292 OFFCURVE",
"866 1152 OFFCURVE",
"866 992 QCURVE SMOOTH",
"866 882 OFFCURVE",
"724 728 OFFCURVE",
"518 680 OFFCURVE",
"494 684 OFFCURVE",
"484 708 OFFCURVE",
"480 914 OFFCURVE",
"480 980 QCURVE SMOOTH"
);
}
);
userData = {
com.schriftgestaltung.Glyphs.lastChange = "2020-04-17 19:36:31 +0000";
};
width = 1392;
},
{
associatedMasterId = "F16CA8CE-DA8C-4EBD-81D6-AE00C3431B7F";
layerId = "194D37F8-006F-4D1B-96D2-B73B79C899CC";
name = "Apr 21 20, 14:38";
paths = (
{
closed = 1;
nodes = (
"1160 196 LINE",
"850 678 LINE",
"1012 738 OFFCURVE",
"1160 852 OFFCURVE",
"1160 1016 CURVE SMOOTH",
"1160 1348 OFFCURVE",
"766 1370 OFFCURVE",
"586 1370 CURVE SMOOTH",
"80 1370 LINE",
"228 1158 LINE",
"228 212 LINE",
"80 0 LINE",
"636 0 LINE",
"488 212 LINE",
"488 616 LINE",
"584 624 LINE",
"698 466 OFFCURVE",
"832 232 OFFCURVE",
"968 0 CURVE",
"1372 0 LINE"
);
},
{
closed = 1;
nodes = (
"702 1310 OFFCURVE",
"866 1232 OFFCURVE",
"866 992 CURVE SMOOTH",
"866 788 OFFCURVE",
"680 686 OFFCURVE",
"488 682 CURVE",
"488 1310 LINE"
);
}
);
userData = {
com.schriftgestaltung.Glyphs.lastChange = "2020-04-17 19:36:31 +0000";
};
width = 1392;
},
{
layerId = "02ADBE8D-B3BB-4EC7-92FE-8DBAAB138109";
paths = (
{
closed = 1;
nodes = (
"408 8 OFFCURVE",
"572 -2 OFFCURVE",
"624 -2 OFFCURVE",
"628 24 OFFCURVE",
"540 112 OFFCURVE",
"496 196 OFFCURVE",
"488 232 OFFCURVE",
"476 452 OFFCURVE",
"480 564 OFFCURVE",
"480 612 OFFCURVE",
"504 620 OFFCURVE",
"568 624 OFFCURVE",
"592 612 OFFCURVE",
"792 316 OFFCURVE",
"932 60 OFFCURVE",
"960 20 OFFCURVE",
"1000 0 OFFCURVE",
"1180 16 OFFCURVE",
"1332 -6 OFFCURVE",
"1366 -6 OFFCURVE",
"1364 18 OFFCURVE",
"1212 136 OFFCURVE",
"1152 198 OFFCURVE",
"1024 386 OFFCURVE",
"876 640 OFFCURVE",
"866 676 OFFCURVE",
"898 694 OFFCURVE",
"1048 772 OFFCURVE",
"1158 918 OFFCURVE",
"1160 1182 OFFCURVE",
"890 1372 OFFCURVE",
"628 1372 QCURVE SMOOTH",
"520 1372 OFFCURVE",
"304 1356 OFFCURVE",
"120 1376 OFFCURVE",
"92 1372 OFFCURVE",
"96 1336 OFFCURVE",
"164 1256 OFFCURVE",
"222 1172 OFFCURVE",
"232 1140 OFFCURVE",
"236 680 OFFCURVE",
"232 232 OFFCURVE",
"222 200 OFFCURVE",
"168 108 OFFCURVE",
"90 30 OFFCURVE",
"82 -2 OFFCURVE",
"122 -8 OFFCURVE",
"324 8 OFFCURVE",
"360 8 QCURVE SMOOTH"
);
},
{
closed = 1;
nodes = (
"480 1032 OFFCURVE",
"484 1286 OFFCURVE",
"488 1308 OFFCURVE",
"516 1312 OFFCURVE",
"694 1292 OFFCURVE",
"866 1152 OFFCURVE",
"866 992 QCURVE SMOOTH",
"866 882 OFFCURVE",
"724 728 OFFCURVE",
"518 680 OFFCURVE",
"494 684 OFFCURVE",
"484 708 OFFCURVE",
"480 914 OFFCURVE",
"480 980 QCURVE SMOOTH"
);
}
);
userData = {
com.schriftgestaltung.Glyphs.lastChange = "2020-04-17 19:36:31 +0000";
};
width = 1392;
},
{
associatedMasterId = "02ADBE8D-B3BB-4EC7-92FE-8DBAAB138109";
layerId = "D147B4ED-C768-433C-82D5-B62FC29CE17F";
name = "Apr 21 20, 14:38";
paths = (
{
closed = 1;
nodes = (
"1160 196 LINE",
"850 678 LINE",
"1012 738 OFFCURVE",
"1160 852 OFFCURVE",
"1160 1016 CURVE SMOOTH",
"1160 1348 OFFCURVE",
"766 1370 OFFCURVE",
"586 1370 CURVE SMOOTH",
"80 1370 LINE",
"228 1158 LINE",
"228 212 LINE",
"80 0 LINE",
"636 0 LINE",
"488 212 LINE",
"488 616 LINE",
"584 624 LINE",
"698 466 OFFCURVE",
"832 232 OFFCURVE",
"968 0 CURVE",
"1372 0 LINE"
);
},
{
closed = 1;
nodes = (
"702 1310 OFFCURVE",
"866 1232 OFFCURVE",
"866 992 CURVE SMOOTH",
"866 788 OFFCURVE",
"680 686 OFFCURVE",
"488 682 CURVE",
"488 1310 LINE"
);
}
);
userData = {
com.schriftgestaltung.Glyphs.lastChange = "2020-04-17 19:36:31 +0000";
};
width = 1392;
}
);
unicode = 0052;
},
{
glyphname = Racute;
layers = (
{
layerId = master01;
paths = (
{
closed = 1;
nodes = (
"860 1738 LINE",
"598 1738 LINE",
"572 1480 LINE",
"602 1480 LINE"
);
},
{
closed = 1;
nodes = (
"1160 196 LINE",
"850 678 LINE",
"1012 738 OFFCURVE",
"1160 852 OFFCURVE",
"1160 1016 CURVE SMOOTH",
"1160 1348 OFFCURVE",
"766 1370 OFFCURVE",
"586 1370 CURVE SMOOTH",
"80 1370 LINE",
"228 1158 LINE",
"228 212 LINE",
"80 0 LINE",
"636 0 LINE",
"488 212 LINE",
"488 616 LINE",
"584 624 LINE",
"698 466 OFFCURVE",
"832 232 OFFCURVE",
"968 0 CURVE",
"1372 0 LINE"
);
},
{
closed = 1;
nodes = (
"702 1310 OFFCURVE",
"866 1232 OFFCURVE",
"866 992 CURVE SMOOTH",
"866 788 OFFCURVE",
"680 686 OFFCURVE",
"488 682 CURVE",
"488 1310 LINE"
);
}
);
width = 1392;
},
{
layerId = "F16CA8CE-DA8C-4EBD-81D6-AE00C3431B7F";
paths = (
{
closed = 1;
nodes = (
"860 1738 LINE",
"598 1738 LINE",
"572 1480 LINE",
"602 1480 LINE"
);
},
{
closed = 1;
nodes = (
"1160 196 LINE",
"850 678 LINE",
"1012 738 OFFCURVE",
"1160 852 OFFCURVE",
"1160 1016 CURVE SMOOTH",
"1160 1348 OFFCURVE",
"766 1370 OFFCURVE",
"586 1370 CURVE SMOOTH",
"80 1370 LINE",
"228 1158 LINE",
"228 212 LINE",
"80 0 LINE",
"636 0 LINE",
"488 212 LINE",
"488 616 LINE",
"584 624 LINE",
"698 466 OFFCURVE",
"832 232 OFFCURVE",
"968 0 CURVE",
"1372 0 LINE"
);
},
{
closed = 1;
nodes = (
"702 1310 OFFCURVE",
"866 1232 OFFCURVE",
"866 992 CURVE SMOOTH",
"866 788 OFFCURVE",
"680 686 OFFCURVE",
"488 682 CURVE",
"488 1310 LINE"
);
}
);
width = 1392;
},
{
layerId = "02ADBE8D-B3BB-4EC7-92FE-8DBAAB138109";
paths = (
{
closed = 1;
nodes = (
"860 1738 LINE",
"598 1738 LINE",
"572 1480 LINE",
"602 1480 LINE"
);
},
{
closed = 1;
nodes = (
"1160 196 LINE",
"850 678 LINE",
"1012 738 OFFCURVE",
"1160 852 OFFCURVE",
"1160 1016 CURVE SMOOTH",
"1160 1348 OFFCURVE",
"766 1370 OFFCURVE",
"586 1370 CURVE SMOOTH",
"80 1370 LINE",
"228 1158 LINE",
"228 212 LINE",
"80 0 LINE",
"636 0 LINE",
"488 212 LINE",
"488 616 LINE",
"584 624 LINE",
"698 466 OFFCURVE",
"832 232 OFFCURVE",
"968 0 CURVE",
"1372 0 LINE"
);
},
{
closed = 1;
nodes = (
"702 1310 OFFCURVE",
"866 1232 OFFCURVE",
"866 992 CURVE SMOOTH",
"866 788 OFFCURVE",
"680 686 OFFCURVE",
"488 682 CURVE",
"488 1310 LINE"
);
}
);
width = 1392;
}
);
unicode = 0154;
},
{
glyphname = Rcaron;
layers = (
{
layerId = master01;
paths = (
{
closed = 1;
nodes = (
"442 1738 LINE",
"412 1738 LINE",
"536 1480 LINE",
"702 1480 LINE",
"828 1738 LINE",
"798 1738 LINE",
"620 1598 LINE"
);
},
{
closed = 1;
nodes = (
"1160 196 LINE",
"850 678 LINE",
"1012 738 OFFCURVE",
"1160 852 OFFCURVE",
"1160 1016 CURVE SMOOTH",
"1160 1348 OFFCURVE",
"766 1370 OFFCURVE",
"586 1370 CURVE SMOOTH",
"80 1370 LINE",
"228 1158 LINE",
"228 212 LINE",
"80 0 LINE",
"636 0 LINE",
"488 212 LINE",
"488 616 LINE",
"584 624 LINE",
"698 466 OFFCURVE",
"832 232 OFFCURVE",
"968 0 CURVE",
"1372 0 LINE"
);
},
{
closed = 1;
nodes = (
"702 1310 OFFCURVE",
"866 1232 OFFCURVE",
"866 992 CURVE SMOOTH",
"866 788 OFFCURVE",
"680 686 OFFCURVE",
"488 682 CURVE",
"488 1310 LINE"
);
}
);
width = 1392;
},
{
layerId = "F16CA8CE-DA8C-4EBD-81D6-AE00C3431B7F";
paths = (
{
closed = 1;
nodes = (
"442 1738 LINE",
"412 1738 LINE",
"536 1480 LINE",
"702 1480 LINE",
"828 1738 LINE",
"798 1738 LINE",
"620 1598 LINE"
);
},
{
closed = 1;
nodes = (
"1160 196 LINE",
"850 678 LINE",
"1012 738 OFFCURVE",
"1160 852 OFFCURVE",
"1160 1016 CURVE SMOOTH",
"1160 1348 OFFCURVE",
"766 1370 OFFCURVE",
"586 1370 CURVE SMOOTH",
"80 1370 LINE",
"228 1158 LINE",
"228 212 LINE",
"80 0 LINE",
"636 0 LINE",
"488 212 LINE",
"488 616 LINE",
"584 624 LINE",
"698 466 OFFCURVE",
"832 232 OFFCURVE",
"968 0 CURVE",
"1372 0 LINE"
);
},
{
closed = 1;
nodes = (
"702 1310 OFFCURVE",
"866 1232 OFFCURVE",
"866 992 CURVE SMOOTH",
"866 788 OFFCURVE",
"680 686 OFFCURVE",
"488 682 CURVE",
"488 1310 LINE"
);
}
);
width = 1392;
},
{
layerId = "02ADBE8D-B3BB-4EC7-92FE-8DBAAB138109";
paths = (
{
closed = 1;
nodes = (
"442 1738 LINE",
"412 1738 LINE",
"536 1480 LINE",
"702 1480 LINE",
"828 1738 LINE",
"798 1738 LINE",
"620 1598 LINE"
);
},
{
closed = 1;
nodes = (
"1160 196 LINE",
"850 678 LINE",
"1012 738 OFFCURVE",
"1160 852 OFFCURVE",
"1160 1016 CURVE SMOOTH",
"1160 1348 OFFCURVE",
"766 1370 OFFCURVE",
"586 1370 CURVE SMOOTH",
"80 1370 LINE",
"228 1158 LINE",
"228 212 LINE",
"80 0 LINE",
"636 0 LINE",
"488 212 LINE",
"488 616 LINE",
"584 624 LINE",
"698 466 OFFCURVE",
"832 232 OFFCURVE",
"968 0 CURVE",
"1372 0 LINE"
);
},
{
closed = 1;
nodes = (
"702 1310 OFFCURVE",
"866 1232 OFFCURVE",
"866 992 CURVE SMOOTH",
"866 788 OFFCURVE",
"680 686 OFFCURVE",
"488 682 CURVE",
"488 1310 LINE"
);
}
);
width = 1392;
}
);
unicode = 0158;
},
{
color = 4;
glyphname = S;
layers = (
{
layerId = master01;
paths = (
{
closed = 1;
nodes = (
"66 518 OFFCURVE",
"86 296 OFFCURVE",
"80 76 OFFCURVE",
"82 48 OFFCURVE",
"106 40 OFFCURVE",
"352 -16 OFFCURVE",
"492 -16 QCURVE SMOOTH",
"706 -16 OFFCURVE",
"986 204 OFFCURVE",
"986 542 OFFCURVE",
"828 708 OFFCURVE",
"380 912 OFFCURVE",
"272 1050 OFFCURVE",
"272 1210 OFFCURVE",
"378 1302 OFFCURVE",
"588 1302 OFFCURVE",
"782 1168 OFFCURVE",
"860 984 OFFCURVE",
"868 968 OFFCURVE",
"892 966 OFFCURVE",
"898 992 OFFCURVE",
"886 1202 OFFCURVE",
"900 1386 OFFCURVE",
"892 1402 OFFCURVE",
"868 1394 OFFCURVE",
"794 1370 OFFCURVE",
"684 1364 OFFCURVE",
"542 1370 OFFCURVE",
"510 1370 QCURVE SMOOTH",
"262 1370 OFFCURVE",
"76 1118 OFFCURVE",
"76 886 OFFCURVE",
"184 712 OFFCURVE",
"644 498 OFFCURVE",
"766 366 OFFCURVE",
"766 160 OFFCURVE",
"638 62 OFFCURVE",
"448 64 OFFCURVE",
"260 190 OFFCURVE",
"150 384 OFFCURVE",
"102 522 OFFCURVE",
"92 536 OFFCURVE",
"70 536 OFFCURVE"
);
}
);
userData = {
com.schriftgestaltung.Glyphs.lastChange = "2020-04-17 19:36:31 +0000";
};
width = 1066;
},
{
associatedMasterId = master01;
layerId = "B18A9BC7-3CB1-44FD-969C-812DF2BA556C";
name = "Apr 21 20, 15:01";
paths = (
{
closed = 1;
nodes = (
"94 56 LINE",
"192 12 OFFCURVE",
"362 -16 OFFCURVE",
"492 -16 CURVE SMOOTH",
"756 -16 OFFCURVE",
"986 110 OFFCURVE",
"986 408 CURVE SMOOTH",
"986 832 OFFCURVE",
"272 790 OFFCURVE",
"272 1124 CURVE SMOOTH",
"272 1240 OFFCURVE",
"352 1306 OFFCURVE",
"462 1306 CURVE SMOOTH",
"644 1306 OFFCURVE",
"802 1182 OFFCURVE",
"868 970 CURVE",
"892 968 LINE",
"892 1400 LINE",
"796 1370 LINE",
"510 1370 LINE SMOOTH",
"214 1370 OFFCURVE",
"76 1190 OFFCURVE",
"76 1000 CURVE SMOOTH",
"76 536 OFFCURVE",
"766 640 OFFCURVE",
"766 260 CURVE SMOOTH",
"766 114 OFFCURVE",
"648 60 OFFCURVE",
"558 60 CURVE SMOOTH",
"344 60 OFFCURVE",
"160 276 OFFCURVE",
"94 536 CURVE",
"70 536 LINE"
);
}
);
userData = {
com.schriftgestaltung.Glyphs.lastChange = "2020-04-17 19:36:31 +0000";
};
visible = 1;
width = 1066;
},
{
layerId = "F16CA8CE-DA8C-4EBD-81D6-AE00C3431B7F";
paths = (
{
closed = 1;
nodes = (
"66 518 OFFCURVE",
"86 296 OFFCURVE",
"80 76 OFFCURVE",
"82 48 OFFCURVE",
"106 40 OFFCURVE",
"352 -16 OFFCURVE",
"492 -16 QCURVE SMOOTH",
"706 -16 OFFCURVE",
"986 204 OFFCURVE",
"986 542 OFFCURVE",
"828 708 OFFCURVE",
"380 912 OFFCURVE",
"272 1050 OFFCURVE",
"272 1210 OFFCURVE",
"378 1302 OFFCURVE",
"588 1302 OFFCURVE",
"782 1168 OFFCURVE",
"860 984 OFFCURVE",
"868 968 OFFCURVE",
"892 966 OFFCURVE",
"898 992 OFFCURVE",
"886 1202 OFFCURVE",
"900 1386 OFFCURVE",
"892 1402 OFFCURVE",
"868 1394 OFFCURVE",
"794 1370 OFFCURVE",
"684 1364 OFFCURVE",
"542 1370 OFFCURVE",
"510 1370 QCURVE SMOOTH",
"262 1370 OFFCURVE",
"76 1118 OFFCURVE",
"76 886 OFFCURVE",
"184 712 OFFCURVE",
"644 498 OFFCURVE",
"766 366 OFFCURVE",
"766 160 OFFCURVE",
"638 62 OFFCURVE",
"448 64 OFFCURVE",
"260 190 OFFCURVE",
"150 384 OFFCURVE",
"102 522 OFFCURVE",
"92 536 OFFCURVE",
"70 536 OFFCURVE"
);
}
);
userData = {
com.schriftgestaltung.Glyphs.lastChange = "2020-04-17 19:36:31 +0000";
};
width = 1066;
},
{
associatedMasterId = "F16CA8CE-DA8C-4EBD-81D6-AE00C3431B7F";
layerId = "52B4B907-8D17-47E1-B830-1B089EEA069A";
name = "Apr 21 20, 15:01";
paths = (
{
closed = 1;
nodes = (
"94 56 LINE",
"192 12 OFFCURVE",
"362 -16 OFFCURVE",
"492 -16 CURVE SMOOTH",
"756 -16 OFFCURVE",
"986 110 OFFCURVE",
"986 408 CURVE SMOOTH",
"986 832 OFFCURVE",
"272 790 OFFCURVE",
"272 1124 CURVE SMOOTH",
"272 1240 OFFCURVE",
"352 1306 OFFCURVE",
"462 1306 CURVE SMOOTH",
"644 1306 OFFCURVE",
"802 1182 OFFCURVE",
"868 970 CURVE",
"892 968 LINE",
"892 1400 LINE",
"796 1370 LINE",
"510 1370 LINE SMOOTH",
"214 1370 OFFCURVE",
"76 1190 OFFCURVE",
"76 1000 CURVE SMOOTH",
"76 536 OFFCURVE",
"766 640 OFFCURVE",
"766 260 CURVE SMOOTH",
"766 114 OFFCURVE",
"648 60 OFFCURVE",
"558 60 CURVE SMOOTH",
"344 60 OFFCURVE",
"160 276 OFFCURVE",
"94 536 CURVE",
"70 536 LINE"
);
}
);
userData = {
com.schriftgestaltung.Glyphs.lastChange = "2020-04-17 19:36:31 +0000";
};
width = 1066;
},
{
layerId = "02ADBE8D-B3BB-4EC7-92FE-8DBAAB138109";
paths = (
{
closed = 1;
nodes = (
"66 518 OFFCURVE",
"86 296 OFFCURVE",
"80 76 OFFCURVE",
"82 48 OFFCURVE",
"106 40 OFFCURVE",
"352 -16 OFFCURVE",
"492 -16 QCURVE SMOOTH",
"706 -16 OFFCURVE",
"986 204 OFFCURVE",
"986 542 OFFCURVE",
"828 708 OFFCURVE",
"380 912 OFFCURVE",
"272 1050 OFFCURVE",
"272 1210 OFFCURVE",
"378 1302 OFFCURVE",
"588 1302 OFFCURVE",
"782 1168 OFFCURVE",
"860 984 OFFCURVE",
"868 968 OFFCURVE",
"892 966 OFFCURVE",
"898 992 OFFCURVE",
"886 1202 OFFCURVE",
"900 1386 OFFCURVE",
"892 1402 OFFCURVE",
"868 1394 OFFCURVE",
"794 1370 OFFCURVE",
"684 1364 OFFCURVE",
"542 1370 OFFCURVE",
"510 1370 QCURVE SMOOTH",
"262 1370 OFFCURVE",
"76 1118 OFFCURVE",
"76 886 OFFCURVE",
"184 712 OFFCURVE",
"644 498 OFFCURVE",
"766 366 OFFCURVE",
"766 160 OFFCURVE",
"638 62 OFFCURVE",
"448 64 OFFCURVE",
"260 190 OFFCURVE",
"150 384 OFFCURVE",
"102 522 OFFCURVE",
"92 536 OFFCURVE",
"70 536 OFFCURVE"
);
}
);
userData = {
com.schriftgestaltung.Glyphs.lastChange = "2020-04-17 19:36:31 +0000";
};
width = 1066;
},
{
associatedMasterId = "02ADBE8D-B3BB-4EC7-92FE-8DBAAB138109";
layerId = "9751822E-0EAC-47C8-A389-86477F079F61";
name = "Apr 21 20, 15:01";
paths = (
{
closed = 1;
nodes = (
"94 56 LINE",
"192 12 OFFCURVE",
"362 -16 OFFCURVE",
"492 -16 CURVE SMOOTH",
"756 -16 OFFCURVE",
"986 110 OFFCURVE",
"986 408 CURVE SMOOTH",
"986 832 OFFCURVE",
"272 790 OFFCURVE",
"272 1124 CURVE SMOOTH",
"272 1240 OFFCURVE",
"352 1306 OFFCURVE",
"462 1306 CURVE SMOOTH",
"644 1306 OFFCURVE",
"802 1182 OFFCURVE",
"868 970 CURVE",
"892 968 LINE",
"892 1400 LINE",
"796 1370 LINE",
"510 1370 LINE SMOOTH",
"214 1370 OFFCURVE",
"76 1190 OFFCURVE",
"76 1000 CURVE SMOOTH",
"76 536 OFFCURVE",
"766 640 OFFCURVE",
"766 260 CURVE SMOOTH",
"766 114 OFFCURVE",
"648 60 OFFCURVE",
"558 60 CURVE SMOOTH",
"344 60 OFFCURVE",
"160 276 OFFCURVE",
"94 536 CURVE",
"70 536 LINE"
);
}
);
userData = {
com.schriftgestaltung.Glyphs.lastChange = "2020-04-17 19:36:31 +0000";
};
width = 1066;
}
);
unicode = 0053;
},
{
glyphname = Sacute;
layers = (
{
layerId = master01;
paths = (
{
closed = 1;
nodes = (
"764 1738 LINE",
"502 1738 LINE",
"476 1480 LINE",
"506 1480 LINE"
);
},
{
closed = 1;
nodes = (
"94 56 LINE",
"192 12 OFFCURVE",
"362 -16 OFFCURVE",
"492 -16 CURVE SMOOTH",
"756 -16 OFFCURVE",
"986 110 OFFCURVE",
"986 408 CURVE SMOOTH",
"986 832 OFFCURVE",
"272 790 OFFCURVE",
"272 1124 CURVE SMOOTH",
"272 1240 OFFCURVE",
"352 1306 OFFCURVE",
"462 1306 CURVE SMOOTH",
"644 1306 OFFCURVE",
"802 1182 OFFCURVE",
"868 970 CURVE",
"892 968 LINE",
"892 1400 LINE",
"796 1370 LINE",
"510 1370 LINE SMOOTH",
"214 1370 OFFCURVE",
"76 1190 OFFCURVE",
"76 1000 CURVE SMOOTH",
"76 536 OFFCURVE",
"766 640 OFFCURVE",
"766 260 CURVE SMOOTH",
"766 140 OFFCURVE",
"672 60 OFFCURVE",
"558 60 CURVE SMOOTH",
"344 60 OFFCURVE",
"160 276 OFFCURVE",
"94 536 CURVE",
"70 536 LINE"
);
}
);
width = 1066;
},
{
layerId = "F16CA8CE-DA8C-4EBD-81D6-AE00C3431B7F";
paths = (
{
closed = 1;
nodes = (
"764 1738 LINE",
"502 1738 LINE",
"476 1480 LINE",
"506 1480 LINE"
);
},
{
closed = 1;
nodes = (
"94 56 LINE",
"192 12 OFFCURVE",
"362 -16 OFFCURVE",
"492 -16 CURVE SMOOTH",
"756 -16 OFFCURVE",
"986 110 OFFCURVE",
"986 408 CURVE SMOOTH",
"986 832 OFFCURVE",
"272 790 OFFCURVE",
"272 1124 CURVE SMOOTH",
"272 1240 OFFCURVE",
"352 1306 OFFCURVE",
"462 1306 CURVE SMOOTH",
"644 1306 OFFCURVE",
"802 1182 OFFCURVE",
"868 970 CURVE",
"892 968 LINE",
"892 1400 LINE",
"796 1370 LINE",
"510 1370 LINE SMOOTH",
"214 1370 OFFCURVE",
"76 1190 OFFCURVE",
"76 1000 CURVE SMOOTH",
"76 536 OFFCURVE",
"766 640 OFFCURVE",
"766 260 CURVE SMOOTH",
"766 140 OFFCURVE",
"672 60 OFFCURVE",
"558 60 CURVE SMOOTH",
"344 60 OFFCURVE",
"160 276 OFFCURVE",
"94 536 CURVE",
"70 536 LINE"
);
}
);
width = 1066;
},
{
layerId = "02ADBE8D-B3BB-4EC7-92FE-8DBAAB138109";
paths = (
{
closed = 1;
nodes = (
"764 1738 LINE",
"502 1738 LINE",
"476 1480 LINE",
"506 1480 LINE"
);
},
{
closed = 1;
nodes = (
"94 56 LINE",
"192 12 OFFCURVE",
"362 -16 OFFCURVE",
"492 -16 CURVE SMOOTH",
"756 -16 OFFCURVE",
"986 110 OFFCURVE",
"986 408 CURVE SMOOTH",
"986 832 OFFCURVE",
"272 790 OFFCURVE",
"272 1124 CURVE SMOOTH",
"272 1240 OFFCURVE",
"352 1306 OFFCURVE",
"462 1306 CURVE SMOOTH",
"644 1306 OFFCURVE",
"802 1182 OFFCURVE",
"868 970 CURVE",
"892 968 LINE",
"892 1400 LINE",
"796 1370 LINE",
"510 1370 LINE SMOOTH",
"214 1370 OFFCURVE",
"76 1190 OFFCURVE",
"76 1000 CURVE SMOOTH",
"76 536 OFFCURVE",
"766 640 OFFCURVE",
"766 260 CURVE SMOOTH",
"766 140 OFFCURVE",
"672 60 OFFCURVE",
"558 60 CURVE SMOOTH",
"344 60 OFFCURVE",
"160 276 OFFCURVE",
"94 536 CURVE",
"70 536 LINE"
);
}
);
width = 1066;
}
);
unicode = 015A;
},
{
glyphname = Scaron;
layers = (
{
layerId = master01;
paths = (
{
closed = 1;
nodes = (
"380 1738 LINE",
"350 1738 LINE",
"474 1480 LINE",
"640 1480 LINE",
"766 1738 LINE",
"736 1738 LINE",
"558 1598 LINE"
);
},
{
closed = 1;
nodes = (
"94 56 LINE",
"192 12 OFFCURVE",
"362 -16 OFFCURVE",
"492 -16 CURVE SMOOTH",
"756 -16 OFFCURVE",
"986 110 OFFCURVE",
"986 408 CURVE SMOOTH",
"986 832 OFFCURVE",
"272 790 OFFCURVE",
"272 1124 CURVE SMOOTH",
"272 1240 OFFCURVE",
"352 1306 OFFCURVE",
"462 1306 CURVE SMOOTH",
"644 1306 OFFCURVE",
"802 1182 OFFCURVE",
"868 970 CURVE",
"892 968 LINE",
"892 1400 LINE",
"796 1370 LINE",
"510 1370 LINE SMOOTH",
"214 1370 OFFCURVE",
"76 1190 OFFCURVE",
"76 1000 CURVE SMOOTH",
"76 536 OFFCURVE",
"766 640 OFFCURVE",
"766 260 CURVE SMOOTH",
"766 140 OFFCURVE",
"672 60 OFFCURVE",
"558 60 CURVE SMOOTH",
"344 60 OFFCURVE",
"160 276 OFFCURVE",
"94 536 CURVE",
"70 536 LINE"
);
}
);
width = 1066;
},
{
layerId = "F16CA8CE-DA8C-4EBD-81D6-AE00C3431B7F";
paths = (
{
closed = 1;
nodes = (
"380 1738 LINE",
"350 1738 LINE",
"474 1480 LINE",
"640 1480 LINE",
"766 1738 LINE",
"736 1738 LINE",
"558 1598 LINE"
);
},
{
closed = 1;
nodes = (
"94 56 LINE",
"192 12 OFFCURVE",
"362 -16 OFFCURVE",
"492 -16 CURVE SMOOTH",
"756 -16 OFFCURVE",
"986 110 OFFCURVE",
"986 408 CURVE SMOOTH",
"986 832 OFFCURVE",
"272 790 OFFCURVE",
"272 1124 CURVE SMOOTH",
"272 1240 OFFCURVE",
"352 1306 OFFCURVE",
"462 1306 CURVE SMOOTH",
"644 1306 OFFCURVE",
"802 1182 OFFCURVE",
"868 970 CURVE",
"892 968 LINE",
"892 1400 LINE",
"796 1370 LINE",
"510 1370 LINE SMOOTH",
"214 1370 OFFCURVE",
"76 1190 OFFCURVE",
"76 1000 CURVE SMOOTH",
"76 536 OFFCURVE",
"766 640 OFFCURVE",
"766 260 CURVE SMOOTH",
"766 140 OFFCURVE",
"672 60 OFFCURVE",
"558 60 CURVE SMOOTH",
"344 60 OFFCURVE",
"160 276 OFFCURVE",
"94 536 CURVE",
"70 536 LINE"
);
}
);
width = 1066;
},
{
layerId = "02ADBE8D-B3BB-4EC7-92FE-8DBAAB138109";
paths = (
{
closed = 1;
nodes = (
"380 1738 LINE",
"350 1738 LINE",
"474 1480 LINE",
"640 1480 LINE",
"766 1738 LINE",
"736 1738 LINE",
"558 1598 LINE"
);
},
{
closed = 1;
nodes = (
"94 56 LINE",
"192 12 OFFCURVE",
"362 -16 OFFCURVE",
"492 -16 CURVE SMOOTH",
"756 -16 OFFCURVE",
"986 110 OFFCURVE",
"986 408 CURVE SMOOTH",
"986 832 OFFCURVE",
"272 790 OFFCURVE",
"272 1124 CURVE SMOOTH",
"272 1240 OFFCURVE",
"352 1306 OFFCURVE",
"462 1306 CURVE SMOOTH",
"644 1306 OFFCURVE",
"802 1182 OFFCURVE",
"868 970 CURVE",
"892 968 LINE",
"892 1400 LINE",
"796 1370 LINE",
"510 1370 LINE SMOOTH",
"214 1370 OFFCURVE",
"76 1190 OFFCURVE",
"76 1000 CURVE SMOOTH",
"76 536 OFFCURVE",
"766 640 OFFCURVE",
"766 260 CURVE SMOOTH",
"766 140 OFFCURVE",
"672 60 OFFCURVE",
"558 60 CURVE SMOOTH",
"344 60 OFFCURVE",
"160 276 OFFCURVE",
"94 536 CURVE",
"70 536 LINE"
);
}
);
width = 1066;
}
);
unicode = 0160;
},
{
color = 4;
glyphname = T;
layers = (
{
layerId = master01;
paths = (
{
closed = 1;
nodes = (
"68 932 OFFCURVE",
"88 964 OFFCURVE",
"200 1160 OFFCURVE",
"308 1292 OFFCURVE",
"328 1304 OFFCURVE",
"408 1308 OFFCURVE",
"480 1308 OFFCURVE",
"508 1292 OFFCURVE",
"512 1260 OFFCURVE",
"522 812 OFFCURVE",
"520 230 OFFCURVE",
"514 202 OFFCURVE",
"470 134 OFFCURVE",
"364 36 OFFCURVE",
"364 0 OFFCURVE",
"402 -6 OFFCURVE",
"552 12 OFFCURVE",
"640 12 QCURVE SMOOTH",
"732 12 OFFCURVE",
"872 -4 OFFCURVE",
"916 -8 OFFCURVE",
"918 32 OFFCURVE",
"824 118 OFFCURVE",
"770 200 OFFCURVE",
"764 230 OFFCURVE",
"762 812 OFFCURVE",
"776 1272 OFFCURVE",
"784 1300 OFFCURVE",
"816 1304 OFFCURVE",
"884 1308 OFFCURVE",
"956 1304 OFFCURVE",
"980 1280 OFFCURVE",
"1090 1146 OFFCURVE",
"1190 974 OFFCURVE",
"1208 942 OFFCURVE",
"1244 942 OFFCURVE",
"1256 982 OFFCURVE",
"1242 1156 OFFCURVE",
"1252 1336 OFFCURVE",
"1244 1376 OFFCURVE",
"1204 1380 OFFCURVE",
"908 1368 OFFCURVE",
"648 1368 QCURVE SMOOTH",
"324 1368 OFFCURVE",
"92 1382 OFFCURVE",
"44 1384 OFFCURVE",
"32 1336 OFFCURVE",
"40 1184 OFFCURVE",
"30 964 OFFCURVE",
"40 932 OFFCURVE"
);
}
);
userData = {
com.schriftgestaltung.Glyphs.lastChange = "2020-04-17 19:36:31 +0000";
};
width = 1320;
},
{
associatedMasterId = master01;
layerId = "89268012-C9DB-4CD5-A139-89D59394A2EC";
name = "Apr 21 20, 19:04";
paths = (
{
closed = 1;
nodes = (
"54 930 LINE",
"310 1298 LINE",
"510 1298 LINE",
"510 212 LINE",
"362 0 LINE",
"918 0 LINE",
"770 212 LINE",
"770 1300 LINE",
"970 1300 LINE",
"1228 930 LINE",
"1244 932 LINE",
"1244 1370 LINE",
"38 1370 LINE",
"38 932 LINE"
);
}
);
userData = {
com.schriftgestaltung.Glyphs.lastChange = "2020-04-17 19:36:31 +0000";
};
visible = 1;
width = 1320;
},
{
layerId = "F16CA8CE-DA8C-4EBD-81D6-AE00C3431B7F";
paths = (
{
closed = 1;
nodes = (
"68 932 OFFCURVE",
"88 964 OFFCURVE",
"200 1160 OFFCURVE",
"308 1292 OFFCURVE",
"328 1304 OFFCURVE",
"408 1308 OFFCURVE",
"480 1308 OFFCURVE",
"508 1292 OFFCURVE",
"512 1260 OFFCURVE",
"522 812 OFFCURVE",
"520 230 OFFCURVE",
"514 202 OFFCURVE",
"470 134 OFFCURVE",
"364 36 OFFCURVE",
"364 0 OFFCURVE",
"402 -6 OFFCURVE",
"552 12 OFFCURVE",
"640 12 QCURVE SMOOTH",
"732 12 OFFCURVE",
"872 -4 OFFCURVE",
"916 -8 OFFCURVE",
"918 32 OFFCURVE",
"824 118 OFFCURVE",
"770 200 OFFCURVE",
"764 230 OFFCURVE",
"762 812 OFFCURVE",
"776 1272 OFFCURVE",
"784 1300 OFFCURVE",
"816 1304 OFFCURVE",
"884 1308 OFFCURVE",
"956 1304 OFFCURVE",
"980 1280 OFFCURVE",
"1090 1146 OFFCURVE",
"1190 974 OFFCURVE",
"1208 942 OFFCURVE",
"1244 942 OFFCURVE",
"1256 982 OFFCURVE",
"1242 1156 OFFCURVE",
"1252 1336 OFFCURVE",
"1244 1376 OFFCURVE",
"1204 1380 OFFCURVE",
"908 1368 OFFCURVE",
"648 1368 QCURVE SMOOTH",
"324 1368 OFFCURVE",
"92 1382 OFFCURVE",
"44 1384 OFFCURVE",
"32 1336 OFFCURVE",
"40 1184 OFFCURVE",
"30 964 OFFCURVE",
"40 932 OFFCURVE"
);
}
);
userData = {
com.schriftgestaltung.Glyphs.lastChange = "2020-04-17 19:36:31 +0000";
};
width = 1320;
},
{
associatedMasterId = "F16CA8CE-DA8C-4EBD-81D6-AE00C3431B7F";
layerId = "84B27B80-9EDC-40AB-A0EA-1BC08DF079B7";
name = "Apr 21 20, 19:04";
paths = (
{
closed = 1;
nodes = (
"54 930 LINE",
"310 1298 LINE",
"510 1298 LINE",
"510 212 LINE",
"362 0 LINE",
"918 0 LINE",
"770 212 LINE",
"770 1300 LINE",
"970 1300 LINE",
"1228 930 LINE",
"1244 932 LINE",
"1244 1370 LINE",
"38 1370 LINE",
"38 932 LINE"
);
}
);
userData = {
com.schriftgestaltung.Glyphs.lastChange = "2020-04-17 19:36:31 +0000";
};
width = 1320;
},
{
layerId = "02ADBE8D-B3BB-4EC7-92FE-8DBAAB138109";
paths = (
{
closed = 1;
nodes = (
"68 932 OFFCURVE",
"88 964 OFFCURVE",
"200 1160 OFFCURVE",
"308 1292 OFFCURVE",
"328 1304 OFFCURVE",
"408 1308 OFFCURVE",
"480 1308 OFFCURVE",
"508 1292 OFFCURVE",
"512 1260 OFFCURVE",
"522 812 OFFCURVE",
"520 230 OFFCURVE",
"514 202 OFFCURVE",
"470 134 OFFCURVE",
"364 36 OFFCURVE",
"364 0 OFFCURVE",
"402 -6 OFFCURVE",
"552 12 OFFCURVE",
"640 12 QCURVE SMOOTH",
"732 12 OFFCURVE",
"872 -4 OFFCURVE",
"916 -8 OFFCURVE",
"918 32 OFFCURVE",
"824 118 OFFCURVE",
"770 200 OFFCURVE",
"764 230 OFFCURVE",
"762 812 OFFCURVE",
"776 1272 OFFCURVE",
"784 1300 OFFCURVE",
"816 1304 OFFCURVE",
"884 1308 OFFCURVE",
"956 1304 OFFCURVE",
"980 1280 OFFCURVE",
"1090 1146 OFFCURVE",
"1190 974 OFFCURVE",
"1208 942 OFFCURVE",
"1244 942 OFFCURVE",
"1256 982 OFFCURVE",
"1242 1156 OFFCURVE",
"1252 1336 OFFCURVE",
"1244 1376 OFFCURVE",
"1204 1380 OFFCURVE",
"908 1368 OFFCURVE",
"648 1368 QCURVE SMOOTH",
"324 1368 OFFCURVE",
"92 1382 OFFCURVE",
"44 1384 OFFCURVE",
"32 1336 OFFCURVE",
"40 1184 OFFCURVE",
"30 964 OFFCURVE",
"40 932 OFFCURVE"
);
}
);
userData = {
com.schriftgestaltung.Glyphs.lastChange = "2020-04-17 19:36:31 +0000";
};
width = 1320;
},
{
associatedMasterId = "02ADBE8D-B3BB-4EC7-92FE-8DBAAB138109";
layerId = "8174B563-0C05-42E5-96FE-5379AF402F7D";
name = "Apr 21 20, 19:04";
paths = (
{
closed = 1;
nodes = (
"54 930 LINE",
"310 1298 LINE",
"510 1298 LINE",
"510 212 LINE",
"362 0 LINE",
"918 0 LINE",
"770 212 LINE",
"770 1300 LINE",
"970 1300 LINE",
"1228 930 LINE",
"1244 932 LINE",
"1244 1370 LINE",
"38 1370 LINE",
"38 932 LINE"
);
}
);
userData = {
com.schriftgestaltung.Glyphs.lastChange = "2020-04-17 19:36:31 +0000";
};
width = 1320;
}
);
unicode = 0054;
},
{
glyphname = Tcaron;
layers = (
{
layerId = master01;
paths = (
{
closed = 1;
nodes = (
"450 1738 LINE",
"420 1738 LINE",
"544 1480 LINE",
"710 1480 LINE",
"836 1738 LINE",
"806 1738 LINE",
"628 1598 LINE"
);
},
{
closed = 1;
nodes = (
"54 930 LINE",
"310 1298 LINE",
"510 1298 LINE",
"510 212 LINE",
"362 0 LINE",
"918 0 LINE",
"770 212 LINE",
"770 1300 LINE",
"970 1300 LINE",
"1228 930 LINE",
"1244 932 LINE",
"1244 1370 LINE",
"38 1370 LINE",
"38 932 LINE"
);
}
);
width = 1320;
},
{
layerId = "F16CA8CE-DA8C-4EBD-81D6-AE00C3431B7F";
paths = (
{
closed = 1;
nodes = (
"450 1738 LINE",
"420 1738 LINE",
"544 1480 LINE",
"710 1480 LINE",
"836 1738 LINE",
"806 1738 LINE",
"628 1598 LINE"
);
},
{
closed = 1;
nodes = (
"54 930 LINE",
"310 1298 LINE",
"510 1298 LINE",
"510 212 LINE",
"362 0 LINE",
"918 0 LINE",
"770 212 LINE",
"770 1300 LINE",
"970 1300 LINE",
"1228 930 LINE",
"1244 932 LINE",
"1244 1370 LINE",
"38 1370 LINE",
"38 932 LINE"
);
}
);
width = 1320;
},
{
layerId = "02ADBE8D-B3BB-4EC7-92FE-8DBAAB138109";
paths = (
{
closed = 1;
nodes = (
"450 1738 LINE",
"420 1738 LINE",
"544 1480 LINE",
"710 1480 LINE",
"836 1738 LINE",
"806 1738 LINE",
"628 1598 LINE"
);
},
{
closed = 1;
nodes = (
"54 930 LINE",
"310 1298 LINE",
"510 1298 LINE",
"510 212 LINE",
"362 0 LINE",
"918 0 LINE",
"770 212 LINE",
"770 1300 LINE",
"970 1300 LINE",
"1228 930 LINE",
"1244 932 LINE",
"1244 1370 LINE",
"38 1370 LINE",
"38 932 LINE"
);
}
);
width = 1320;
}
);
unicode = 0164;
},
{
color = 4;
glyphname = U;
layers = (
{
layerId = master01;
paths = (
{
closed = 1;
nodes = (
"1320 1196 OFFCURVE",
"1392 1288 OFFCURVE",
"1464 1336 OFFCURVE",
"1484 1376 OFFCURVE",
"1444 1378 OFFCURVE",
"1280 1364 OFFCURVE",
"1084 1374 OFFCURVE",
"1056 1374 OFFCURVE",
"1062 1350 OFFCURVE",
"1128 1292 OFFCURVE",
"1202 1202 OFFCURVE",
"1212 1176 OFFCURVE",
"1212 628 OFFCURVE",
"1204 308 OFFCURVE",
"1028 68 OFFCURVE",
"868 68 QCURVE SMOOTH",
"664 68 OFFCURVE",
"488 244 OFFCURVE",
"484 744 OFFCURVE",
"488 1148 OFFCURVE",
"488 1164 OFFCURVE",
"546 1258 OFFCURVE",
"628 1344 OFFCURVE",
"626 1378 OFFCURVE",
"586 1378 OFFCURVE",
"352 1364 OFFCURVE",
"120 1380 OFFCURVE",
"80 1378 OFFCURVE",
"92 1344 OFFCURVE",
"160 1276 OFFCURVE",
"220 1168 OFFCURVE",
"228 1138 OFFCURVE",
"230 162 OFFCURVE",
"580 -32 OFFCURVE",
"796 -32 QCURVE SMOOTH",
"1044 -28 OFFCURVE",
"1308 264 OFFCURVE",
"1304 832 OFFCURVE",
"1308 1168 OFFCURVE"
);
}
);
userData = {
com.schriftgestaltung.Glyphs.lastChange = "2020-04-17 19:36:31 +0000";
};
width = 1562;
},
{
associatedMasterId = master01;
layerId = "5823CD59-8722-4B8B-85F5-EAE85FA9E39E";
name = "Apr 21 20, 19:17";
paths = (
{
closed = 1;
nodes = (
"1492 1370 LINE",
"1042 1370 LINE",
"1212 1190 LINE",
"1212 602 LINE SMOOTH",
"1212 154 OFFCURVE",
"1028 66 OFFCURVE",
"868 66 CURVE SMOOTH",
"674 66 OFFCURVE",
"488 102 OFFCURVE",
"488 472 CURVE SMOOTH",
"488 1158 LINE",
"636 1370 LINE",
"80 1370 LINE",
"226 1160 LINE",
"226 442 LINE SMOOTH",
"226 -30 OFFCURVE",
"672 -30 OFFCURVE",
"794 -30 CURVE SMOOTH",
"1000 -30 OFFCURVE",
"1154 60 OFFCURVE",
"1226 192 CURVE SMOOTH",
"1282 296 OFFCURVE",
"1308 372 OFFCURVE",
"1308 554 CURVE SMOOTH",
"1308 1184 LINE",
"1310 1190 LINE"
);
}
);
userData = {
com.schriftgestaltung.Glyphs.lastChange = "2020-04-17 19:36:31 +0000";
};
visible = 1;
width = 1562;
},
{
layerId = "F16CA8CE-DA8C-4EBD-81D6-AE00C3431B7F";
paths = (
{
closed = 1;
nodes = (
"1320 1196 OFFCURVE",
"1392 1288 OFFCURVE",
"1464 1336 OFFCURVE",
"1484 1376 OFFCURVE",
"1444 1378 OFFCURVE",
"1280 1364 OFFCURVE",
"1084 1374 OFFCURVE",
"1056 1374 OFFCURVE",
"1062 1350 OFFCURVE",
"1128 1292 OFFCURVE",
"1202 1202 OFFCURVE",
"1212 1176 OFFCURVE",
"1212 628 OFFCURVE",
"1204 308 OFFCURVE",
"1028 68 OFFCURVE",
"868 68 QCURVE SMOOTH",
"664 68 OFFCURVE",
"488 244 OFFCURVE",
"484 744 OFFCURVE",
"488 1148 OFFCURVE",
"488 1164 OFFCURVE",
"546 1258 OFFCURVE",
"628 1344 OFFCURVE",
"626 1378 OFFCURVE",
"586 1378 OFFCURVE",
"352 1364 OFFCURVE",
"120 1380 OFFCURVE",
"80 1378 OFFCURVE",
"92 1344 OFFCURVE",
"160 1276 OFFCURVE",
"220 1168 OFFCURVE",
"228 1138 OFFCURVE",
"230 162 OFFCURVE",
"580 -32 OFFCURVE",
"796 -32 QCURVE SMOOTH",
"1044 -28 OFFCURVE",
"1308 264 OFFCURVE",
"1304 832 OFFCURVE",
"1308 1168 OFFCURVE"
);
}
);
userData = {
com.schriftgestaltung.Glyphs.lastChange = "2020-04-17 19:36:31 +0000";
};
width = 1562;
},
{
associatedMasterId = "F16CA8CE-DA8C-4EBD-81D6-AE00C3431B7F";
layerId = "63ED5A0F-074E-40EB-9A69-75693D9F43F2";
name = "Apr 21 20, 19:17";
paths = (
{
closed = 1;
nodes = (
"1492 1370 LINE",
"1042 1370 LINE",
"1212 1190 LINE",
"1212 602 LINE SMOOTH",
"1212 154 OFFCURVE",
"1028 66 OFFCURVE",
"868 66 CURVE SMOOTH",
"674 66 OFFCURVE",
"488 102 OFFCURVE",
"488 472 CURVE SMOOTH",
"488 1158 LINE",
"636 1370 LINE",
"80 1370 LINE",
"226 1160 LINE",
"226 442 LINE SMOOTH",
"226 -30 OFFCURVE",
"672 -30 OFFCURVE",
"794 -30 CURVE SMOOTH",
"1000 -30 OFFCURVE",
"1154 60 OFFCURVE",
"1226 192 CURVE SMOOTH",
"1282 296 OFFCURVE",
"1308 372 OFFCURVE",
"1308 554 CURVE SMOOTH",
"1308 1184 LINE",
"1310 1190 LINE"
);
}
);
userData = {
com.schriftgestaltung.Glyphs.lastChange = "2020-04-17 19:36:31 +0000";
};
width = 1562;
},
{
layerId = "02ADBE8D-B3BB-4EC7-92FE-8DBAAB138109";
paths = (
{
closed = 1;
nodes = (
"1320 1196 OFFCURVE",
"1392 1288 OFFCURVE",
"1464 1336 OFFCURVE",
"1484 1376 OFFCURVE",
"1444 1378 OFFCURVE",
"1280 1364 OFFCURVE",
"1084 1374 OFFCURVE",
"1056 1374 OFFCURVE",
"1062 1350 OFFCURVE",
"1128 1292 OFFCURVE",
"1202 1202 OFFCURVE",
"1212 1176 OFFCURVE",
"1212 628 OFFCURVE",
"1204 308 OFFCURVE",
"1028 68 OFFCURVE",
"868 68 QCURVE SMOOTH",
"664 68 OFFCURVE",
"488 244 OFFCURVE",
"484 744 OFFCURVE",
"488 1148 OFFCURVE",
"488 1164 OFFCURVE",
"546 1258 OFFCURVE",
"628 1344 OFFCURVE",
"626 1378 OFFCURVE",
"586 1378 OFFCURVE",
"352 1364 OFFCURVE",
"120 1380 OFFCURVE",
"80 1378 OFFCURVE",
"92 1344 OFFCURVE",
"160 1276 OFFCURVE",
"220 1168 OFFCURVE",
"228 1138 OFFCURVE",
"230 162 OFFCURVE",
"580 -32 OFFCURVE",
"796 -32 QCURVE SMOOTH",
"1044 -28 OFFCURVE",
"1308 264 OFFCURVE",
"1304 832 OFFCURVE",
"1308 1168 OFFCURVE"
);
}
);
userData = {
com.schriftgestaltung.Glyphs.lastChange = "2020-04-17 19:36:31 +0000";
};
width = 1562;
},
{
associatedMasterId = "02ADBE8D-B3BB-4EC7-92FE-8DBAAB138109";
layerId = "D5E58270-0FA1-4EE3-9F14-0353FC882A0B";
name = "Apr 21 20, 19:17";
paths = (
{
closed = 1;
nodes = (
"1492 1370 LINE",
"1042 1370 LINE",
"1212 1190 LINE",
"1212 602 LINE SMOOTH",
"1212 154 OFFCURVE",
"1028 66 OFFCURVE",
"868 66 CURVE SMOOTH",
"674 66 OFFCURVE",
"488 102 OFFCURVE",
"488 472 CURVE SMOOTH",
"488 1158 LINE",
"636 1370 LINE",
"80 1370 LINE",
"226 1160 LINE",
"226 442 LINE SMOOTH",
"226 -30 OFFCURVE",
"672 -30 OFFCURVE",
"794 -30 CURVE SMOOTH",
"1000 -30 OFFCURVE",
"1154 60 OFFCURVE",
"1226 192 CURVE SMOOTH",
"1282 296 OFFCURVE",
"1308 372 OFFCURVE",
"1308 554 CURVE SMOOTH",
"1308 1184 LINE",
"1310 1190 LINE"
);
}
);
userData = {
com.schriftgestaltung.Glyphs.lastChange = "2020-04-17 19:36:31 +0000";
};
width = 1562;
}
);
unicode = 0055;
},
{
glyphname = Uacute;
layers = (
{
layerId = master01;
paths = (
{
closed = 1;
nodes = (
"1054 1738 LINE",
"792 1738 LINE",
"766 1480 LINE",
"796 1480 LINE"
);
},
{
closed = 1;
nodes = (
"636 1370 LINE",
"80 1370 LINE",
"226 1160 LINE",
"226 442 LINE SMOOTH",
"226 -30 OFFCURVE",
"672 -30 OFFCURVE",
"794 -30 CURVE SMOOTH",
"1000 -30 OFFCURVE",
"1154 60 OFFCURVE",
"1226 192 CURVE SMOOTH",
"1282 296 OFFCURVE",
"1308 372 OFFCURVE",
"1308 554 CURVE SMOOTH",
"1308 1190 LINE",
"1456 1370 LINE",
"1058 1370 LINE",
"1212 1190 LINE",
"1212 602 LINE SMOOTH",
"1212 154 OFFCURVE",
"1028 66 OFFCURVE",
"868 66 CURVE SMOOTH",
"674 66 OFFCURVE",
"488 102 OFFCURVE",
"488 472 CURVE SMOOTH",
"488 1158 LINE"
);
}
);
width = 1526;
},
{
layerId = "F16CA8CE-DA8C-4EBD-81D6-AE00C3431B7F";
paths = (
{
closed = 1;
nodes = (
"1054 1738 LINE",
"792 1738 LINE",
"766 1480 LINE",
"796 1480 LINE"
);
},
{
closed = 1;
nodes = (
"636 1370 LINE",
"80 1370 LINE",
"226 1160 LINE",
"226 442 LINE SMOOTH",
"226 -30 OFFCURVE",
"672 -30 OFFCURVE",
"794 -30 CURVE SMOOTH",
"1000 -30 OFFCURVE",
"1154 60 OFFCURVE",
"1226 192 CURVE SMOOTH",
"1282 296 OFFCURVE",
"1308 372 OFFCURVE",
"1308 554 CURVE SMOOTH",
"1308 1190 LINE",
"1456 1370 LINE",
"1058 1370 LINE",
"1212 1190 LINE",
"1212 602 LINE SMOOTH",
"1212 154 OFFCURVE",
"1028 66 OFFCURVE",
"868 66 CURVE SMOOTH",
"674 66 OFFCURVE",
"488 102 OFFCURVE",
"488 472 CURVE SMOOTH",
"488 1158 LINE"
);
}
);
width = 1526;
},
{
layerId = "02ADBE8D-B3BB-4EC7-92FE-8DBAAB138109";
paths = (
{
closed = 1;
nodes = (
"1054 1738 LINE",
"792 1738 LINE",
"766 1480 LINE",
"796 1480 LINE"
);
},
{
closed = 1;
nodes = (
"636 1370 LINE",
"80 1370 LINE",
"226 1160 LINE",
"226 442 LINE SMOOTH",
"226 -30 OFFCURVE",
"672 -30 OFFCURVE",
"794 -30 CURVE SMOOTH",
"1000 -30 OFFCURVE",
"1154 60 OFFCURVE",
"1226 192 CURVE SMOOTH",
"1282 296 OFFCURVE",
"1308 372 OFFCURVE",
"1308 554 CURVE SMOOTH",
"1308 1190 LINE",
"1456 1370 LINE",
"1058 1370 LINE",
"1212 1190 LINE",
"1212 602 LINE SMOOTH",
"1212 154 OFFCURVE",
"1028 66 OFFCURVE",
"868 66 CURVE SMOOTH",
"674 66 OFFCURVE",
"488 102 OFFCURVE",
"488 472 CURVE SMOOTH",
"488 1158 LINE"
);
}
);
width = 1526;
}
);
unicode = 00DA;
},
{
glyphname = Ucircumflex;
layers = (
{
layerId = master01;
paths = (
{
closed = 1;
nodes = (
"648 1480 LINE",
"826 1620 LINE",
"1004 1480 LINE",
"1034 1480 LINE",
"908 1738 LINE",
"742 1738 LINE",
"618 1480 LINE"
);
},
{
closed = 1;
nodes = (
"636 1370 LINE",
"80 1370 LINE",
"226 1160 LINE",
"226 442 LINE SMOOTH",
"226 -30 OFFCURVE",
"672 -30 OFFCURVE",
"794 -30 CURVE SMOOTH",
"1000 -30 OFFCURVE",
"1154 60 OFFCURVE",
"1226 192 CURVE SMOOTH",
"1282 296 OFFCURVE",
"1308 372 OFFCURVE",
"1308 554 CURVE SMOOTH",
"1308 1190 LINE",
"1456 1370 LINE",
"1058 1370 LINE",
"1212 1190 LINE",
"1212 602 LINE SMOOTH",
"1212 154 OFFCURVE",
"1028 66 OFFCURVE",
"868 66 CURVE SMOOTH",
"674 66 OFFCURVE",
"488 102 OFFCURVE",
"488 472 CURVE SMOOTH",
"488 1158 LINE"
);
}
);
width = 1526;
},
{
layerId = "F16CA8CE-DA8C-4EBD-81D6-AE00C3431B7F";
paths = (
{
closed = 1;
nodes = (
"648 1480 LINE",
"826 1620 LINE",
"1004 1480 LINE",
"1034 1480 LINE",
"908 1738 LINE",
"742 1738 LINE",
"618 1480 LINE"
);
},
{
closed = 1;
nodes = (
"636 1370 LINE",
"80 1370 LINE",
"226 1160 LINE",
"226 442 LINE SMOOTH",
"226 -30 OFFCURVE",
"672 -30 OFFCURVE",
"794 -30 CURVE SMOOTH",
"1000 -30 OFFCURVE",
"1154 60 OFFCURVE",
"1226 192 CURVE SMOOTH",
"1282 296 OFFCURVE",
"1308 372 OFFCURVE",
"1308 554 CURVE SMOOTH",
"1308 1190 LINE",
"1456 1370 LINE",
"1058 1370 LINE",
"1212 1190 LINE",
"1212 602 LINE SMOOTH",
"1212 154 OFFCURVE",
"1028 66 OFFCURVE",
"868 66 CURVE SMOOTH",
"674 66 OFFCURVE",
"488 102 OFFCURVE",
"488 472 CURVE SMOOTH",
"488 1158 LINE"
);
}
);
width = 1526;
},
{
layerId = "02ADBE8D-B3BB-4EC7-92FE-8DBAAB138109";
paths = (
{
closed = 1;
nodes = (
"648 1480 LINE",
"826 1620 LINE",
"1004 1480 LINE",
"1034 1480 LINE",
"908 1738 LINE",
"742 1738 LINE",
"618 1480 LINE"
);
},
{
closed = 1;
nodes = (
"636 1370 LINE",
"80 1370 LINE",
"226 1160 LINE",
"226 442 LINE SMOOTH",
"226 -30 OFFCURVE",
"672 -30 OFFCURVE",
"794 -30 CURVE SMOOTH",
"1000 -30 OFFCURVE",
"1154 60 OFFCURVE",
"1226 192 CURVE SMOOTH",
"1282 296 OFFCURVE",
"1308 372 OFFCURVE",
"1308 554 CURVE SMOOTH",
"1308 1190 LINE",
"1456 1370 LINE",
"1058 1370 LINE",
"1212 1190 LINE",
"1212 602 LINE SMOOTH",
"1212 154 OFFCURVE",
"1028 66 OFFCURVE",
"868 66 CURVE SMOOTH",
"674 66 OFFCURVE",
"488 102 OFFCURVE",
"488 472 CURVE SMOOTH",
"488 1158 LINE"
);
}
);
width = 1526;
}
);
unicode = 00DB;
},
{
glyphname = Udieresis;
layers = (
{
layerId = master01;
paths = (
{
closed = 1;
nodes = (
"606 1472 LINE",
"768 1656 LINE",
"606 1838 LINE",
"444 1656 LINE"
);
},
{
closed = 1;
nodes = (
"1098 1472 LINE",
"1258 1656 LINE",
"1098 1838 LINE",
"934 1656 LINE"
);
},
{
closed = 1;
nodes = (
"636 1370 LINE",
"80 1370 LINE",
"226 1160 LINE",
"226 442 LINE SMOOTH",
"226 -30 OFFCURVE",
"672 -30 OFFCURVE",
"794 -30 CURVE SMOOTH",
"1000 -30 OFFCURVE",
"1154 60 OFFCURVE",
"1226 192 CURVE SMOOTH",
"1282 296 OFFCURVE",
"1308 372 OFFCURVE",
"1308 554 CURVE SMOOTH",
"1308 1190 LINE",
"1456 1370 LINE",
"1058 1370 LINE",
"1212 1190 LINE",
"1212 602 LINE SMOOTH",
"1212 154 OFFCURVE",
"1028 66 OFFCURVE",
"868 66 CURVE SMOOTH",
"674 66 OFFCURVE",
"488 102 OFFCURVE",
"488 472 CURVE SMOOTH",
"488 1158 LINE"
);
}
);
width = 1526;
},
{
layerId = "F16CA8CE-DA8C-4EBD-81D6-AE00C3431B7F";
paths = (
{
closed = 1;
nodes = (
"606 1472 LINE",
"768 1656 LINE",
"606 1838 LINE",
"444 1656 LINE"
);
},
{
closed = 1;
nodes = (
"1098 1472 LINE",
"1258 1656 LINE",
"1098 1838 LINE",
"934 1656 LINE"
);
},
{
closed = 1;
nodes = (
"636 1370 LINE",
"80 1370 LINE",
"226 1160 LINE",
"226 442 LINE SMOOTH",
"226 -30 OFFCURVE",
"672 -30 OFFCURVE",
"794 -30 CURVE SMOOTH",
"1000 -30 OFFCURVE",
"1154 60 OFFCURVE",
"1226 192 CURVE SMOOTH",
"1282 296 OFFCURVE",
"1308 372 OFFCURVE",
"1308 554 CURVE SMOOTH",
"1308 1190 LINE",
"1456 1370 LINE",
"1058 1370 LINE",
"1212 1190 LINE",
"1212 602 LINE SMOOTH",
"1212 154 OFFCURVE",
"1028 66 OFFCURVE",
"868 66 CURVE SMOOTH",
"674 66 OFFCURVE",
"488 102 OFFCURVE",
"488 472 CURVE SMOOTH",
"488 1158 LINE"
);
}
);
width = 1526;
},
{
layerId = "02ADBE8D-B3BB-4EC7-92FE-8DBAAB138109";
paths = (
{
closed = 1;
nodes = (
"606 1472 LINE",
"768 1656 LINE",
"606 1838 LINE",
"444 1656 LINE"
);
},
{
closed = 1;
nodes = (
"1098 1472 LINE",
"1258 1656 LINE",
"1098 1838 LINE",
"934 1656 LINE"
);
},
{
closed = 1;
nodes = (
"636 1370 LINE",
"80 1370 LINE",
"226 1160 LINE",
"226 442 LINE SMOOTH",
"226 -30 OFFCURVE",
"672 -30 OFFCURVE",
"794 -30 CURVE SMOOTH",
"1000 -30 OFFCURVE",
"1154 60 OFFCURVE",
"1226 192 CURVE SMOOTH",
"1282 296 OFFCURVE",
"1308 372 OFFCURVE",
"1308 554 CURVE SMOOTH",
"1308 1190 LINE",
"1456 1370 LINE",
"1058 1370 LINE",
"1212 1190 LINE",
"1212 602 LINE SMOOTH",
"1212 154 OFFCURVE",
"1028 66 OFFCURVE",
"868 66 CURVE SMOOTH",
"674 66 OFFCURVE",
"488 102 OFFCURVE",
"488 472 CURVE SMOOTH",
"488 1158 LINE"
);
}
);
width = 1526;
}
);
unicode = 00DC;
},
{
glyphname = Ugrave;
layers = (
{
layerId = master01;
paths = (
{
closed = 1;
nodes = (
"906 1480 LINE",
"880 1738 LINE",
"618 1738 LINE",
"876 1480 LINE"
);
},
{
closed = 1;
nodes = (
"636 1370 LINE",
"80 1370 LINE",
"226 1160 LINE",
"226 442 LINE SMOOTH",
"226 -30 OFFCURVE",
"672 -30 OFFCURVE",
"794 -30 CURVE SMOOTH",
"1000 -30 OFFCURVE",
"1154 60 OFFCURVE",
"1226 192 CURVE SMOOTH",
"1282 296 OFFCURVE",
"1308 372 OFFCURVE",
"1308 554 CURVE SMOOTH",
"1308 1190 LINE",
"1456 1370 LINE",
"1058 1370 LINE",
"1212 1190 LINE",
"1212 602 LINE SMOOTH",
"1212 154 OFFCURVE",
"1028 66 OFFCURVE",
"868 66 CURVE SMOOTH",
"674 66 OFFCURVE",
"488 102 OFFCURVE",
"488 472 CURVE SMOOTH",
"488 1158 LINE"
);
}
);
width = 1526;
},
{
layerId = "F16CA8CE-DA8C-4EBD-81D6-AE00C3431B7F";
paths = (
{
closed = 1;
nodes = (
"906 1480 LINE",
"880 1738 LINE",
"618 1738 LINE",
"876 1480 LINE"
);
},
{
closed = 1;
nodes = (
"636 1370 LINE",
"80 1370 LINE",
"226 1160 LINE",
"226 442 LINE SMOOTH",
"226 -30 OFFCURVE",
"672 -30 OFFCURVE",
"794 -30 CURVE SMOOTH",
"1000 -30 OFFCURVE",
"1154 60 OFFCURVE",
"1226 192 CURVE SMOOTH",
"1282 296 OFFCURVE",
"1308 372 OFFCURVE",
"1308 554 CURVE SMOOTH",
"1308 1190 LINE",
"1456 1370 LINE",
"1058 1370 LINE",
"1212 1190 LINE",
"1212 602 LINE SMOOTH",
"1212 154 OFFCURVE",
"1028 66 OFFCURVE",
"868 66 CURVE SMOOTH",
"674 66 OFFCURVE",
"488 102 OFFCURVE",
"488 472 CURVE SMOOTH",
"488 1158 LINE"
);
}
);
width = 1526;
},
{
layerId = "02ADBE8D-B3BB-4EC7-92FE-8DBAAB138109";
paths = (
{
closed = 1;
nodes = (
"906 1480 LINE",
"880 1738 LINE",
"618 1738 LINE",
"876 1480 LINE"
);
},
{
closed = 1;
nodes = (
"636 1370 LINE",
"80 1370 LINE",
"226 1160 LINE",
"226 442 LINE SMOOTH",
"226 -30 OFFCURVE",
"672 -30 OFFCURVE",
"794 -30 CURVE SMOOTH",
"1000 -30 OFFCURVE",
"1154 60 OFFCURVE",
"1226 192 CURVE SMOOTH",
"1282 296 OFFCURVE",
"1308 372 OFFCURVE",
"1308 554 CURVE SMOOTH",
"1308 1190 LINE",
"1456 1370 LINE",
"1058 1370 LINE",
"1212 1190 LINE",
"1212 602 LINE SMOOTH",
"1212 154 OFFCURVE",
"1028 66 OFFCURVE",
"868 66 CURVE SMOOTH",
"674 66 OFFCURVE",
"488 102 OFFCURVE",
"488 472 CURVE SMOOTH",
"488 1158 LINE"
);
}
);
width = 1526;
}
);
unicode = 00D9;
},
{
glyphname = Uring;
layers = (
{
layerId = master01;
paths = (
{
closed = 1;
nodes = (
"630 1508 OFFCURVE",
"718 1420 OFFCURVE",
"826 1420 CURVE SMOOTH",
"934 1420 OFFCURVE",
"1022 1508 OFFCURVE",
"1022 1616 CURVE SMOOTH",
"1022 1724 OFFCURVE",
"934 1812 OFFCURVE",
"826 1812 CURVE SMOOTH",
"718 1812 OFFCURVE",
"630 1724 OFFCURVE",
"630 1616 CURVE SMOOTH"
);
},
{
closed = 1;
nodes = (
"698 1686 OFFCURVE",
"756 1744 OFFCURVE",
"826 1744 CURVE SMOOTH",
"896 1744 OFFCURVE",
"954 1686 OFFCURVE",
"954 1616 CURVE SMOOTH",
"954 1546 OFFCURVE",
"896 1488 OFFCURVE",
"826 1488 CURVE SMOOTH",
"756 1488 OFFCURVE",
"698 1546 OFFCURVE",
"698 1616 CURVE SMOOTH"
);
},
{
closed = 1;
nodes = (
"636 1370 LINE",
"80 1370 LINE",
"226 1160 LINE",
"226 442 LINE SMOOTH",
"226 -30 OFFCURVE",
"672 -30 OFFCURVE",
"794 -30 CURVE SMOOTH",
"1000 -30 OFFCURVE",
"1154 60 OFFCURVE",
"1226 192 CURVE SMOOTH",
"1282 296 OFFCURVE",
"1308 372 OFFCURVE",
"1308 554 CURVE SMOOTH",
"1308 1190 LINE",
"1456 1370 LINE",
"1058 1370 LINE",
"1212 1190 LINE",
"1212 602 LINE SMOOTH",
"1212 154 OFFCURVE",
"1028 66 OFFCURVE",
"868 66 CURVE SMOOTH",
"674 66 OFFCURVE",
"488 102 OFFCURVE",
"488 472 CURVE SMOOTH",
"488 1158 LINE"
);
}
);
width = 1526;
},
{
layerId = "F16CA8CE-DA8C-4EBD-81D6-AE00C3431B7F";
paths = (
{
closed = 1;
nodes = (
"630 1508 OFFCURVE",
"718 1420 OFFCURVE",
"826 1420 CURVE SMOOTH",
"934 1420 OFFCURVE",
"1022 1508 OFFCURVE",
"1022 1616 CURVE SMOOTH",
"1022 1724 OFFCURVE",
"934 1812 OFFCURVE",
"826 1812 CURVE SMOOTH",
"718 1812 OFFCURVE",
"630 1724 OFFCURVE",
"630 1616 CURVE SMOOTH"
);
},
{
closed = 1;
nodes = (
"698 1686 OFFCURVE",
"756 1744 OFFCURVE",
"826 1744 CURVE SMOOTH",
"896 1744 OFFCURVE",
"954 1686 OFFCURVE",
"954 1616 CURVE SMOOTH",
"954 1546 OFFCURVE",
"896 1488 OFFCURVE",
"826 1488 CURVE SMOOTH",
"756 1488 OFFCURVE",
"698 1546 OFFCURVE",
"698 1616 CURVE SMOOTH"
);
},
{
closed = 1;
nodes = (
"636 1370 LINE",
"80 1370 LINE",
"226 1160 LINE",
"226 442 LINE SMOOTH",
"226 -30 OFFCURVE",
"672 -30 OFFCURVE",
"794 -30 CURVE SMOOTH",
"1000 -30 OFFCURVE",
"1154 60 OFFCURVE",
"1226 192 CURVE SMOOTH",
"1282 296 OFFCURVE",
"1308 372 OFFCURVE",
"1308 554 CURVE SMOOTH",
"1308 1190 LINE",
"1456 1370 LINE",
"1058 1370 LINE",
"1212 1190 LINE",
"1212 602 LINE SMOOTH",
"1212 154 OFFCURVE",
"1028 66 OFFCURVE",
"868 66 CURVE SMOOTH",
"674 66 OFFCURVE",
"488 102 OFFCURVE",
"488 472 CURVE SMOOTH",
"488 1158 LINE"
);
}
);
width = 1526;
},
{
layerId = "02ADBE8D-B3BB-4EC7-92FE-8DBAAB138109";
paths = (
{
closed = 1;
nodes = (
"630 1508 OFFCURVE",
"718 1420 OFFCURVE",
"826 1420 CURVE SMOOTH",
"934 1420 OFFCURVE",
"1022 1508 OFFCURVE",
"1022 1616 CURVE SMOOTH",
"1022 1724 OFFCURVE",
"934 1812 OFFCURVE",
"826 1812 CURVE SMOOTH",
"718 1812 OFFCURVE",
"630 1724 OFFCURVE",
"630 1616 CURVE SMOOTH"
);
},
{
closed = 1;
nodes = (
"698 1686 OFFCURVE",
"756 1744 OFFCURVE",
"826 1744 CURVE SMOOTH",
"896 1744 OFFCURVE",
"954 1686 OFFCURVE",
"954 1616 CURVE SMOOTH",
"954 1546 OFFCURVE",
"896 1488 OFFCURVE",
"826 1488 CURVE SMOOTH",
"756 1488 OFFCURVE",
"698 1546 OFFCURVE",
"698 1616 CURVE SMOOTH"
);
},
{
closed = 1;
nodes = (
"636 1370 LINE",
"80 1370 LINE",
"226 1160 LINE",
"226 442 LINE SMOOTH",
"226 -30 OFFCURVE",
"672 -30 OFFCURVE",
"794 -30 CURVE SMOOTH",
"1000 -30 OFFCURVE",
"1154 60 OFFCURVE",
"1226 192 CURVE SMOOTH",
"1282 296 OFFCURVE",
"1308 372 OFFCURVE",
"1308 554 CURVE SMOOTH",
"1308 1190 LINE",
"1456 1370 LINE",
"1058 1370 LINE",
"1212 1190 LINE",
"1212 602 LINE SMOOTH",
"1212 154 OFFCURVE",
"1028 66 OFFCURVE",
"868 66 CURVE SMOOTH",
"674 66 OFFCURVE",
"488 102 OFFCURVE",
"488 472 CURVE SMOOTH",
"488 1158 LINE"
);
}
);
width = 1526;
}
);
unicode = 016E;
},
{
color = 4;
glyphname = V;
layers = (
{
layerId = master01;
paths = (
{
closed = 1;
nodes = (
"750 312 OFFCURVE",
"540 860 OFFCURVE",
"402 1214 OFFCURVE",
"390 1244 OFFCURVE",
"406 1262 OFFCURVE",
"464 1308 OFFCURVE",
"540 1354 OFFCURVE",
"540 1380 OFFCURVE",
"500 1384 OFFCURVE",
"356 1368 OFFCURVE",
"268 1368 QCURVE SMOOTH",
"160 1368 OFFCURVE",
"52 1384 OFFCURVE",
"16 1382 OFFCURVE",
"10 1352 OFFCURVE",
"66 1310 OFFCURVE",
"108 1258 OFFCURVE",
"120 1242 OFFCURVE",
"338 726 OFFCURVE",
"622 8 OFFCURVE",
"640 -26 OFFCURVE",
"662 -40 OFFCURVE",
"688 -40 QCURVE SMOOTH",
"716 -40 OFFCURVE",
"744 -28 OFFCURVE",
"762 4 OFFCURVE",
"1068 824 OFFCURVE",
"1204 1184 OFFCURVE",
"1222 1208 OFFCURVE",
"1280 1288 OFFCURVE",
"1342 1352 OFFCURVE",
"1332 1380 OFFCURVE",
"1300 1382 OFFCURVE",
"1144 1364 OFFCURVE",
"972 1384 OFFCURVE",
"938 1380 OFFCURVE",
"944 1354 OFFCURVE",
"1040 1274 OFFCURVE",
"1088 1220 OFFCURVE",
"1104 1196 OFFCURVE",
"1100 1176 OFFCURVE",
"956 784 OFFCURVE",
"786 312 OFFCURVE",
"766 288 OFFCURVE"
);
}
);
userData = {
com.schriftgestaltung.Glyphs.lastChange = "2020-04-17 19:36:31 +0000";
};
width = 1362;
},
{
associatedMasterId = master01;
layerId = "BCA23F7D-69C9-456A-9D5F-11D50B1B09D8";
name = "Apr 21 20, 19:30";
paths = (
{
closed = 1;
nodes = (
"740 370 LINE",
"392 1248 LINE",
"552 1370 LINE",
"6 1370 LINE",
"110 1252 LINE",
"638 -40 LINE",
"734 -40 LINE",
"1212 1192 LINE",
"1352 1370 LINE",
"934 1370 LINE",
"1104 1198 LINE",
"766 276 LINE"
);
}
);
userData = {
com.schriftgestaltung.Glyphs.lastChange = "2020-04-17 19:36:31 +0000";
};
visible = 1;
width = 1362;
},
{
layerId = "F16CA8CE-DA8C-4EBD-81D6-AE00C3431B7F";
paths = (
{
closed = 1;
nodes = (
"750 312 OFFCURVE",
"540 860 OFFCURVE",
"402 1214 OFFCURVE",
"390 1244 OFFCURVE",
"406 1262 OFFCURVE",
"464 1308 OFFCURVE",
"540 1354 OFFCURVE",
"540 1380 OFFCURVE",
"500 1384 OFFCURVE",
"356 1368 OFFCURVE",
"268 1368 QCURVE SMOOTH",
"160 1368 OFFCURVE",
"52 1384 OFFCURVE",
"16 1382 OFFCURVE",
"10 1352 OFFCURVE",
"66 1310 OFFCURVE",
"108 1258 OFFCURVE",
"120 1242 OFFCURVE",
"338 726 OFFCURVE",
"622 8 OFFCURVE",
"640 -26 OFFCURVE",
"662 -40 OFFCURVE",
"688 -40 QCURVE SMOOTH",
"716 -40 OFFCURVE",
"744 -28 OFFCURVE",
"762 4 OFFCURVE",
"1068 824 OFFCURVE",
"1204 1184 OFFCURVE",
"1222 1208 OFFCURVE",
"1280 1288 OFFCURVE",
"1342 1352 OFFCURVE",
"1332 1380 OFFCURVE",
"1300 1382 OFFCURVE",
"1144 1364 OFFCURVE",
"972 1384 OFFCURVE",
"938 1380 OFFCURVE",
"944 1354 OFFCURVE",
"1040 1274 OFFCURVE",
"1088 1220 OFFCURVE",
"1104 1196 OFFCURVE",
"1100 1176 OFFCURVE",
"956 784 OFFCURVE",
"786 312 OFFCURVE",
"766 288 OFFCURVE"
);
}
);
userData = {
com.schriftgestaltung.Glyphs.lastChange = "2020-04-17 19:36:31 +0000";
};
width = 1362;
},
{
associatedMasterId = "F16CA8CE-DA8C-4EBD-81D6-AE00C3431B7F";
layerId = "0F45A7A4-7AF3-43DA-85D2-DC6E06DE5D25";
name = "Apr 21 20, 19:30";
paths = (
{
closed = 1;
nodes = (
"740 370 LINE",
"392 1248 LINE",
"552 1370 LINE",
"6 1370 LINE",
"110 1252 LINE",
"638 -40 LINE",
"734 -40 LINE",
"1212 1192 LINE",
"1352 1370 LINE",
"934 1370 LINE",
"1104 1198 LINE",
"766 276 LINE"
);
}
);
userData = {
com.schriftgestaltung.Glyphs.lastChange = "2020-04-17 19:36:31 +0000";
};
width = 1362;
},
{
layerId = "02ADBE8D-B3BB-4EC7-92FE-8DBAAB138109";
paths = (
{
closed = 1;
nodes = (
"750 312 OFFCURVE",
"540 860 OFFCURVE",
"402 1214 OFFCURVE",
"390 1244 OFFCURVE",
"406 1262 OFFCURVE",
"464 1308 OFFCURVE",
"540 1354 OFFCURVE",
"540 1380 OFFCURVE",
"500 1384 OFFCURVE",
"356 1368 OFFCURVE",
"268 1368 QCURVE SMOOTH",
"160 1368 OFFCURVE",
"52 1384 OFFCURVE",
"16 1382 OFFCURVE",
"10 1352 OFFCURVE",
"66 1310 OFFCURVE",
"108 1258 OFFCURVE",
"120 1242 OFFCURVE",
"338 726 OFFCURVE",
"622 8 OFFCURVE",
"640 -26 OFFCURVE",
"662 -40 OFFCURVE",
"688 -40 QCURVE SMOOTH",
"716 -40 OFFCURVE",
"744 -28 OFFCURVE",
"762 4 OFFCURVE",
"1068 824 OFFCURVE",
"1204 1184 OFFCURVE",
"1222 1208 OFFCURVE",
"1280 1288 OFFCURVE",
"1342 1352 OFFCURVE",
"1332 1380 OFFCURVE",
"1300 1382 OFFCURVE",
"1144 1364 OFFCURVE",
"972 1384 OFFCURVE",
"938 1380 OFFCURVE",
"944 1354 OFFCURVE",
"1040 1274 OFFCURVE",
"1088 1220 OFFCURVE",
"1104 1196 OFFCURVE",
"1100 1176 OFFCURVE",
"956 784 OFFCURVE",
"786 312 OFFCURVE",
"766 288 OFFCURVE"
);
}
);
userData = {
com.schriftgestaltung.Glyphs.lastChange = "2020-04-17 19:36:31 +0000";
};
width = 1362;
},
{
associatedMasterId = "02ADBE8D-B3BB-4EC7-92FE-8DBAAB138109";
layerId = "66D4BCB9-6BBD-4D31-A8C4-9B5EFA94B45B";
name = "Apr 21 20, 19:30";
paths = (
{
closed = 1;
nodes = (
"740 370 LINE",
"392 1248 LINE",
"552 1370 LINE",
"6 1370 LINE",
"110 1252 LINE",
"638 -40 LINE",
"734 -40 LINE",
"1212 1192 LINE",
"1352 1370 LINE",
"934 1370 LINE",
"1104 1198 LINE",
"766 276 LINE"
);
}
);
userData = {
com.schriftgestaltung.Glyphs.lastChange = "2020-04-17 19:36:31 +0000";
};
width = 1362;
}
);
unicode = 0056;
},
{
color = 4;
glyphname = W;
layers = (
{
layerId = master01;
paths = (
{
closed = 1;
nodes = (
"1052 740 OFFCURVE",
"1098 592 OFFCURVE",
"1316 0 OFFCURVE",
"1334 -26 OFFCURVE",
"1384 -22 OFFCURVE",
"1440 -26 OFFCURVE",
"1452 -2 OFFCURVE",
"1696 700 OFFCURVE",
"1868 1188 OFFCURVE",
"1884 1212 OFFCURVE",
"1936 1284 OFFCURVE",
"1992 1340 OFFCURVE",
"2004 1372 OFFCURVE",
"1976 1382 OFFCURVE",
"1804 1370 OFFCURVE",
"1632 1386 OFFCURVE",
"1596 1378 OFFCURVE",
"1612 1344 OFFCURVE",
"1696 1276 OFFCURVE",
"1760 1200 OFFCURVE",
"1760 1176 OFFCURVE",
"1616 732 OFFCURVE",
"1484 332 OFFCURVE",
"1464 310 OFFCURVE",
"1444 332 OFFCURVE",
"1278 812 OFFCURVE",
"1128 1232 OFFCURVE",
"1128 1252 OFFCURVE",
"1202 1312 OFFCURVE",
"1280 1352 OFFCURVE",
"1288 1380 OFFCURVE",
"1260 1384 OFFCURVE",
"1080 1368 OFFCURVE",
"1008 1368 QCURVE SMOOTH",
"900 1368 OFFCURVE",
"774 1380 OFFCURVE",
"750 1372 OFFCURVE",
"760 1346 OFFCURVE",
"804 1312 OFFCURVE",
"834 1270 OFFCURVE",
"844 1248 OFFCURVE",
"926 1060 OFFCURVE",
"988 884 OFFCURVE",
"984 852 OFFCURVE",
"878 584 OFFCURVE",
"778 332 OFFCURVE",
"762 308 OFFCURVE",
"744 332 OFFCURVE",
"530 912 OFFCURVE",
"414 1236 OFFCURVE",
"414 1256 OFFCURVE",
"484 1308 OFFCURVE",
"556 1350 OFFCURVE",
"558 1376 OFFCURVE",
"530 1382 OFFCURVE",
"284 1366 OFFCURVE",
"74 1378 OFFCURVE",
"40 1378 OFFCURVE",
"32 1358 OFFCURVE",
"98 1300 OFFCURVE",
"132 1256 OFFCURVE",
"144 1232 OFFCURVE",
"390 616 OFFCURVE",
"614 6 OFFCURVE",
"628 -30 OFFCURVE",
"682 -26 OFFCURVE",
"740 -32 OFFCURVE",
"760 12 OFFCURVE",
"970 592 OFFCURVE",
"1018 740 OFFCURVE",
"1032 740 QCURVE SMOOTH"
);
}
);
userData = {
com.schriftgestaltung.Glyphs.lastChange = "2020-04-17 19:36:31 +0000";
};
width = 2010;
},
{
associatedMasterId = master01;
layerId = "536AD4CB-39D6-44B7-A576-A5EF12F62FCA";
name = "Apr 21 20, 21:36";
paths = (
{
closed = 1;
nodes = (
"1438 370 LINE",
"1128 1248 LINE",
"1184 1288 OFFCURVE",
"1236 1328 OFFCURVE",
"1290 1370 CURVE",
"1108 1372 OFFCURVE",
"928 1372 OFFCURVE",
"744 1370 CURVE",
"776 1332 OFFCURVE",
"812 1296 OFFCURVE",
"844 1256 CURVE",
"988 872 LINE",
"760 296 LINE",
"740 370 LINE",
"412 1248 LINE",
"464 1288 OFFCURVE",
"520 1328 OFFCURVE",
"572 1370 CURVE",
"392 1372 OFFCURVE",
"208 1372 OFFCURVE",
"26 1370 CURVE",
"60 1332 OFFCURVE",
"96 1292 OFFCURVE",
"130 1252 CURVE",
"626 -24 LINE",
"748 -24 LINE",
"1032 754 LINE",
"1322 -24 LINE",
"1444 -24 LINE",
"1872 1198 LINE",
"2008 1370 LINE",
"1590 1370 LINE",
"1762 1196 LINE",
"1462 282 LINE"
);
}
);
userData = {
com.schriftgestaltung.Glyphs.lastChange = "2020-04-17 19:36:31 +0000";
};
visible = 1;
width = 2010;
},
{
layerId = "F16CA8CE-DA8C-4EBD-81D6-AE00C3431B7F";
paths = (
{
closed = 1;
nodes = (
"1052 740 OFFCURVE",
"1098 592 OFFCURVE",
"1316 0 OFFCURVE",
"1334 -26 OFFCURVE",
"1384 -22 OFFCURVE",
"1440 -26 OFFCURVE",
"1452 -2 OFFCURVE",
"1696 700 OFFCURVE",
"1868 1188 OFFCURVE",
"1884 1212 OFFCURVE",
"1936 1284 OFFCURVE",
"1992 1340 OFFCURVE",
"2004 1372 OFFCURVE",
"1976 1382 OFFCURVE",
"1804 1370 OFFCURVE",
"1632 1386 OFFCURVE",
"1596 1378 OFFCURVE",
"1612 1344 OFFCURVE",
"1696 1276 OFFCURVE",
"1760 1200 OFFCURVE",
"1760 1176 OFFCURVE",
"1616 732 OFFCURVE",
"1484 332 OFFCURVE",
"1464 310 OFFCURVE",
"1444 332 OFFCURVE",
"1278 812 OFFCURVE",
"1128 1232 OFFCURVE",
"1128 1252 OFFCURVE",
"1202 1312 OFFCURVE",
"1280 1352 OFFCURVE",
"1288 1380 OFFCURVE",
"1260 1384 OFFCURVE",
"1080 1368 OFFCURVE",
"1008 1368 QCURVE SMOOTH",
"900 1368 OFFCURVE",
"774 1380 OFFCURVE",
"750 1372 OFFCURVE",
"760 1346 OFFCURVE",
"804 1312 OFFCURVE",
"834 1270 OFFCURVE",
"844 1248 OFFCURVE",
"926 1060 OFFCURVE",
"988 884 OFFCURVE",
"984 852 OFFCURVE",
"878 584 OFFCURVE",
"778 332 OFFCURVE",
"762 308 OFFCURVE",
"744 332 OFFCURVE",
"530 912 OFFCURVE",
"414 1236 OFFCURVE",
"414 1256 OFFCURVE",
"484 1308 OFFCURVE",
"556 1350 OFFCURVE",
"558 1376 OFFCURVE",
"530 1382 OFFCURVE",
"284 1366 OFFCURVE",
"74 1378 OFFCURVE",
"40 1378 OFFCURVE",
"32 1358 OFFCURVE",
"98 1300 OFFCURVE",
"132 1256 OFFCURVE",
"144 1232 OFFCURVE",
"390 616 OFFCURVE",
"614 6 OFFCURVE",
"628 -30 OFFCURVE",
"682 -26 OFFCURVE",
"740 -32 OFFCURVE",
"760 12 OFFCURVE",
"970 592 OFFCURVE",
"1018 740 OFFCURVE",
"1032 740 QCURVE SMOOTH"
);
}
);
userData = {
com.schriftgestaltung.Glyphs.lastChange = "2020-04-17 19:36:31 +0000";
};
width = 2010;
},
{
associatedMasterId = "F16CA8CE-DA8C-4EBD-81D6-AE00C3431B7F";
layerId = "F95D7B2C-E492-4BDC-934F-D16CA773BF4F";
name = "Apr 21 20, 21:36";
paths = (
{
closed = 1;
nodes = (
"1438 370 LINE",
"1128 1248 LINE",
"1184 1288 OFFCURVE",
"1236 1328 OFFCURVE",
"1290 1370 CURVE",
"1108 1372 OFFCURVE",
"928 1372 OFFCURVE",
"744 1370 CURVE",
"776 1332 OFFCURVE",
"812 1296 OFFCURVE",
"844 1256 CURVE",
"988 872 LINE",
"760 296 LINE",
"740 370 LINE",
"412 1248 LINE",
"464 1288 OFFCURVE",
"520 1328 OFFCURVE",
"572 1370 CURVE",
"392 1372 OFFCURVE",
"208 1372 OFFCURVE",
"26 1370 CURVE",
"60 1332 OFFCURVE",
"96 1292 OFFCURVE",
"130 1252 CURVE",
"626 -24 LINE",
"748 -24 LINE",
"1032 754 LINE",
"1322 -24 LINE",
"1444 -24 LINE",
"1872 1198 LINE",
"2008 1370 LINE",
"1590 1370 LINE",
"1762 1196 LINE",
"1462 282 LINE"
);
}
);
userData = {
com.schriftgestaltung.Glyphs.lastChange = "2020-04-17 19:36:31 +0000";
};
width = 2010;
},
{
layerId = "02ADBE8D-B3BB-4EC7-92FE-8DBAAB138109";
paths = (
{
closed = 1;
nodes = (
"1052 740 OFFCURVE",
"1098 592 OFFCURVE",
"1316 0 OFFCURVE",
"1334 -26 OFFCURVE",
"1384 -22 OFFCURVE",
"1440 -26 OFFCURVE",
"1452 -2 OFFCURVE",
"1696 700 OFFCURVE",
"1868 1188 OFFCURVE",
"1884 1212 OFFCURVE",
"1936 1284 OFFCURVE",
"1992 1340 OFFCURVE",
"2004 1372 OFFCURVE",
"1976 1382 OFFCURVE",
"1804 1370 OFFCURVE",
"1632 1386 OFFCURVE",
"1596 1378 OFFCURVE",
"1612 1344 OFFCURVE",
"1696 1276 OFFCURVE",
"1760 1200 OFFCURVE",
"1760 1176 OFFCURVE",
"1616 732 OFFCURVE",
"1484 332 OFFCURVE",
"1464 310 OFFCURVE",
"1444 332 OFFCURVE",
"1278 812 OFFCURVE",
"1128 1232 OFFCURVE",
"1128 1252 OFFCURVE",
"1202 1312 OFFCURVE",
"1280 1352 OFFCURVE",
"1288 1380 OFFCURVE",
"1260 1384 OFFCURVE",
"1080 1368 OFFCURVE",
"1008 1368 QCURVE SMOOTH",
"900 1368 OFFCURVE",
"774 1380 OFFCURVE",
"750 1372 OFFCURVE",
"760 1346 OFFCURVE",
"804 1312 OFFCURVE",
"834 1270 OFFCURVE",
"844 1248 OFFCURVE",
"926 1060 OFFCURVE",
"988 884 OFFCURVE",
"984 852 OFFCURVE",
"878 584 OFFCURVE",
"778 332 OFFCURVE",
"762 308 OFFCURVE",
"744 332 OFFCURVE",
"530 912 OFFCURVE",
"414 1236 OFFCURVE",
"414 1256 OFFCURVE",
"484 1308 OFFCURVE",
"556 1350 OFFCURVE",
"558 1376 OFFCURVE",
"530 1382 OFFCURVE",
"284 1366 OFFCURVE",
"74 1378 OFFCURVE",
"40 1378 OFFCURVE",
"32 1358 OFFCURVE",
"98 1300 OFFCURVE",
"132 1256 OFFCURVE",
"144 1232 OFFCURVE",
"390 616 OFFCURVE",
"614 6 OFFCURVE",
"628 -30 OFFCURVE",
"682 -26 OFFCURVE",
"740 -32 OFFCURVE",
"760 12 OFFCURVE",
"970 592 OFFCURVE",
"1018 740 OFFCURVE",
"1032 740 QCURVE SMOOTH"
);
}
);
userData = {
com.schriftgestaltung.Glyphs.lastChange = "2020-04-17 19:36:31 +0000";
};
width = 2010;
},
{
associatedMasterId = "02ADBE8D-B3BB-4EC7-92FE-8DBAAB138109";
layerId = "414CF89F-BA29-409D-A6F1-E4F68F3F1742";
name = "Apr 21 20, 21:36";
paths = (
{
closed = 1;
nodes = (
"1438 370 LINE",
"1128 1248 LINE",
"1184 1288 OFFCURVE",
"1236 1328 OFFCURVE",
"1290 1370 CURVE",
"1108 1372 OFFCURVE",
"928 1372 OFFCURVE",
"744 1370 CURVE",
"776 1332 OFFCURVE",
"812 1296 OFFCURVE",
"844 1256 CURVE",
"988 872 LINE",
"760 296 LINE",
"740 370 LINE",
"412 1248 LINE",
"464 1288 OFFCURVE",
"520 1328 OFFCURVE",
"572 1370 CURVE",
"392 1372 OFFCURVE",
"208 1372 OFFCURVE",
"26 1370 CURVE",
"60 1332 OFFCURVE",
"96 1292 OFFCURVE",
"130 1252 CURVE",
"626 -24 LINE",
"748 -24 LINE",
"1032 754 LINE",
"1322 -24 LINE",
"1444 -24 LINE",
"1872 1198 LINE",
"2008 1370 LINE",
"1590 1370 LINE",
"1762 1196 LINE",
"1462 282 LINE"
);
}
);
userData = {
com.schriftgestaltung.Glyphs.lastChange = "2020-04-17 19:36:31 +0000";
};
width = 2010;
}
);
unicode = 0057;
},
{
glyphname = Wacute;
layers = (
{
layerId = master01;
paths = (
{
closed = 1;
nodes = (
"1276 1738 LINE",
"1014 1738 LINE",
"988 1480 LINE",
"1018 1480 LINE"
);
},
{
closed = 1;
nodes = (
"1438 370 LINE",
"1128 1248 LINE",
"1290 1370 LINE",
"744 1370 LINE",
"844 1256 LINE",
"988 872 LINE",
"760 296 LINE",
"740 370 LINE",
"412 1248 LINE",
"572 1370 LINE",
"26 1370 LINE",
"130 1252 LINE",
"626 -24 LINE",
"748 -24 LINE",
"1032 754 LINE",
"1322 -24 LINE",
"1444 -24 LINE",
"1872 1198 LINE",
"2008 1370 LINE",
"1590 1370 LINE",
"1762 1196 LINE",
"1462 282 LINE"
);
}
);
width = 2010;
},
{
layerId = "F16CA8CE-DA8C-4EBD-81D6-AE00C3431B7F";
paths = (
{
closed = 1;
nodes = (
"1276 1738 LINE",
"1014 1738 LINE",
"988 1480 LINE",
"1018 1480 LINE"
);
},
{
closed = 1;
nodes = (
"1438 370 LINE",
"1128 1248 LINE",
"1290 1370 LINE",
"744 1370 LINE",
"844 1256 LINE",
"988 872 LINE",
"760 296 LINE",
"740 370 LINE",
"412 1248 LINE",
"572 1370 LINE",
"26 1370 LINE",
"130 1252 LINE",
"626 -24 LINE",
"748 -24 LINE",
"1032 754 LINE",
"1322 -24 LINE",
"1444 -24 LINE",
"1872 1198 LINE",
"2008 1370 LINE",
"1590 1370 LINE",
"1762 1196 LINE",
"1462 282 LINE"
);
}
);
width = 2010;
},
{
layerId = "02ADBE8D-B3BB-4EC7-92FE-8DBAAB138109";
paths = (
{
closed = 1;
nodes = (
"1276 1738 LINE",
"1014 1738 LINE",
"988 1480 LINE",
"1018 1480 LINE"
);
},
{
closed = 1;
nodes = (
"1438 370 LINE",
"1128 1248 LINE",
"1290 1370 LINE",
"744 1370 LINE",
"844 1256 LINE",
"988 872 LINE",
"760 296 LINE",
"740 370 LINE",
"412 1248 LINE",
"572 1370 LINE",
"26 1370 LINE",
"130 1252 LINE",
"626 -24 LINE",
"748 -24 LINE",
"1032 754 LINE",
"1322 -24 LINE",
"1444 -24 LINE",
"1872 1198 LINE",
"2008 1370 LINE",
"1590 1370 LINE",
"1762 1196 LINE",
"1462 282 LINE"
);
}
);
width = 2010;
}
);
unicode = 1E82;
},
